<?xml version="1.0" encoding="utf-8" standalone="no"?>
<!DOCTYPE svg PUBLIC "-//W3C//DTD SVG 1.1//EN"
  "http://www.w3.org/Graphics/SVG/1.1/DTD/svg11.dtd">
<!-- Created with matplotlib (http://matplotlib.org/) -->
<svg height="354.04pt" version="1.1" viewBox="0 0 356.2 354.04" width="356.2pt" xmlns="http://www.w3.org/2000/svg" xmlns:xlink="http://www.w3.org/1999/xlink">
 <defs>
  <style type="text/css">
*{stroke-linecap:butt;stroke-linejoin:round;}
  </style>
 </defs>
 <g id="figure_1">
  <g id="patch_1">
   <path d="M 0 354.04 
L 356.2 354.04 
L 356.2 0 
L 0 0 
z
" style="fill:#ffffff;"/>
  </g>
  <g id="axes_1">
   <g id="PatchCollection_1">
    <path clip-path="url(#pab62745c8b)" d="M 178.1 329.201818 
C 218.45909 329.201818 257.170609 313.166982 285.708796 284.628796 
C 314.246982 256.090609 330.281818 217.37909 330.281818 177.02 
C 330.281818 136.66091 314.246982 97.949391 285.708796 69.411204 
C 257.170609 40.873018 218.45909 24.838182 178.1 24.838182 
C 137.74091 24.838182 99.029391 40.873018 70.491204 69.411204 
C 41.953018 97.949391 25.918182 136.66091 25.918182 177.02 
C 25.918182 217.37909 41.953018 256.090609 70.491204 284.628796 
C 99.029391 313.166982 137.74091 329.201818 178.1 329.201818 
z
" style="fill:#ffffff;fill-opacity:0.5;"/>
   </g>
   <g id="PatchCollection_2">
    <path clip-path="url(#pab62745c8b)" d="M 273.213636 177.02 
L 273.022142 170.98752 
L 216.068857 174.607008 
L 216.145455 177.02 
z
" style="fill:#1f77b4;"/>
   </g>
   <g id="PatchCollection_3">
    <path clip-path="url(#pab62745c8b)" d="M 273.022142 170.98752 
L 272.448429 164.979331 
L 215.839372 172.203733 
L 216.068857 174.607008 
z
" style="fill:#2677af;"/>
   </g>
   <g id="PatchCollection_4">
    <path clip-path="url(#pab62745c8b)" d="M 272.448429 164.979331 
L 271.494809 159.019626 
L 215.457924 169.81985 
L 215.839372 172.203733 
z
" style="fill:#2d77aa;"/>
   </g>
   <g id="PatchCollection_5">
    <path clip-path="url(#pab62745c8b)" d="M 271.494809 159.019626 
L 270.165121 153.132402 
L 214.926048 167.464961 
L 215.457924 169.81985 
z
" style="fill:#3378a5;"/>
   </g>
   <g id="PatchCollection_6">
    <path clip-path="url(#pab62745c8b)" d="M 270.165121 153.132402 
L 268.464719 147.341364 
L 214.245888 165.148546 
L 214.926048 167.464961 
z
" style="fill:#3a78a0;"/>
   </g>
   <g id="PatchCollection_7">
    <path clip-path="url(#pab62745c8b)" d="M 268.464719 147.341364 
L 266.40045 141.669832 
L 213.42018 162.879933 
L 214.245888 165.148546 
z
" style="fill:#41789b;"/>
   </g>
   <g id="PatchCollection_8">
    <path clip-path="url(#pab62745c8b)" d="M 266.40045 141.669832 
L 263.980626 136.140643 
L 212.452251 160.668257 
L 213.42018 162.879933 
z
" style="fill:#487896;"/>
   </g>
   <g id="PatchCollection_9">
    <path clip-path="url(#pab62745c8b)" d="M 263.980626 136.140643 
L 261.214992 130.77606 
L 211.345997 158.522424 
L 212.452251 160.668257 
z
" style="fill:#4f7991;"/>
   </g>
   <g id="PatchCollection_10">
    <path clip-path="url(#pab62745c8b)" d="M 261.214992 130.77606 
L 258.114683 125.597686 
L 210.105873 156.451074 
L 211.345997 158.522424 
z
" style="fill:#55798c;"/>
   </g>
   <g id="PatchCollection_11">
    <path clip-path="url(#pab62745c8b)" d="M 258.114683 125.597686 
L 254.692182 120.626371 
L 208.736873 154.462548 
L 210.105873 156.451074 
z
" style="fill:#5c7987;"/>
   </g>
   <g id="PatchCollection_12">
    <path clip-path="url(#pab62745c8b)" d="M 254.692182 120.626371 
L 250.961273 115.882133 
L 207.244509 152.564853 
L 208.736873 154.462548 
z
" style="fill:#637982;"/>
   </g>
   <g id="PatchCollection_13">
    <path clip-path="url(#pab62745c8b)" d="M 250.961273 115.882133 
L 246.936976 111.384076 
L 205.63479 150.76563 
L 207.244509 152.564853 
z
" style="fill:#6a7a7d;"/>
   </g>
   <g id="PatchCollection_14">
    <path clip-path="url(#pab62745c8b)" d="M 246.936976 111.384076 
L 242.635497 107.150311 
L 203.914199 149.072125 
L 205.63479 150.76563 
z
" style="fill:#707a78;"/>
   </g>
   <g id="PatchCollection_15">
    <path clip-path="url(#pab62745c8b)" d="M 242.635497 107.150311 
L 238.074157 103.197887 
L 202.089663 147.491155 
L 203.914199 149.072125 
z
" style="fill:#777a73;"/>
   </g>
   <g id="PatchCollection_16">
    <path clip-path="url(#pab62745c8b)" d="M 238.074157 103.197887 
L 233.271322 99.542719 
L 200.168529 146.029088 
L 202.089663 147.491155 
z
" style="fill:#7e7a6e;"/>
   </g>
   <g id="PatchCollection_17">
    <path clip-path="url(#pab62745c8b)" d="M 233.271322 99.542719 
L 228.246331 96.199524 
L 198.158533 144.69181 
L 200.168529 146.029088 
z
" style="fill:#857b69;"/>
   </g>
   <g id="PatchCollection_18">
    <path clip-path="url(#pab62745c8b)" d="M 228.246331 96.199524 
L 223.019419 93.181765 
L 196.067768 143.484706 
L 198.158533 144.69181 
z
" style="fill:#8c7b64;"/>
   </g>
   <g id="PatchCollection_19">
    <path clip-path="url(#pab62745c8b)" d="M 223.019419 93.181765 
L 217.611632 90.501593 
L 193.904653 142.412637 
L 196.067768 143.484706 
z
" style="fill:#927b5e;"/>
   </g>
   <g id="PatchCollection_20">
    <path clip-path="url(#pab62745c8b)" d="M 217.611632 90.501593 
L 212.044746 88.1698 
L 191.677899 141.47992 
L 193.904653 142.412637 
z
" style="fill:#997b59;"/>
   </g>
   <g id="PatchCollection_21">
    <path clip-path="url(#pab62745c8b)" d="M 212.044746 88.1698 
L 206.341177 86.195775 
L 189.396471 140.69031 
L 191.677899 141.47992 
z
" style="fill:#a07c54;"/>
   </g>
   <g id="PatchCollection_22">
    <path clip-path="url(#pab62745c8b)" d="M 206.341177 86.195775 
L 200.52389 84.587468 
L 187.069556 140.046987 
L 189.396471 140.69031 
z
" style="fill:#a77c4f;"/>
   </g>
   <g id="PatchCollection_23">
    <path clip-path="url(#pab62745c8b)" d="M 200.52389 84.587468 
L 194.61631 83.351353 
L 184.706524 139.552541 
L 187.069556 140.046987 
z
" style="fill:#ae7c4a;"/>
   </g>
   <g id="PatchCollection_24">
    <path clip-path="url(#pab62745c8b)" d="M 194.61631 83.351353 
L 188.642224 82.49241 
L 182.31689 139.208964 
L 184.706524 139.552541 
z
" style="fill:#b47c45;"/>
   </g>
   <g id="PatchCollection_25">
    <path clip-path="url(#pab62745c8b)" d="M 188.642224 82.49241 
L 182.625689 82.014095 
L 179.910276 139.017638 
L 182.31689 139.208964 
z
" style="fill:#bb7d40;"/>
   </g>
   <g id="PatchCollection_26">
    <path clip-path="url(#pab62745c8b)" d="M 182.625689 82.014095 
L 176.59093 81.918336 
L 177.496372 138.979334 
L 179.910276 139.017638 
z
" style="fill:#c27d3b;"/>
   </g>
   <g id="PatchCollection_27">
    <path clip-path="url(#pab62745c8b)" d="M 176.59093 81.918336 
L 170.562248 82.205517 
L 175.084899 139.094207 
L 177.496372 138.979334 
z
" style="fill:#c97d36;"/>
   </g>
   <g id="PatchCollection_28">
    <path clip-path="url(#pab62745c8b)" d="M 170.562248 82.205517 
L 164.563918 82.874483 
L 172.685567 139.361793 
L 175.084899 139.094207 
z
" style="fill:#cf7d31;"/>
   </g>
   <g id="PatchCollection_29">
    <path clip-path="url(#pab62745c8b)" d="M 164.563918 82.874483 
L 158.620093 83.92254 
L 170.308037 139.781016 
L 172.685567 139.361793 
z
" style="fill:#d67e2c;"/>
   </g>
   <g id="PatchCollection_30">
    <path clip-path="url(#pab62745c8b)" d="M 158.620093 83.92254 
L 152.754707 85.345467 
L 167.961883 140.350187 
L 170.308037 139.781016 
z
" style="fill:#dd7e27;"/>
   </g>
   <g id="PatchCollection_31">
    <path clip-path="url(#pab62745c8b)" d="M 152.754707 85.345467 
L 146.991377 87.137536 
L 165.656551 141.067014 
L 167.961883 140.350187 
z
" style="fill:#e47e22;"/>
   </g>
   <g id="PatchCollection_32">
    <path clip-path="url(#pab62745c8b)" d="M 146.991377 87.137536 
L 141.35331 89.291529 
L 163.401324 141.928612 
L 165.656551 141.067014 
z
" style="fill:#eb7e1d;"/>
   </g>
   <g id="PatchCollection_33">
    <path clip-path="url(#pab62745c8b)" d="M 141.35331 89.291529 
L 135.86321 91.798774 
L 161.205284 142.93151 
L 163.401324 141.928612 
z
" style="fill:#f17f18;"/>
   </g>
   <g id="PatchCollection_34">
    <path clip-path="url(#pab62745c8b)" d="M 135.86321 91.798774 
L 130.543182 94.649175 
L 159.077273 144.07167 
L 161.205284 142.93151 
z
" style="fill:#f87f13;"/>
   </g>
   <g id="PatchCollection_35">
    <path clip-path="url(#pab62745c8b)" d="M 130.543182 94.649175 
L 125.414648 97.831254 
L 157.025859 145.344501 
L 159.077273 144.07167 
z
" style="fill:#ff7f0e;"/>
   </g>
   <g id="PatchCollection_36">
    <path clip-path="url(#pab62745c8b)" d="M 125.414648 97.831254 
L 120.49826 101.332198 
L 155.059304 146.744879 
L 157.025859 145.344501 
z
" style="fill:#f77f0e;"/>
   </g>
   <g id="PatchCollection_37">
    <path clip-path="url(#pab62745c8b)" d="M 120.49826 101.332198 
L 115.813814 105.13791 
L 153.185526 148.267164 
L 155.059304 146.744879 
z
" style="fill:#f07f0d;"/>
   </g>
   <g id="PatchCollection_38">
    <path clip-path="url(#pab62745c8b)" d="M 115.813814 105.13791 
L 111.380173 109.233066 
L 151.412069 149.905226 
L 153.185526 148.267164 
z
" style="fill:#e87f0d;"/>
   </g>
   <g id="PatchCollection_39">
    <path clip-path="url(#pab62745c8b)" d="M 111.380173 109.233066 
L 107.215188 113.601176 
L 149.746075 151.65247 
L 151.412069 149.905226 
z
" style="fill:#e07f0c;"/>
   </g>
   <g id="PatchCollection_40">
    <path clip-path="url(#pab62745c8b)" d="M 107.215188 113.601176 
L 103.335632 118.224651 
L 148.194253 153.50186 
L 149.746075 151.65247 
z
" style="fill:#d87f0c;"/>
   </g>
   <g id="PatchCollection_41">
    <path clip-path="url(#pab62745c8b)" d="M 103.335632 118.224651 
L 99.757125 123.084874 
L 146.76285 155.44595 
L 148.194253 153.50186 
z
" style="fill:#d17f0b;"/>
   </g>
   <g id="PatchCollection_42">
    <path clip-path="url(#pab62745c8b)" d="M 99.757125 123.084874 
L 96.494078 128.162275 
L 145.457631 157.47691 
L 146.76285 155.44595 
z
" style="fill:#c97f0b;"/>
   </g>
   <g id="PatchCollection_43">
    <path clip-path="url(#pab62745c8b)" d="M 96.494078 128.162275 
L 93.559628 133.436409 
L 144.283851 159.586564 
L 145.457631 157.47691 
z
" style="fill:#c17f0b;"/>
   </g>
   <g id="PatchCollection_44">
    <path clip-path="url(#pab62745c8b)" d="M 93.559628 133.436409 
L 90.965593 138.886039 
L 143.246237 161.766416 
L 144.283851 159.586564 
z
" style="fill:#b97f0a;"/>
   </g>
   <g id="PatchCollection_45">
    <path clip-path="url(#pab62745c8b)" d="M 90.965593 138.886039 
L 88.722418 144.48922 
L 142.348967 164.007688 
L 143.246237 161.766416 
z
" style="fill:#b27f0a;"/>
   </g>
   <g id="PatchCollection_46">
    <path clip-path="url(#pab62745c8b)" d="M 88.722418 144.48922 
L 86.839134 150.223392 
L 141.595654 166.301357 
L 142.348967 164.007688 
z
" style="fill:#aa7f09;"/>
   </g>
   <g id="PatchCollection_47">
    <path clip-path="url(#pab62745c8b)" d="M 86.839134 150.223392 
L 85.323326 156.065464 
L 140.98933 168.638186 
L 141.595654 166.301357 
z
" style="fill:#a27f09;"/>
   </g>
   <g id="PatchCollection_48">
    <path clip-path="url(#pab62745c8b)" d="M 85.323326 156.065464 
L 84.181097 161.991913 
L 140.532439 171.008765 
L 140.98933 168.638186 
z
" style="fill:#9b7f08;"/>
   </g>
   <g id="PatchCollection_49">
    <path clip-path="url(#pab62745c8b)" d="M 84.181097 161.991913 
L 83.417046 167.978874 
L 140.226818 173.40355 
L 140.532439 171.008765 
z
" style="fill:#937f08;"/>
   </g>
   <g id="PatchCollection_50">
    <path clip-path="url(#pab62745c8b)" d="M 83.417046 167.978874 
L 83.034249 174.002241 
L 140.0737 175.812896 
L 140.226818 173.40355 
z
" style="fill:#8b7f08;"/>
   </g>
   <g id="PatchCollection_51">
    <path clip-path="url(#pab62745c8b)" d="M 83.034249 174.002241 
L 83.034249 180.037759 
L 140.0737 178.227104 
L 140.0737 175.812896 
z
" style="fill:#837f07;"/>
   </g>
   <g id="PatchCollection_52">
    <path clip-path="url(#pab62745c8b)" d="M 83.034249 180.037759 
L 83.417046 186.061126 
L 140.226818 180.63645 
L 140.0737 178.227104 
z
" style="fill:#7c8007;"/>
   </g>
   <g id="PatchCollection_53">
    <path clip-path="url(#pab62745c8b)" d="M 83.417046 186.061126 
L 84.181097 192.048087 
L 140.532439 183.031235 
L 140.226818 180.63645 
z
" style="fill:#748006;"/>
   </g>
   <g id="PatchCollection_54">
    <path clip-path="url(#pab62745c8b)" d="M 84.181097 192.048087 
L 85.323326 197.974536 
L 140.98933 185.401814 
L 140.532439 183.031235 
z
" style="fill:#6c8006;"/>
   </g>
   <g id="PatchCollection_55">
    <path clip-path="url(#pab62745c8b)" d="M 85.323326 197.974536 
L 86.839134 203.816608 
L 141.595654 187.738643 
L 140.98933 185.401814 
z
" style="fill:#648006;"/>
   </g>
   <g id="PatchCollection_56">
    <path clip-path="url(#pab62745c8b)" d="M 86.839134 203.816608 
L 88.722418 209.55078 
L 142.348967 190.032312 
L 141.595654 187.738643 
z
" style="fill:#5d8005;"/>
   </g>
   <g id="PatchCollection_57">
    <path clip-path="url(#pab62745c8b)" d="M 88.722418 209.55078 
L 90.965593 215.153961 
L 143.246237 192.273584 
L 142.348967 190.032312 
z
" style="fill:#558005;"/>
   </g>
   <g id="PatchCollection_58">
    <path clip-path="url(#pab62745c8b)" d="M 90.965593 215.153961 
L 93.559628 220.603591 
L 144.283851 194.453436 
L 143.246237 192.273584 
z
" style="fill:#4d8004;"/>
   </g>
   <g id="PatchCollection_59">
    <path clip-path="url(#pab62745c8b)" d="M 93.559628 220.603591 
L 96.494078 225.877725 
L 145.457631 196.56309 
L 144.283851 194.453436 
z
" style="fill:#468004;"/>
   </g>
   <g id="PatchCollection_60">
    <path clip-path="url(#pab62745c8b)" d="M 96.494078 225.877725 
L 99.757125 230.955126 
L 146.76285 198.59405 
L 145.457631 196.56309 
z
" style="fill:#3e8003;"/>
   </g>
   <g id="PatchCollection_61">
    <path clip-path="url(#pab62745c8b)" d="M 99.757125 230.955126 
L 103.335632 235.815349 
L 148.194253 200.53814 
L 146.76285 198.59405 
z
" style="fill:#368003;"/>
   </g>
   <g id="PatchCollection_62">
    <path clip-path="url(#pab62745c8b)" d="M 103.335632 235.815349 
L 107.215188 240.438824 
L 149.746075 202.38753 
L 148.194253 200.53814 
z
" style="fill:#2e8003;"/>
   </g>
   <g id="PatchCollection_63">
    <path clip-path="url(#pab62745c8b)" d="M 107.215188 240.438824 
L 111.380173 244.806934 
L 151.412069 204.134774 
L 149.746075 202.38753 
z
" style="fill:#278002;"/>
   </g>
   <g id="PatchCollection_64">
    <path clip-path="url(#pab62745c8b)" d="M 111.380173 244.806934 
L 115.813814 248.90209 
L 153.185526 205.772836 
L 151.412069 204.134774 
z
" style="fill:#1f8002;"/>
   </g>
   <g id="PatchCollection_65">
    <path clip-path="url(#pab62745c8b)" d="M 115.813814 248.90209 
L 120.49826 252.707802 
L 155.059304 207.295121 
L 153.185526 205.772836 
z
" style="fill:#178001;"/>
   </g>
   <g id="PatchCollection_66">
    <path clip-path="url(#pab62745c8b)" d="M 120.49826 252.707802 
L 125.414648 256.208746 
L 157.025859 208.695499 
L 155.059304 207.295121 
z
" style="fill:#0f8001;"/>
   </g>
   <g id="PatchCollection_67">
    <path clip-path="url(#pab62745c8b)" d="M 125.414648 256.208746 
L 130.543182 259.390825 
L 159.077273 209.96833 
L 157.025859 208.695499 
z
" style="fill:#088000;"/>
   </g>
   <g id="PatchCollection_68">
    <path clip-path="url(#pab62745c8b)" d="M 130.543182 259.390825 
L 135.86321 262.241226 
L 161.205284 211.10849 
L 159.077273 209.96833 
z
" style="fill:#008000;"/>
   </g>
   <g id="PatchCollection_69">
    <path clip-path="url(#pab62745c8b)" d="M 135.86321 262.241226 
L 141.35331 264.748471 
L 163.401324 212.111388 
L 161.205284 211.10849 
z
" style="fill:#018005;"/>
   </g>
   <g id="PatchCollection_70">
    <path clip-path="url(#pab62745c8b)" d="M 141.35331 264.748471 
L 146.991377 266.902464 
L 165.656551 212.972986 
L 163.401324 212.111388 
z
" style="fill:#027f0b;"/>
   </g>
   <g id="PatchCollection_71">
    <path clip-path="url(#pab62745c8b)" d="M 146.991377 266.902464 
L 152.754707 268.694533 
L 167.961883 213.689813 
L 165.656551 212.972986 
z
" style="fill:#037f10;"/>
   </g>
   <g id="PatchCollection_72">
    <path clip-path="url(#pab62745c8b)" d="M 152.754707 268.694533 
L 158.620093 270.11746 
L 170.308037 214.258984 
L 167.961883 213.689813 
z
" style="fill:#047f16;"/>
   </g>
   <g id="PatchCollection_73">
    <path clip-path="url(#pab62745c8b)" d="M 158.620093 270.11746 
L 164.563918 271.165517 
L 172.685567 214.678207 
L 170.308037 214.258984 
z
" style="fill:#057f1b;"/>
   </g>
   <g id="PatchCollection_74">
    <path clip-path="url(#pab62745c8b)" d="M 164.563918 271.165517 
L 170.562248 271.834483 
L 175.084899 214.945793 
L 172.685567 214.678207 
z
" style="fill:#067e21;"/>
   </g>
   <g id="PatchCollection_75">
    <path clip-path="url(#pab62745c8b)" d="M 170.562248 271.834483 
L 176.59093 272.121664 
L 177.496372 215.060666 
L 175.084899 214.945793 
z
" style="fill:#077e26;"/>
   </g>
   <g id="PatchCollection_76">
    <path clip-path="url(#pab62745c8b)" d="M 176.59093 272.121664 
L 182.625689 272.025905 
L 179.910276 215.022362 
L 177.496372 215.060666 
z
" style="fill:#087e2c;"/>
   </g>
   <g id="PatchCollection_77">
    <path clip-path="url(#pab62745c8b)" d="M 182.625689 272.025905 
L 188.642224 271.54759 
L 182.31689 214.831036 
L 179.910276 215.022362 
z
" style="fill:#087e31;"/>
   </g>
   <g id="PatchCollection_78">
    <path clip-path="url(#pab62745c8b)" d="M 188.642224 271.54759 
L 194.61631 270.688647 
L 184.706524 214.487459 
L 182.31689 214.831036 
z
" style="fill:#097d37;"/>
   </g>
   <g id="PatchCollection_79">
    <path clip-path="url(#pab62745c8b)" d="M 194.61631 270.688647 
L 200.52389 269.452532 
L 187.069556 213.993013 
L 184.706524 214.487459 
z
" style="fill:#0a7d3c;"/>
   </g>
   <g id="PatchCollection_80">
    <path clip-path="url(#pab62745c8b)" d="M 200.52389 269.452532 
L 206.341177 267.844225 
L 189.396471 213.34969 
L 187.069556 213.993013 
z
" style="fill:#0b7d41;"/>
   </g>
   <g id="PatchCollection_81">
    <path clip-path="url(#pab62745c8b)" d="M 206.341177 267.844225 
L 212.044746 265.8702 
L 191.677899 212.56008 
L 189.396471 213.34969 
z
" style="fill:#0c7c47;"/>
   </g>
   <g id="PatchCollection_82">
    <path clip-path="url(#pab62745c8b)" d="M 212.044746 265.8702 
L 217.611632 263.538407 
L 193.904653 211.627363 
L 191.677899 212.56008 
z
" style="fill:#0d7c4c;"/>
   </g>
   <g id="PatchCollection_83">
    <path clip-path="url(#pab62745c8b)" d="M 217.611632 263.538407 
L 223.019419 260.858235 
L 196.067768 210.555294 
L 193.904653 211.627363 
z
" style="fill:#0e7c52;"/>
   </g>
   <g id="PatchCollection_84">
    <path clip-path="url(#pab62745c8b)" d="M 223.019419 260.858235 
L 228.246331 257.840476 
L 198.158533 209.34819 
L 196.067768 210.555294 
z
" style="fill:#0f7c57;"/>
   </g>
   <g id="PatchCollection_85">
    <path clip-path="url(#pab62745c8b)" d="M 228.246331 257.840476 
L 233.271322 254.497281 
L 200.168529 208.010912 
L 198.158533 209.34819 
z
" style="fill:#107b5d;"/>
   </g>
   <g id="PatchCollection_86">
    <path clip-path="url(#pab62745c8b)" d="M 233.271322 254.497281 
L 238.074157 250.842113 
L 202.089663 206.548845 
L 200.168529 208.010912 
z
" style="fill:#117b62;"/>
   </g>
   <g id="PatchCollection_87">
    <path clip-path="url(#pab62745c8b)" d="M 238.074157 250.842113 
L 242.635497 246.889689 
L 203.914199 204.967875 
L 202.089663 206.548845 
z
" style="fill:#127b68;"/>
   </g>
   <g id="PatchCollection_88">
    <path clip-path="url(#pab62745c8b)" d="M 242.635497 246.889689 
L 246.936976 242.655924 
L 205.63479 203.27437 
L 203.914199 204.967875 
z
" style="fill:#137b6d;"/>
   </g>
   <g id="PatchCollection_89">
    <path clip-path="url(#pab62745c8b)" d="M 246.936976 242.655924 
L 250.961273 238.157867 
L 207.244509 201.475147 
L 205.63479 203.27437 
z
" style="fill:#147a73;"/>
   </g>
   <g id="PatchCollection_90">
    <path clip-path="url(#pab62745c8b)" d="M 250.961273 238.157867 
L 254.692182 233.413629 
L 208.736873 199.577452 
L 207.244509 201.475147 
z
" style="fill:#157a78;"/>
   </g>
   <g id="PatchCollection_91">
    <path clip-path="url(#pab62745c8b)" d="M 254.692182 233.413629 
L 258.114683 228.442314 
L 210.105873 197.588926 
L 208.736873 199.577452 
z
" style="fill:#167a7d;"/>
   </g>
   <g id="PatchCollection_92">
    <path clip-path="url(#pab62745c8b)" d="M 258.114683 228.442314 
L 261.214992 223.26394 
L 211.345997 195.517576 
L 210.105873 197.588926 
z
" style="fill:#177983;"/>
   </g>
   <g id="PatchCollection_93">
    <path clip-path="url(#pab62745c8b)" d="M 261.214992 223.26394 
L 263.980626 217.899357 
L 212.452251 193.371743 
L 211.345997 195.517576 
z
" style="fill:#177988;"/>
   </g>
   <g id="PatchCollection_94">
    <path clip-path="url(#pab62745c8b)" d="M 263.980626 217.899357 
L 266.40045 212.370168 
L 213.42018 191.160067 
L 212.452251 193.371743 
z
" style="fill:#18798e;"/>
   </g>
   <g id="PatchCollection_95">
    <path clip-path="url(#pab62745c8b)" d="M 266.40045 212.370168 
L 268.464719 206.698636 
L 214.245888 188.891454 
L 213.42018 191.160067 
z
" style="fill:#197993;"/>
   </g>
   <g id="PatchCollection_96">
    <path clip-path="url(#pab62745c8b)" d="M 268.464719 206.698636 
L 270.165121 200.907598 
L 214.926048 186.575039 
L 214.245888 188.891454 
z
" style="fill:#1a7899;"/>
   </g>
   <g id="PatchCollection_97">
    <path clip-path="url(#pab62745c8b)" d="M 270.165121 200.907598 
L 271.494809 195.020374 
L 215.457924 184.22015 
L 214.926048 186.575039 
z
" style="fill:#1b789e;"/>
   </g>
   <g id="PatchCollection_98">
    <path clip-path="url(#pab62745c8b)" d="M 271.494809 195.020374 
L 272.448429 189.060669 
L 215.839372 181.836267 
L 215.457924 184.22015 
z
" style="fill:#1c78a4;"/>
   </g>
   <g id="PatchCollection_99">
    <path clip-path="url(#pab62745c8b)" d="M 272.448429 189.060669 
L 273.022142 183.05248 
L 216.068857 179.432992 
L 215.839372 181.836267 
z
" style="fill:#1d78a9;"/>
   </g>
   <g id="PatchCollection_100">
    <path clip-path="url(#pab62745c8b)" d="M 273.022142 183.05248 
L 273.213636 177.02 
L 216.145455 177.02 
L 216.068857 179.432992 
z
" style="fill:#1e77af;"/>
   </g>
   <g id="line2d_1">
    <path clip-path="url(#pab62745c8b)" d="M 273.213636 177.02 
L 273.022142 170.98752 
L 272.448429 164.979331 
L 271.494809 159.019626 
L 270.165121 153.132402 
L 268.464719 147.341364 
L 266.40045 141.669832 
L 263.980626 136.140643 
L 261.214992 130.77606 
L 258.114683 125.597686 
L 254.692182 120.626371 
L 250.961273 115.882133 
L 246.936976 111.384076 
L 242.635497 107.150311 
L 238.074157 103.197887 
L 233.271322 99.542719 
L 228.246331 96.199524 
L 223.019419 93.181765 
L 217.611632 90.501593 
L 212.044746 88.1698 
L 206.341177 86.195775 
L 200.52389 84.587468 
L 194.61631 83.351353 
L 188.642224 82.49241 
L 182.625689 82.014095 
L 176.59093 81.918336 
L 170.562248 82.205517 
L 164.563918 82.874483 
L 158.620093 83.92254 
L 152.754707 85.345467 
L 146.991377 87.137536 
L 141.35331 89.291529 
L 135.86321 91.798774 
L 130.543182 94.649175 
L 125.414648 97.831254 
L 120.49826 101.332198 
L 115.813814 105.13791 
L 111.380173 109.233066 
L 107.215188 113.601176 
L 103.335632 118.224651 
L 99.757125 123.084874 
L 96.494078 128.162275 
L 93.559628 133.436409 
L 90.965593 138.886039 
L 88.722418 144.48922 
L 86.839134 150.223392 
L 85.323326 156.065464 
L 84.181097 161.991913 
L 83.417046 167.978874 
L 83.034249 174.002241 
L 83.034249 180.037759 
L 83.417046 186.061126 
L 84.181097 192.048087 
L 85.323326 197.974536 
L 86.839134 203.816608 
L 88.722418 209.55078 
L 90.965593 215.153961 
L 93.559628 220.603591 
L 96.494078 225.877725 
L 99.757125 230.955126 
L 103.335632 235.815349 
L 107.215188 240.438824 
L 111.380173 244.806934 
L 115.813814 248.90209 
L 120.49826 252.707802 
L 125.414648 256.208746 
L 130.543182 259.390825 
L 135.86321 262.241226 
L 141.35331 264.748471 
L 146.991377 266.902464 
L 152.754707 268.694533 
L 158.620093 270.11746 
L 164.563918 271.165517 
L 170.562248 271.834483 
L 176.59093 272.121664 
L 182.625689 272.025905 
L 188.642224 271.54759 
L 194.61631 270.688647 
L 200.52389 269.452532 
L 206.341177 267.844225 
L 212.044746 265.8702 
L 217.611632 263.538407 
L 223.019419 260.858235 
L 228.246331 257.840476 
L 233.271322 254.497281 
L 238.074157 250.842113 
L 242.635497 246.889689 
L 246.936976 242.655924 
L 250.961273 238.157867 
L 254.692182 233.413629 
L 258.114683 228.442314 
L 261.214992 223.26394 
L 263.980626 217.899357 
L 266.40045 212.370168 
L 268.464719 206.698636 
L 270.165121 200.907598 
L 271.494809 195.020374 
L 272.448429 189.060669 
L 273.022142 183.05248 
L 273.213636 177.02 
" style="fill:none;stroke:#000000;stroke-linecap:square;"/>
   </g>
   <g id="line2d_2">
    <path clip-path="url(#pab62745c8b)" d="M 216.145455 177.02 
L 216.068857 174.607008 
L 215.839372 172.203733 
L 215.457924 169.81985 
L 214.926048 167.464961 
L 214.245888 165.148546 
L 213.42018 162.879933 
L 212.452251 160.668257 
L 211.345997 158.522424 
L 210.105873 156.451074 
L 208.736873 154.462548 
L 207.244509 152.564853 
L 205.63479 150.76563 
L 203.914199 149.072125 
L 202.089663 147.491155 
L 200.168529 146.029088 
L 198.158533 144.69181 
L 196.067768 143.484706 
L 193.904653 142.412637 
L 191.677899 141.47992 
L 189.396471 140.69031 
L 187.069556 140.046987 
L 184.706524 139.552541 
L 182.31689 139.208964 
L 179.910276 139.017638 
L 177.496372 138.979334 
L 175.084899 139.094207 
L 172.685567 139.361793 
L 170.308037 139.781016 
L 167.961883 140.350187 
L 165.656551 141.067014 
L 163.401324 141.928612 
L 161.205284 142.93151 
L 159.077273 144.07167 
L 157.025859 145.344501 
L 155.059304 146.744879 
L 153.185526 148.267164 
L 151.412069 149.905226 
L 149.746075 151.65247 
L 148.194253 153.50186 
L 146.76285 155.44595 
L 145.457631 157.47691 
L 144.283851 159.586564 
L 143.246237 161.766416 
L 142.348967 164.007688 
L 141.595654 166.301357 
L 140.98933 168.638186 
L 140.532439 171.008765 
L 140.226818 173.40355 
L 140.0737 175.812896 
L 140.0737 178.227104 
L 140.226818 180.63645 
L 140.532439 183.031235 
L 140.98933 185.401814 
L 141.595654 187.738643 
L 142.348967 190.032312 
L 143.246237 192.273584 
L 144.283851 194.453436 
L 145.457631 196.56309 
L 146.76285 198.59405 
L 148.194253 200.53814 
L 149.746075 202.38753 
L 151.412069 204.134774 
L 153.185526 205.772836 
L 155.059304 207.295121 
L 157.025859 208.695499 
L 159.077273 209.96833 
L 161.205284 211.10849 
L 163.401324 212.111388 
L 165.656551 212.972986 
L 167.961883 213.689813 
L 170.308037 214.258984 
L 172.685567 214.678207 
L 175.084899 214.945793 
L 177.496372 215.060666 
L 179.910276 215.022362 
L 182.31689 214.831036 
L 184.706524 214.487459 
L 187.069556 213.993013 
L 189.396471 213.34969 
L 191.677899 212.56008 
L 193.904653 211.627363 
L 196.067768 210.555294 
L 198.158533 209.34819 
L 200.168529 208.010912 
L 202.089663 206.548845 
L 203.914199 204.967875 
L 205.63479 203.27437 
L 207.244509 201.475147 
L 208.736873 199.577452 
L 210.105873 197.588926 
L 211.345997 195.517576 
L 212.452251 193.371743 
L 213.42018 191.160067 
L 214.245888 188.891454 
L 214.926048 186.575039 
L 215.457924 184.22015 
L 215.839372 181.836267 
L 216.068857 179.432992 
L 216.145455 177.02 
" style="fill:none;stroke:#000000;stroke-linecap:square;"/>
   </g>
   <g id="line2d_3">
    <path clip-path="url(#pab62745c8b)" d="M 273.213636 177.02 
L 282.725 177.02 
" style="fill:none;stroke:#000000;stroke-linecap:square;"/>
   </g>
   <g id="line2d_4">
    <path clip-path="url(#pab62745c8b)" d="M 178.1 81.906364 
L 178.1 72.395 
" style="fill:none;stroke:#000000;stroke-linecap:square;"/>
   </g>
   <g id="line2d_5">
    <path clip-path="url(#pab62745c8b)" d="M 178.1 272.133636 
L 178.1 281.645 
" style="fill:none;stroke:#000000;stroke-linecap:square;"/>
   </g>
   <g id="line2d_6">
    <path clip-path="url(#pab62745c8b)" d="M 82.986364 177.02 
L 73.475 177.02 
" style="fill:none;stroke:#000000;stroke-linecap:square;"/>
   </g>
   <g id="text_1">
    <!-- $0$ -->
    <defs>
     <path d="M 31.78125 66.40625 
Q 24.171875 66.40625 20.328125 58.90625 
Q 16.5 51.421875 16.5 36.375 
Q 16.5 21.390625 20.328125 13.890625 
Q 24.171875 6.390625 31.78125 6.390625 
Q 39.453125 6.390625 43.28125 13.890625 
Q 47.125 21.390625 47.125 36.375 
Q 47.125 51.421875 43.28125 58.90625 
Q 39.453125 66.40625 31.78125 66.40625 
z
M 31.78125 74.21875 
Q 44.046875 74.21875 50.515625 64.515625 
Q 56.984375 54.828125 56.984375 36.375 
Q 56.984375 17.96875 50.515625 8.265625 
Q 44.046875 -1.421875 31.78125 -1.421875 
Q 19.53125 -1.421875 13.0625 8.265625 
Q 6.59375 17.96875 6.59375 36.375 
Q 6.59375 54.828125 13.0625 64.515625 
Q 19.53125 74.21875 31.78125 74.21875 
z
" id="DejaVuSans-30"/>
    </defs>
    <g transform="translate(298.547727 179.779375)scale(0.1 -0.1)">
     <use transform="translate(0 0.78125)" xlink:href="#DejaVuSans-30"/>
    </g>
   </g>
   <g id="text_2">
    <!-- $\pi/2$ -->
    <defs>
     <path d="M 9.125 54.6875 
L 61.53125 54.6875 
L 59.765625 45.703125 
L 52.875 45.703125 
L 46.34375 12.109375 
Q 45.65625 8.59375 46.578125 7.03125 
Q 47.46875 5.515625 50.140625 5.515625 
Q 50.875 5.515625 51.953125 5.671875 
Q 53.078125 5.765625 53.421875 5.8125 
L 52.15625 -0.6875 
Q 50.34375 -1.3125 48.484375 -1.609375 
Q 46.578125 -1.90625 44.78125 -1.90625 
Q 38.921875 -1.90625 37.3125 1.265625 
Q 35.6875 4.5 37.359375 13.09375 
L 43.703125 45.703125 
L 23.53125 45.703125 
L 14.65625 0 
L 5.46875 0 
L 14.359375 45.703125 
L 7.375 45.703125 
z
" id="DejaVuSans-Oblique-3c0"/>
     <path d="M 25.390625 72.90625 
L 33.6875 72.90625 
L 8.296875 -9.28125 
L 0 -9.28125 
z
" id="DejaVuSans-2f"/>
     <path d="M 19.1875 8.296875 
L 53.609375 8.296875 
L 53.609375 0 
L 7.328125 0 
L 7.328125 8.296875 
Q 12.9375 14.109375 22.625 23.890625 
Q 32.328125 33.6875 34.8125 36.53125 
Q 39.546875 41.84375 41.421875 45.53125 
Q 43.3125 49.21875 43.3125 52.78125 
Q 43.3125 58.59375 39.234375 62.25 
Q 35.15625 65.921875 28.609375 65.921875 
Q 23.96875 65.921875 18.8125 64.3125 
Q 13.671875 62.703125 7.8125 59.421875 
L 7.8125 69.390625 
Q 13.765625 71.78125 18.9375 73 
Q 24.125 74.21875 28.421875 74.21875 
Q 39.75 74.21875 46.484375 68.546875 
Q 53.21875 62.890625 53.21875 53.421875 
Q 53.21875 48.921875 51.53125 44.890625 
Q 49.859375 40.875 45.40625 35.40625 
Q 44.1875 33.984375 37.640625 27.21875 
Q 31.109375 20.453125 19.1875 8.296875 
z
" id="DejaVuSans-32"/>
    </defs>
    <g transform="translate(170.2 56.131648)scale(0.1 -0.1)">
     <use transform="translate(0 0.78125)" xlink:href="#DejaVuSans-Oblique-3c0"/>
     <use transform="translate(60.205078 0.78125)" xlink:href="#DejaVuSans-2f"/>
     <use transform="translate(93.849609 0.78125)" xlink:href="#DejaVuSans-32"/>
    </g>
   </g>
   <g id="text_3">
    <!-- $-\pi/2$ -->
    <defs>
     <path d="M 10.59375 35.5 
L 73.1875 35.5 
L 73.1875 27.203125 
L 10.59375 27.203125 
z
" id="DejaVuSans-2212"/>
    </defs>
    <g transform="translate(166 303.427102)scale(0.1 -0.1)">
     <use transform="translate(0 0.78125)" xlink:href="#DejaVuSans-2212"/>
     <use transform="translate(83.789062 0.78125)" xlink:href="#DejaVuSans-Oblique-3c0"/>
     <use transform="translate(143.994141 0.78125)" xlink:href="#DejaVuSans-2f"/>
     <use transform="translate(177.638672 0.78125)" xlink:href="#DejaVuSans-32"/>
    </g>
   </g>
   <g id="text_4">
    <!-- $\pi$ -->
    <g transform="translate(51.402273 179.779375)scale(0.1 -0.1)">
     <use transform="translate(0 0.3125)" xlink:href="#DejaVuSans-Oblique-3c0"/>
    </g>
   </g>
  </g>
 </g>
 <defs>
  <clipPath id="pab62745c8b">
   <rect height="332.64" width="334.8" x="10.7" y="10.7"/>
  </clipPath>
 </defs>
</svg>
