<?xml version="1.0" encoding="utf-8" standalone="no"?>
<!DOCTYPE svg PUBLIC "-//W3C//DTD SVG 1.1//EN"
  "http://www.w3.org/Graphics/SVG/1.1/DTD/svg11.dtd">
<!-- Created with matplotlib (https://matplotlib.org/) -->
<svg height="347.04pt" version="1.1" viewBox="0 0 349.2 347.04" width="349.2pt" xmlns="http://www.w3.org/2000/svg" xmlns:xlink="http://www.w3.org/1999/xlink">
 <defs>
  <style type="text/css">
*{stroke-linecap:butt;stroke-linejoin:round;}
  </style>
 </defs>
 <g id="figure_1">
  <g id="patch_1">
   <path d="M 0 347.04 
L 349.2 347.04 
L 349.2 -0 
L 0 -0 
z
" style="fill:#ffffff;"/>
  </g>
  <g id="axes_1">
   <g id="PatchCollection_1">
    <path clip-path="url(#p301fee888b)" d="M 174.6 325.701818 
C 214.95909 325.701818 253.670609 309.666982 282.208796 281.128796 
C 310.746982 252.590609 326.781818 213.87909 326.781818 173.52 
C 326.781818 133.16091 310.746982 94.449391 282.208796 65.911204 
C 253.670609 37.373018 214.95909 21.338182 174.6 21.338182 
C 134.24091 21.338182 95.529391 37.373018 66.991204 65.911204 
C 38.453018 94.449391 22.418182 133.16091 22.418182 173.52 
C 22.418182 213.87909 38.453018 252.590609 66.991204 281.128796 
C 95.529391 309.666982 134.24091 325.701818 174.6 325.701818 
z
" style="fill:#ffffff;fill-opacity:0.5;"/>
   </g>
   <g id="PatchCollection_2">
    <defs>
     <path d="M 269.713636 -173.52 
L 269.522142 -179.55248 
L 212.568857 -175.932992 
L 212.645455 -173.52 
z
" id="m7b1298cb54" style="stroke:#1f77b4;"/>
    </defs>
    <g clip-path="url(#p301fee888b)">
     <use style="fill:#1f77b4;stroke:#1f77b4;" x="0" xlink:href="#m7b1298cb54" y="347.04"/>
    </g>
   </g>
   <g id="PatchCollection_3">
    <defs>
     <path d="M 269.522142 -179.55248 
L 268.948429 -185.560669 
L 212.339372 -178.336267 
L 212.568857 -175.932992 
z
" id="mead1952bc6" style="stroke:#2677af;"/>
    </defs>
    <g clip-path="url(#p301fee888b)">
     <use style="fill:#2677af;stroke:#2677af;" x="0" xlink:href="#mead1952bc6" y="347.04"/>
    </g>
   </g>
   <g id="PatchCollection_4">
    <defs>
     <path d="M 268.948429 -185.560669 
L 267.994809 -191.520374 
L 211.957924 -180.72015 
L 212.339372 -178.336267 
z
" id="m26dac75598" style="stroke:#2d77aa;"/>
    </defs>
    <g clip-path="url(#p301fee888b)">
     <use style="fill:#2d77aa;stroke:#2d77aa;" x="0" xlink:href="#m26dac75598" y="347.04"/>
    </g>
   </g>
   <g id="PatchCollection_5">
    <defs>
     <path d="M 267.994809 -191.520374 
L 266.665121 -197.407598 
L 211.426048 -183.075039 
L 211.957924 -180.72015 
z
" id="meb3378b187" style="stroke:#3378a5;"/>
    </defs>
    <g clip-path="url(#p301fee888b)">
     <use style="fill:#3378a5;stroke:#3378a5;" x="0" xlink:href="#meb3378b187" y="347.04"/>
    </g>
   </g>
   <g id="PatchCollection_6">
    <defs>
     <path d="M 266.665121 -197.407598 
L 264.964719 -203.198636 
L 210.745888 -185.391454 
L 211.426048 -183.075039 
z
" id="mafe82381ed" style="stroke:#3a78a0;"/>
    </defs>
    <g clip-path="url(#p301fee888b)">
     <use style="fill:#3a78a0;stroke:#3a78a0;" x="0" xlink:href="#mafe82381ed" y="347.04"/>
    </g>
   </g>
   <g id="PatchCollection_7">
    <defs>
     <path d="M 264.964719 -203.198636 
L 262.90045 -208.870168 
L 209.92018 -187.660067 
L 210.745888 -185.391454 
z
" id="m35efa669c4" style="stroke:#41789b;"/>
    </defs>
    <g clip-path="url(#p301fee888b)">
     <use style="fill:#41789b;stroke:#41789b;" x="0" xlink:href="#m35efa669c4" y="347.04"/>
    </g>
   </g>
   <g id="PatchCollection_8">
    <defs>
     <path d="M 262.90045 -208.870168 
L 260.480626 -214.399357 
L 208.952251 -189.871743 
L 209.92018 -187.660067 
z
" id="m62f85b8764" style="stroke:#487896;"/>
    </defs>
    <g clip-path="url(#p301fee888b)">
     <use style="fill:#487896;stroke:#487896;" x="0" xlink:href="#m62f85b8764" y="347.04"/>
    </g>
   </g>
   <g id="PatchCollection_9">
    <defs>
     <path d="M 260.480626 -214.399357 
L 257.714992 -219.76394 
L 207.845997 -192.017576 
L 208.952251 -189.871743 
z
" id="m489407edaa" style="stroke:#4f7991;"/>
    </defs>
    <g clip-path="url(#p301fee888b)">
     <use style="fill:#4f7991;stroke:#4f7991;" x="0" xlink:href="#m489407edaa" y="347.04"/>
    </g>
   </g>
   <g id="PatchCollection_10">
    <defs>
     <path d="M 257.714992 -219.76394 
L 254.614683 -224.942314 
L 206.605873 -194.088926 
L 207.845997 -192.017576 
z
" id="mc7ce309465" style="stroke:#55798c;"/>
    </defs>
    <g clip-path="url(#p301fee888b)">
     <use style="fill:#55798c;stroke:#55798c;" x="0" xlink:href="#mc7ce309465" y="347.04"/>
    </g>
   </g>
   <g id="PatchCollection_11">
    <defs>
     <path d="M 254.614683 -224.942314 
L 251.192182 -229.913629 
L 205.236873 -196.077452 
L 206.605873 -194.088926 
z
" id="me0a38309bc" style="stroke:#5c7987;"/>
    </defs>
    <g clip-path="url(#p301fee888b)">
     <use style="fill:#5c7987;stroke:#5c7987;" x="0" xlink:href="#me0a38309bc" y="347.04"/>
    </g>
   </g>
   <g id="PatchCollection_12">
    <defs>
     <path d="M 251.192182 -229.913629 
L 247.461273 -234.657867 
L 203.744509 -197.975147 
L 205.236873 -196.077452 
z
" id="mf17036d37d" style="stroke:#637982;"/>
    </defs>
    <g clip-path="url(#p301fee888b)">
     <use style="fill:#637982;stroke:#637982;" x="0" xlink:href="#mf17036d37d" y="347.04"/>
    </g>
   </g>
   <g id="PatchCollection_13">
    <defs>
     <path d="M 247.461273 -234.657867 
L 243.436976 -239.155924 
L 202.13479 -199.77437 
L 203.744509 -197.975147 
z
" id="m79131b7ff3" style="stroke:#6a7a7d;"/>
    </defs>
    <g clip-path="url(#p301fee888b)">
     <use style="fill:#6a7a7d;stroke:#6a7a7d;" x="0" xlink:href="#m79131b7ff3" y="347.04"/>
    </g>
   </g>
   <g id="PatchCollection_14">
    <defs>
     <path d="M 243.436976 -239.155924 
L 239.135497 -243.389689 
L 200.414199 -201.467875 
L 202.13479 -199.77437 
z
" id="m33bbf6ae07" style="stroke:#707a78;"/>
    </defs>
    <g clip-path="url(#p301fee888b)">
     <use style="fill:#707a78;stroke:#707a78;" x="0" xlink:href="#m33bbf6ae07" y="347.04"/>
    </g>
   </g>
   <g id="PatchCollection_15">
    <defs>
     <path d="M 239.135497 -243.389689 
L 234.574157 -247.342113 
L 198.589663 -203.048845 
L 200.414199 -201.467875 
z
" id="mca2d1fb4fc" style="stroke:#777a73;"/>
    </defs>
    <g clip-path="url(#p301fee888b)">
     <use style="fill:#777a73;stroke:#777a73;" x="0" xlink:href="#mca2d1fb4fc" y="347.04"/>
    </g>
   </g>
   <g id="PatchCollection_16">
    <defs>
     <path d="M 234.574157 -247.342113 
L 229.771322 -250.997281 
L 196.668529 -204.510912 
L 198.589663 -203.048845 
z
" id="mde810133ac" style="stroke:#7e7a6e;"/>
    </defs>
    <g clip-path="url(#p301fee888b)">
     <use style="fill:#7e7a6e;stroke:#7e7a6e;" x="0" xlink:href="#mde810133ac" y="347.04"/>
    </g>
   </g>
   <g id="PatchCollection_17">
    <defs>
     <path d="M 229.771322 -250.997281 
L 224.746331 -254.340476 
L 194.658533 -205.84819 
L 196.668529 -204.510912 
z
" id="m3dfd38ec82" style="stroke:#857b69;"/>
    </defs>
    <g clip-path="url(#p301fee888b)">
     <use style="fill:#857b69;stroke:#857b69;" x="0" xlink:href="#m3dfd38ec82" y="347.04"/>
    </g>
   </g>
   <g id="PatchCollection_18">
    <defs>
     <path d="M 224.746331 -254.340476 
L 219.519419 -257.358235 
L 192.567768 -207.055294 
L 194.658533 -205.84819 
z
" id="m3c0aaacc6f" style="stroke:#8c7b64;"/>
    </defs>
    <g clip-path="url(#p301fee888b)">
     <use style="fill:#8c7b64;stroke:#8c7b64;" x="0" xlink:href="#m3c0aaacc6f" y="347.04"/>
    </g>
   </g>
   <g id="PatchCollection_19">
    <defs>
     <path d="M 219.519419 -257.358235 
L 214.111632 -260.038407 
L 190.404653 -208.127363 
L 192.567768 -207.055294 
z
" id="ma09f020ca7" style="stroke:#927b5e;"/>
    </defs>
    <g clip-path="url(#p301fee888b)">
     <use style="fill:#927b5e;stroke:#927b5e;" x="0" xlink:href="#ma09f020ca7" y="347.04"/>
    </g>
   </g>
   <g id="PatchCollection_20">
    <defs>
     <path d="M 214.111632 -260.038407 
L 208.544746 -262.3702 
L 188.177899 -209.06008 
L 190.404653 -208.127363 
z
" id="m4aac93a041" style="stroke:#997b59;"/>
    </defs>
    <g clip-path="url(#p301fee888b)">
     <use style="fill:#997b59;stroke:#997b59;" x="0" xlink:href="#m4aac93a041" y="347.04"/>
    </g>
   </g>
   <g id="PatchCollection_21">
    <defs>
     <path d="M 208.544746 -262.3702 
L 202.841177 -264.344225 
L 185.896471 -209.84969 
L 188.177899 -209.06008 
z
" id="me6f9695bd3" style="stroke:#a07c54;"/>
    </defs>
    <g clip-path="url(#p301fee888b)">
     <use style="fill:#a07c54;stroke:#a07c54;" x="0" xlink:href="#me6f9695bd3" y="347.04"/>
    </g>
   </g>
   <g id="PatchCollection_22">
    <defs>
     <path d="M 202.841177 -264.344225 
L 197.02389 -265.952532 
L 183.569556 -210.493013 
L 185.896471 -209.84969 
z
" id="mc49e5d3377" style="stroke:#a77c4f;"/>
    </defs>
    <g clip-path="url(#p301fee888b)">
     <use style="fill:#a77c4f;stroke:#a77c4f;" x="0" xlink:href="#mc49e5d3377" y="347.04"/>
    </g>
   </g>
   <g id="PatchCollection_23">
    <defs>
     <path d="M 197.02389 -265.952532 
L 191.11631 -267.188647 
L 181.206524 -210.987459 
L 183.569556 -210.493013 
z
" id="m1690b4ec9e" style="stroke:#ae7c4a;"/>
    </defs>
    <g clip-path="url(#p301fee888b)">
     <use style="fill:#ae7c4a;stroke:#ae7c4a;" x="0" xlink:href="#m1690b4ec9e" y="347.04"/>
    </g>
   </g>
   <g id="PatchCollection_24">
    <defs>
     <path d="M 191.11631 -267.188647 
L 185.142224 -268.04759 
L 178.81689 -211.331036 
L 181.206524 -210.987459 
z
" id="m2eb6bc6e9e" style="stroke:#b47c45;"/>
    </defs>
    <g clip-path="url(#p301fee888b)">
     <use style="fill:#b47c45;stroke:#b47c45;" x="0" xlink:href="#m2eb6bc6e9e" y="347.04"/>
    </g>
   </g>
   <g id="PatchCollection_25">
    <defs>
     <path d="M 185.142224 -268.04759 
L 179.125689 -268.525905 
L 176.410276 -211.522362 
L 178.81689 -211.331036 
z
" id="mc8b8976f99" style="stroke:#bb7d40;"/>
    </defs>
    <g clip-path="url(#p301fee888b)">
     <use style="fill:#bb7d40;stroke:#bb7d40;" x="0" xlink:href="#mc8b8976f99" y="347.04"/>
    </g>
   </g>
   <g id="PatchCollection_26">
    <defs>
     <path d="M 179.125689 -268.525905 
L 173.09093 -268.621664 
L 173.996372 -211.560666 
L 176.410276 -211.522362 
z
" id="md5495ec2ab" style="stroke:#c27d3b;"/>
    </defs>
    <g clip-path="url(#p301fee888b)">
     <use style="fill:#c27d3b;stroke:#c27d3b;" x="0" xlink:href="#md5495ec2ab" y="347.04"/>
    </g>
   </g>
   <g id="PatchCollection_27">
    <defs>
     <path d="M 173.09093 -268.621664 
L 167.062248 -268.334483 
L 171.584899 -211.445793 
L 173.996372 -211.560666 
z
" id="m5df7b739eb" style="stroke:#c97d36;"/>
    </defs>
    <g clip-path="url(#p301fee888b)">
     <use style="fill:#c97d36;stroke:#c97d36;" x="0" xlink:href="#m5df7b739eb" y="347.04"/>
    </g>
   </g>
   <g id="PatchCollection_28">
    <defs>
     <path d="M 167.062248 -268.334483 
L 161.063918 -267.665517 
L 169.185567 -211.178207 
L 171.584899 -211.445793 
z
" id="mc7df86e6d2" style="stroke:#cf7d31;"/>
    </defs>
    <g clip-path="url(#p301fee888b)">
     <use style="fill:#cf7d31;stroke:#cf7d31;" x="0" xlink:href="#mc7df86e6d2" y="347.04"/>
    </g>
   </g>
   <g id="PatchCollection_29">
    <defs>
     <path d="M 161.063918 -267.665517 
L 155.120093 -266.61746 
L 166.808037 -210.758984 
L 169.185567 -211.178207 
z
" id="m1f3ac99d03" style="stroke:#d67e2c;"/>
    </defs>
    <g clip-path="url(#p301fee888b)">
     <use style="fill:#d67e2c;stroke:#d67e2c;" x="0" xlink:href="#m1f3ac99d03" y="347.04"/>
    </g>
   </g>
   <g id="PatchCollection_30">
    <defs>
     <path d="M 155.120093 -266.61746 
L 149.254707 -265.194533 
L 164.461883 -210.189813 
L 166.808037 -210.758984 
z
" id="m558bca06ad" style="stroke:#dd7e27;"/>
    </defs>
    <g clip-path="url(#p301fee888b)">
     <use style="fill:#dd7e27;stroke:#dd7e27;" x="0" xlink:href="#m558bca06ad" y="347.04"/>
    </g>
   </g>
   <g id="PatchCollection_31">
    <defs>
     <path d="M 149.254707 -265.194533 
L 143.491377 -263.402464 
L 162.156551 -209.472986 
L 164.461883 -210.189813 
z
" id="m67e02221eb" style="stroke:#e47e22;"/>
    </defs>
    <g clip-path="url(#p301fee888b)">
     <use style="fill:#e47e22;stroke:#e47e22;" x="0" xlink:href="#m67e02221eb" y="347.04"/>
    </g>
   </g>
   <g id="PatchCollection_32">
    <defs>
     <path d="M 143.491377 -263.402464 
L 137.85331 -261.248471 
L 159.901324 -208.611388 
L 162.156551 -209.472986 
z
" id="m0ff200e125" style="stroke:#eb7e1d;"/>
    </defs>
    <g clip-path="url(#p301fee888b)">
     <use style="fill:#eb7e1d;stroke:#eb7e1d;" x="0" xlink:href="#m0ff200e125" y="347.04"/>
    </g>
   </g>
   <g id="PatchCollection_33">
    <defs>
     <path d="M 137.85331 -261.248471 
L 132.36321 -258.741226 
L 157.705284 -207.60849 
L 159.901324 -208.611388 
z
" id="md96e36bbc8" style="stroke:#f17f18;"/>
    </defs>
    <g clip-path="url(#p301fee888b)">
     <use style="fill:#f17f18;stroke:#f17f18;" x="0" xlink:href="#md96e36bbc8" y="347.04"/>
    </g>
   </g>
   <g id="PatchCollection_34">
    <defs>
     <path d="M 132.36321 -258.741226 
L 127.043182 -255.890825 
L 155.577273 -206.46833 
L 157.705284 -207.60849 
z
" id="m72a42519bc" style="stroke:#f87f13;"/>
    </defs>
    <g clip-path="url(#p301fee888b)">
     <use style="fill:#f87f13;stroke:#f87f13;" x="0" xlink:href="#m72a42519bc" y="347.04"/>
    </g>
   </g>
   <g id="PatchCollection_35">
    <defs>
     <path d="M 127.043182 -255.890825 
L 121.914648 -252.708746 
L 153.525859 -205.195499 
L 155.577273 -206.46833 
z
" id="m9add399d3b" style="stroke:#ff7f0e;"/>
    </defs>
    <g clip-path="url(#p301fee888b)">
     <use style="fill:#ff7f0e;stroke:#ff7f0e;" x="0" xlink:href="#m9add399d3b" y="347.04"/>
    </g>
   </g>
   <g id="PatchCollection_36">
    <defs>
     <path d="M 121.914648 -252.708746 
L 116.99826 -249.207802 
L 151.559304 -203.795121 
L 153.525859 -205.195499 
z
" id="mf51bd1bcca" style="stroke:#f77f0e;"/>
    </defs>
    <g clip-path="url(#p301fee888b)">
     <use style="fill:#f77f0e;stroke:#f77f0e;" x="0" xlink:href="#mf51bd1bcca" y="347.04"/>
    </g>
   </g>
   <g id="PatchCollection_37">
    <defs>
     <path d="M 116.99826 -249.207802 
L 112.313814 -245.40209 
L 149.685526 -202.272836 
L 151.559304 -203.795121 
z
" id="m1dcac5e4ff" style="stroke:#f07f0d;"/>
    </defs>
    <g clip-path="url(#p301fee888b)">
     <use style="fill:#f07f0d;stroke:#f07f0d;" x="0" xlink:href="#m1dcac5e4ff" y="347.04"/>
    </g>
   </g>
   <g id="PatchCollection_38">
    <defs>
     <path d="M 112.313814 -245.40209 
L 107.880173 -241.306934 
L 147.912069 -200.634774 
L 149.685526 -202.272836 
z
" id="me4b20b8915" style="stroke:#e87f0d;"/>
    </defs>
    <g clip-path="url(#p301fee888b)">
     <use style="fill:#e87f0d;stroke:#e87f0d;" x="0" xlink:href="#me4b20b8915" y="347.04"/>
    </g>
   </g>
   <g id="PatchCollection_39">
    <defs>
     <path d="M 107.880173 -241.306934 
L 103.715188 -236.938824 
L 146.246075 -198.88753 
L 147.912069 -200.634774 
z
" id="mda8199ff72" style="stroke:#e07f0c;"/>
    </defs>
    <g clip-path="url(#p301fee888b)">
     <use style="fill:#e07f0c;stroke:#e07f0c;" x="0" xlink:href="#mda8199ff72" y="347.04"/>
    </g>
   </g>
   <g id="PatchCollection_40">
    <defs>
     <path d="M 103.715188 -236.938824 
L 99.835632 -232.315349 
L 144.694253 -197.03814 
L 146.246075 -198.88753 
z
" id="md8694b5df3" style="stroke:#d87f0c;"/>
    </defs>
    <g clip-path="url(#p301fee888b)">
     <use style="fill:#d87f0c;stroke:#d87f0c;" x="0" xlink:href="#md8694b5df3" y="347.04"/>
    </g>
   </g>
   <g id="PatchCollection_41">
    <defs>
     <path d="M 99.835632 -232.315349 
L 96.257125 -227.455126 
L 143.26285 -195.09405 
L 144.694253 -197.03814 
z
" id="m3959db66ee" style="stroke:#d17f0b;"/>
    </defs>
    <g clip-path="url(#p301fee888b)">
     <use style="fill:#d17f0b;stroke:#d17f0b;" x="0" xlink:href="#m3959db66ee" y="347.04"/>
    </g>
   </g>
   <g id="PatchCollection_42">
    <defs>
     <path d="M 96.257125 -227.455126 
L 92.994078 -222.377725 
L 141.957631 -193.06309 
L 143.26285 -195.09405 
z
" id="maaba6bd80c" style="stroke:#c97f0b;"/>
    </defs>
    <g clip-path="url(#p301fee888b)">
     <use style="fill:#c97f0b;stroke:#c97f0b;" x="0" xlink:href="#maaba6bd80c" y="347.04"/>
    </g>
   </g>
   <g id="PatchCollection_43">
    <defs>
     <path d="M 92.994078 -222.377725 
L 90.059628 -217.103591 
L 140.783851 -190.953436 
L 141.957631 -193.06309 
z
" id="mda266f84ac" style="stroke:#c17f0b;"/>
    </defs>
    <g clip-path="url(#p301fee888b)">
     <use style="fill:#c17f0b;stroke:#c17f0b;" x="0" xlink:href="#mda266f84ac" y="347.04"/>
    </g>
   </g>
   <g id="PatchCollection_44">
    <defs>
     <path d="M 90.059628 -217.103591 
L 87.465593 -211.653961 
L 139.746237 -188.773584 
L 140.783851 -190.953436 
z
" id="m0d0658fb25" style="stroke:#b97f0a;"/>
    </defs>
    <g clip-path="url(#p301fee888b)">
     <use style="fill:#b97f0a;stroke:#b97f0a;" x="0" xlink:href="#m0d0658fb25" y="347.04"/>
    </g>
   </g>
   <g id="PatchCollection_45">
    <defs>
     <path d="M 87.465593 -211.653961 
L 85.222418 -206.05078 
L 138.848967 -186.532312 
L 139.746237 -188.773584 
z
" id="mf7aae1d765" style="stroke:#b27f0a;"/>
    </defs>
    <g clip-path="url(#p301fee888b)">
     <use style="fill:#b27f0a;stroke:#b27f0a;" x="0" xlink:href="#mf7aae1d765" y="347.04"/>
    </g>
   </g>
   <g id="PatchCollection_46">
    <defs>
     <path d="M 85.222418 -206.05078 
L 83.339134 -200.316608 
L 138.095654 -184.238643 
L 138.848967 -186.532312 
z
" id="m358810b041" style="stroke:#aa7f09;"/>
    </defs>
    <g clip-path="url(#p301fee888b)">
     <use style="fill:#aa7f09;stroke:#aa7f09;" x="0" xlink:href="#m358810b041" y="347.04"/>
    </g>
   </g>
   <g id="PatchCollection_47">
    <defs>
     <path d="M 83.339134 -200.316608 
L 81.823326 -194.474536 
L 137.48933 -181.901814 
L 138.095654 -184.238643 
z
" id="mf7c1f5c0eb" style="stroke:#a27f09;"/>
    </defs>
    <g clip-path="url(#p301fee888b)">
     <use style="fill:#a27f09;stroke:#a27f09;" x="0" xlink:href="#mf7c1f5c0eb" y="347.04"/>
    </g>
   </g>
   <g id="PatchCollection_48">
    <defs>
     <path d="M 81.823326 -194.474536 
L 80.681097 -188.548087 
L 137.032439 -179.531235 
L 137.48933 -181.901814 
z
" id="mc790276911" style="stroke:#9b7f08;"/>
    </defs>
    <g clip-path="url(#p301fee888b)">
     <use style="fill:#9b7f08;stroke:#9b7f08;" x="0" xlink:href="#mc790276911" y="347.04"/>
    </g>
   </g>
   <g id="PatchCollection_49">
    <defs>
     <path d="M 80.681097 -188.548087 
L 79.917046 -182.561126 
L 136.726818 -177.13645 
L 137.032439 -179.531235 
z
" id="m4051d20525" style="stroke:#937f08;"/>
    </defs>
    <g clip-path="url(#p301fee888b)">
     <use style="fill:#937f08;stroke:#937f08;" x="0" xlink:href="#m4051d20525" y="347.04"/>
    </g>
   </g>
   <g id="PatchCollection_50">
    <defs>
     <path d="M 79.917046 -182.561126 
L 79.534249 -176.537759 
L 136.5737 -174.727104 
L 136.726818 -177.13645 
z
" id="m0876fc1902" style="stroke:#8b7f08;"/>
    </defs>
    <g clip-path="url(#p301fee888b)">
     <use style="fill:#8b7f08;stroke:#8b7f08;" x="0" xlink:href="#m0876fc1902" y="347.04"/>
    </g>
   </g>
   <g id="PatchCollection_51">
    <defs>
     <path d="M 79.534249 -176.537759 
L 79.534249 -170.502241 
L 136.5737 -172.312896 
L 136.5737 -174.727104 
z
" id="mf97e2a83bf" style="stroke:#837f07;"/>
    </defs>
    <g clip-path="url(#p301fee888b)">
     <use style="fill:#837f07;stroke:#837f07;" x="0" xlink:href="#mf97e2a83bf" y="347.04"/>
    </g>
   </g>
   <g id="PatchCollection_52">
    <defs>
     <path d="M 79.534249 -170.502241 
L 79.917046 -164.478874 
L 136.726818 -169.90355 
L 136.5737 -172.312896 
z
" id="mfa9855d845" style="stroke:#7c8007;"/>
    </defs>
    <g clip-path="url(#p301fee888b)">
     <use style="fill:#7c8007;stroke:#7c8007;" x="0" xlink:href="#mfa9855d845" y="347.04"/>
    </g>
   </g>
   <g id="PatchCollection_53">
    <defs>
     <path d="M 79.917046 -164.478874 
L 80.681097 -158.491913 
L 137.032439 -167.508765 
L 136.726818 -169.90355 
z
" id="m11f577839c" style="stroke:#748006;"/>
    </defs>
    <g clip-path="url(#p301fee888b)">
     <use style="fill:#748006;stroke:#748006;" x="0" xlink:href="#m11f577839c" y="347.04"/>
    </g>
   </g>
   <g id="PatchCollection_54">
    <defs>
     <path d="M 80.681097 -158.491913 
L 81.823326 -152.565464 
L 137.48933 -165.138186 
L 137.032439 -167.508765 
z
" id="m91a4c3d3fe" style="stroke:#6c8006;"/>
    </defs>
    <g clip-path="url(#p301fee888b)">
     <use style="fill:#6c8006;stroke:#6c8006;" x="0" xlink:href="#m91a4c3d3fe" y="347.04"/>
    </g>
   </g>
   <g id="PatchCollection_55">
    <defs>
     <path d="M 81.823326 -152.565464 
L 83.339134 -146.723392 
L 138.095654 -162.801357 
L 137.48933 -165.138186 
z
" id="m75bca74312" style="stroke:#648006;"/>
    </defs>
    <g clip-path="url(#p301fee888b)">
     <use style="fill:#648006;stroke:#648006;" x="0" xlink:href="#m75bca74312" y="347.04"/>
    </g>
   </g>
   <g id="PatchCollection_56">
    <defs>
     <path d="M 83.339134 -146.723392 
L 85.222418 -140.98922 
L 138.848967 -160.507688 
L 138.095654 -162.801357 
z
" id="m46139c37fc" style="stroke:#5d8005;"/>
    </defs>
    <g clip-path="url(#p301fee888b)">
     <use style="fill:#5d8005;stroke:#5d8005;" x="0" xlink:href="#m46139c37fc" y="347.04"/>
    </g>
   </g>
   <g id="PatchCollection_57">
    <defs>
     <path d="M 85.222418 -140.98922 
L 87.465593 -135.386039 
L 139.746237 -158.266416 
L 138.848967 -160.507688 
z
" id="mf62f0c2a0d" style="stroke:#558005;"/>
    </defs>
    <g clip-path="url(#p301fee888b)">
     <use style="fill:#558005;stroke:#558005;" x="0" xlink:href="#mf62f0c2a0d" y="347.04"/>
    </g>
   </g>
   <g id="PatchCollection_58">
    <defs>
     <path d="M 87.465593 -135.386039 
L 90.059628 -129.936409 
L 140.783851 -156.086564 
L 139.746237 -158.266416 
z
" id="m8307b524c2" style="stroke:#4d8004;"/>
    </defs>
    <g clip-path="url(#p301fee888b)">
     <use style="fill:#4d8004;stroke:#4d8004;" x="0" xlink:href="#m8307b524c2" y="347.04"/>
    </g>
   </g>
   <g id="PatchCollection_59">
    <defs>
     <path d="M 90.059628 -129.936409 
L 92.994078 -124.662275 
L 141.957631 -153.97691 
L 140.783851 -156.086564 
z
" id="mf617333ad3" style="stroke:#468004;"/>
    </defs>
    <g clip-path="url(#p301fee888b)">
     <use style="fill:#468004;stroke:#468004;" x="0" xlink:href="#mf617333ad3" y="347.04"/>
    </g>
   </g>
   <g id="PatchCollection_60">
    <defs>
     <path d="M 92.994078 -124.662275 
L 96.257125 -119.584874 
L 143.26285 -151.94595 
L 141.957631 -153.97691 
z
" id="m5ecf4be2cc" style="stroke:#3e8003;"/>
    </defs>
    <g clip-path="url(#p301fee888b)">
     <use style="fill:#3e8003;stroke:#3e8003;" x="0" xlink:href="#m5ecf4be2cc" y="347.04"/>
    </g>
   </g>
   <g id="PatchCollection_61">
    <defs>
     <path d="M 96.257125 -119.584874 
L 99.835632 -114.724651 
L 144.694253 -150.00186 
L 143.26285 -151.94595 
z
" id="md5e1269408" style="stroke:#368003;"/>
    </defs>
    <g clip-path="url(#p301fee888b)">
     <use style="fill:#368003;stroke:#368003;" x="0" xlink:href="#md5e1269408" y="347.04"/>
    </g>
   </g>
   <g id="PatchCollection_62">
    <defs>
     <path d="M 99.835632 -114.724651 
L 103.715188 -110.101176 
L 146.246075 -148.15247 
L 144.694253 -150.00186 
z
" id="mbed40538b8" style="stroke:#2e8003;"/>
    </defs>
    <g clip-path="url(#p301fee888b)">
     <use style="fill:#2e8003;stroke:#2e8003;" x="0" xlink:href="#mbed40538b8" y="347.04"/>
    </g>
   </g>
   <g id="PatchCollection_63">
    <defs>
     <path d="M 103.715188 -110.101176 
L 107.880173 -105.733066 
L 147.912069 -146.405226 
L 146.246075 -148.15247 
z
" id="mc1d8e82d7b" style="stroke:#278002;"/>
    </defs>
    <g clip-path="url(#p301fee888b)">
     <use style="fill:#278002;stroke:#278002;" x="0" xlink:href="#mc1d8e82d7b" y="347.04"/>
    </g>
   </g>
   <g id="PatchCollection_64">
    <defs>
     <path d="M 107.880173 -105.733066 
L 112.313814 -101.63791 
L 149.685526 -144.767164 
L 147.912069 -146.405226 
z
" id="mf285e65319" style="stroke:#1f8002;"/>
    </defs>
    <g clip-path="url(#p301fee888b)">
     <use style="fill:#1f8002;stroke:#1f8002;" x="0" xlink:href="#mf285e65319" y="347.04"/>
    </g>
   </g>
   <g id="PatchCollection_65">
    <defs>
     <path d="M 112.313814 -101.63791 
L 116.99826 -97.832198 
L 151.559304 -143.244879 
L 149.685526 -144.767164 
z
" id="m48fff19607" style="stroke:#178001;"/>
    </defs>
    <g clip-path="url(#p301fee888b)">
     <use style="fill:#178001;stroke:#178001;" x="0" xlink:href="#m48fff19607" y="347.04"/>
    </g>
   </g>
   <g id="PatchCollection_66">
    <defs>
     <path d="M 116.99826 -97.832198 
L 121.914648 -94.331254 
L 153.525859 -141.844501 
L 151.559304 -143.244879 
z
" id="m6f0e077d78" style="stroke:#0f8001;"/>
    </defs>
    <g clip-path="url(#p301fee888b)">
     <use style="fill:#0f8001;stroke:#0f8001;" x="0" xlink:href="#m6f0e077d78" y="347.04"/>
    </g>
   </g>
   <g id="PatchCollection_67">
    <defs>
     <path d="M 121.914648 -94.331254 
L 127.043182 -91.149175 
L 155.577273 -140.57167 
L 153.525859 -141.844501 
z
" id="m6b391f93f5" style="stroke:#088000;"/>
    </defs>
    <g clip-path="url(#p301fee888b)">
     <use style="fill:#088000;stroke:#088000;" x="0" xlink:href="#m6b391f93f5" y="347.04"/>
    </g>
   </g>
   <g id="PatchCollection_68">
    <defs>
     <path d="M 127.043182 -91.149175 
L 132.36321 -88.298774 
L 157.705284 -139.43151 
L 155.577273 -140.57167 
z
" id="mf1dd3bf725" style="stroke:#008000;"/>
    </defs>
    <g clip-path="url(#p301fee888b)">
     <use style="fill:#008000;stroke:#008000;" x="0" xlink:href="#mf1dd3bf725" y="347.04"/>
    </g>
   </g>
   <g id="PatchCollection_69">
    <defs>
     <path d="M 132.36321 -88.298774 
L 137.85331 -85.791529 
L 159.901324 -138.428612 
L 157.705284 -139.43151 
z
" id="m458bbc99c3" style="stroke:#018005;"/>
    </defs>
    <g clip-path="url(#p301fee888b)">
     <use style="fill:#018005;stroke:#018005;" x="0" xlink:href="#m458bbc99c3" y="347.04"/>
    </g>
   </g>
   <g id="PatchCollection_70">
    <defs>
     <path d="M 137.85331 -85.791529 
L 143.491377 -83.637536 
L 162.156551 -137.567014 
L 159.901324 -138.428612 
z
" id="m7c2b04d4f1" style="stroke:#027f0b;"/>
    </defs>
    <g clip-path="url(#p301fee888b)">
     <use style="fill:#027f0b;stroke:#027f0b;" x="0" xlink:href="#m7c2b04d4f1" y="347.04"/>
    </g>
   </g>
   <g id="PatchCollection_71">
    <defs>
     <path d="M 143.491377 -83.637536 
L 149.254707 -81.845467 
L 164.461883 -136.850187 
L 162.156551 -137.567014 
z
" id="m8fe9b1614a" style="stroke:#037f10;"/>
    </defs>
    <g clip-path="url(#p301fee888b)">
     <use style="fill:#037f10;stroke:#037f10;" x="0" xlink:href="#m8fe9b1614a" y="347.04"/>
    </g>
   </g>
   <g id="PatchCollection_72">
    <defs>
     <path d="M 149.254707 -81.845467 
L 155.120093 -80.42254 
L 166.808037 -136.281016 
L 164.461883 -136.850187 
z
" id="mb3676ac8a2" style="stroke:#047f16;"/>
    </defs>
    <g clip-path="url(#p301fee888b)">
     <use style="fill:#047f16;stroke:#047f16;" x="0" xlink:href="#mb3676ac8a2" y="347.04"/>
    </g>
   </g>
   <g id="PatchCollection_73">
    <defs>
     <path d="M 155.120093 -80.42254 
L 161.063918 -79.374483 
L 169.185567 -135.861793 
L 166.808037 -136.281016 
z
" id="m4906dc6e9d" style="stroke:#057f1b;"/>
    </defs>
    <g clip-path="url(#p301fee888b)">
     <use style="fill:#057f1b;stroke:#057f1b;" x="0" xlink:href="#m4906dc6e9d" y="347.04"/>
    </g>
   </g>
   <g id="PatchCollection_74">
    <defs>
     <path d="M 161.063918 -79.374483 
L 167.062248 -78.705517 
L 171.584899 -135.594207 
L 169.185567 -135.861793 
z
" id="mc4c468488c" style="stroke:#067e21;"/>
    </defs>
    <g clip-path="url(#p301fee888b)">
     <use style="fill:#067e21;stroke:#067e21;" x="0" xlink:href="#mc4c468488c" y="347.04"/>
    </g>
   </g>
   <g id="PatchCollection_75">
    <defs>
     <path d="M 167.062248 -78.705517 
L 173.09093 -78.418336 
L 173.996372 -135.479334 
L 171.584899 -135.594207 
z
" id="m7e5af443b4" style="stroke:#077e26;"/>
    </defs>
    <g clip-path="url(#p301fee888b)">
     <use style="fill:#077e26;stroke:#077e26;" x="0" xlink:href="#m7e5af443b4" y="347.04"/>
    </g>
   </g>
   <g id="PatchCollection_76">
    <defs>
     <path d="M 173.09093 -78.418336 
L 179.125689 -78.514095 
L 176.410276 -135.517638 
L 173.996372 -135.479334 
z
" id="ma048790b2d" style="stroke:#087e2c;"/>
    </defs>
    <g clip-path="url(#p301fee888b)">
     <use style="fill:#087e2c;stroke:#087e2c;" x="0" xlink:href="#ma048790b2d" y="347.04"/>
    </g>
   </g>
   <g id="PatchCollection_77">
    <defs>
     <path d="M 179.125689 -78.514095 
L 185.142224 -78.99241 
L 178.81689 -135.708964 
L 176.410276 -135.517638 
z
" id="m087e9d1cb2" style="stroke:#087e31;"/>
    </defs>
    <g clip-path="url(#p301fee888b)">
     <use style="fill:#087e31;stroke:#087e31;" x="0" xlink:href="#m087e9d1cb2" y="347.04"/>
    </g>
   </g>
   <g id="PatchCollection_78">
    <defs>
     <path d="M 185.142224 -78.99241 
L 191.11631 -79.851353 
L 181.206524 -136.052541 
L 178.81689 -135.708964 
z
" id="m9de26cd5ba" style="stroke:#097d37;"/>
    </defs>
    <g clip-path="url(#p301fee888b)">
     <use style="fill:#097d37;stroke:#097d37;" x="0" xlink:href="#m9de26cd5ba" y="347.04"/>
    </g>
   </g>
   <g id="PatchCollection_79">
    <defs>
     <path d="M 191.11631 -79.851353 
L 197.02389 -81.087468 
L 183.569556 -136.546987 
L 181.206524 -136.052541 
z
" id="m2b148f6e7e" style="stroke:#0a7d3c;"/>
    </defs>
    <g clip-path="url(#p301fee888b)">
     <use style="fill:#0a7d3c;stroke:#0a7d3c;" x="0" xlink:href="#m2b148f6e7e" y="347.04"/>
    </g>
   </g>
   <g id="PatchCollection_80">
    <defs>
     <path d="M 197.02389 -81.087468 
L 202.841177 -82.695775 
L 185.896471 -137.19031 
L 183.569556 -136.546987 
z
" id="m2746460ad2" style="stroke:#0b7d41;"/>
    </defs>
    <g clip-path="url(#p301fee888b)">
     <use style="fill:#0b7d41;stroke:#0b7d41;" x="0" xlink:href="#m2746460ad2" y="347.04"/>
    </g>
   </g>
   <g id="PatchCollection_81">
    <defs>
     <path d="M 202.841177 -82.695775 
L 208.544746 -84.6698 
L 188.177899 -137.97992 
L 185.896471 -137.19031 
z
" id="mde0699de84" style="stroke:#0c7c47;"/>
    </defs>
    <g clip-path="url(#p301fee888b)">
     <use style="fill:#0c7c47;stroke:#0c7c47;" x="0" xlink:href="#mde0699de84" y="347.04"/>
    </g>
   </g>
   <g id="PatchCollection_82">
    <defs>
     <path d="M 208.544746 -84.6698 
L 214.111632 -87.001593 
L 190.404653 -138.912637 
L 188.177899 -137.97992 
z
" id="m834793fb91" style="stroke:#0d7c4c;"/>
    </defs>
    <g clip-path="url(#p301fee888b)">
     <use style="fill:#0d7c4c;stroke:#0d7c4c;" x="0" xlink:href="#m834793fb91" y="347.04"/>
    </g>
   </g>
   <g id="PatchCollection_83">
    <defs>
     <path d="M 214.111632 -87.001593 
L 219.519419 -89.681765 
L 192.567768 -139.984706 
L 190.404653 -138.912637 
z
" id="me5c774d358" style="stroke:#0e7c52;"/>
    </defs>
    <g clip-path="url(#p301fee888b)">
     <use style="fill:#0e7c52;stroke:#0e7c52;" x="0" xlink:href="#me5c774d358" y="347.04"/>
    </g>
   </g>
   <g id="PatchCollection_84">
    <defs>
     <path d="M 219.519419 -89.681765 
L 224.746331 -92.699524 
L 194.658533 -141.19181 
L 192.567768 -139.984706 
z
" id="m2d97f13b59" style="stroke:#0f7c57;"/>
    </defs>
    <g clip-path="url(#p301fee888b)">
     <use style="fill:#0f7c57;stroke:#0f7c57;" x="0" xlink:href="#m2d97f13b59" y="347.04"/>
    </g>
   </g>
   <g id="PatchCollection_85">
    <defs>
     <path d="M 224.746331 -92.699524 
L 229.771322 -96.042719 
L 196.668529 -142.529088 
L 194.658533 -141.19181 
z
" id="m448562d81e" style="stroke:#107b5d;"/>
    </defs>
    <g clip-path="url(#p301fee888b)">
     <use style="fill:#107b5d;stroke:#107b5d;" x="0" xlink:href="#m448562d81e" y="347.04"/>
    </g>
   </g>
   <g id="PatchCollection_86">
    <defs>
     <path d="M 229.771322 -96.042719 
L 234.574157 -99.697887 
L 198.589663 -143.991155 
L 196.668529 -142.529088 
z
" id="md12ae01238" style="stroke:#117b62;"/>
    </defs>
    <g clip-path="url(#p301fee888b)">
     <use style="fill:#117b62;stroke:#117b62;" x="0" xlink:href="#md12ae01238" y="347.04"/>
    </g>
   </g>
   <g id="PatchCollection_87">
    <defs>
     <path d="M 234.574157 -99.697887 
L 239.135497 -103.650311 
L 200.414199 -145.572125 
L 198.589663 -143.991155 
z
" id="m5c6b7f62be" style="stroke:#127b68;"/>
    </defs>
    <g clip-path="url(#p301fee888b)">
     <use style="fill:#127b68;stroke:#127b68;" x="0" xlink:href="#m5c6b7f62be" y="347.04"/>
    </g>
   </g>
   <g id="PatchCollection_88">
    <defs>
     <path d="M 239.135497 -103.650311 
L 243.436976 -107.884076 
L 202.13479 -147.26563 
L 200.414199 -145.572125 
z
" id="m104884ce7c" style="stroke:#137b6d;"/>
    </defs>
    <g clip-path="url(#p301fee888b)">
     <use style="fill:#137b6d;stroke:#137b6d;" x="0" xlink:href="#m104884ce7c" y="347.04"/>
    </g>
   </g>
   <g id="PatchCollection_89">
    <defs>
     <path d="M 243.436976 -107.884076 
L 247.461273 -112.382133 
L 203.744509 -149.064853 
L 202.13479 -147.26563 
z
" id="m43e2dd7ad0" style="stroke:#147a73;"/>
    </defs>
    <g clip-path="url(#p301fee888b)">
     <use style="fill:#147a73;stroke:#147a73;" x="0" xlink:href="#m43e2dd7ad0" y="347.04"/>
    </g>
   </g>
   <g id="PatchCollection_90">
    <defs>
     <path d="M 247.461273 -112.382133 
L 251.192182 -117.126371 
L 205.236873 -150.962548 
L 203.744509 -149.064853 
z
" id="m5e768ac0cc" style="stroke:#157a78;"/>
    </defs>
    <g clip-path="url(#p301fee888b)">
     <use style="fill:#157a78;stroke:#157a78;" x="0" xlink:href="#m5e768ac0cc" y="347.04"/>
    </g>
   </g>
   <g id="PatchCollection_91">
    <defs>
     <path d="M 251.192182 -117.126371 
L 254.614683 -122.097686 
L 206.605873 -152.951074 
L 205.236873 -150.962548 
z
" id="mc6f0953511" style="stroke:#167a7d;"/>
    </defs>
    <g clip-path="url(#p301fee888b)">
     <use style="fill:#167a7d;stroke:#167a7d;" x="0" xlink:href="#mc6f0953511" y="347.04"/>
    </g>
   </g>
   <g id="PatchCollection_92">
    <defs>
     <path d="M 254.614683 -122.097686 
L 257.714992 -127.27606 
L 207.845997 -155.022424 
L 206.605873 -152.951074 
z
" id="mdee9e599e6" style="stroke:#177983;"/>
    </defs>
    <g clip-path="url(#p301fee888b)">
     <use style="fill:#177983;stroke:#177983;" x="0" xlink:href="#mdee9e599e6" y="347.04"/>
    </g>
   </g>
   <g id="PatchCollection_93">
    <defs>
     <path d="M 257.714992 -127.27606 
L 260.480626 -132.640643 
L 208.952251 -157.168257 
L 207.845997 -155.022424 
z
" id="ma26c5cba3d" style="stroke:#177988;"/>
    </defs>
    <g clip-path="url(#p301fee888b)">
     <use style="fill:#177988;stroke:#177988;" x="0" xlink:href="#ma26c5cba3d" y="347.04"/>
    </g>
   </g>
   <g id="PatchCollection_94">
    <defs>
     <path d="M 260.480626 -132.640643 
L 262.90045 -138.169832 
L 209.92018 -159.379933 
L 208.952251 -157.168257 
z
" id="m46d0e371a8" style="stroke:#18798e;"/>
    </defs>
    <g clip-path="url(#p301fee888b)">
     <use style="fill:#18798e;stroke:#18798e;" x="0" xlink:href="#m46d0e371a8" y="347.04"/>
    </g>
   </g>
   <g id="PatchCollection_95">
    <defs>
     <path d="M 262.90045 -138.169832 
L 264.964719 -143.841364 
L 210.745888 -161.648546 
L 209.92018 -159.379933 
z
" id="m1f8d70f9fa" style="stroke:#197993;"/>
    </defs>
    <g clip-path="url(#p301fee888b)">
     <use style="fill:#197993;stroke:#197993;" x="0" xlink:href="#m1f8d70f9fa" y="347.04"/>
    </g>
   </g>
   <g id="PatchCollection_96">
    <defs>
     <path d="M 264.964719 -143.841364 
L 266.665121 -149.632402 
L 211.426048 -163.964961 
L 210.745888 -161.648546 
z
" id="md611b74957" style="stroke:#1a7899;"/>
    </defs>
    <g clip-path="url(#p301fee888b)">
     <use style="fill:#1a7899;stroke:#1a7899;" x="0" xlink:href="#md611b74957" y="347.04"/>
    </g>
   </g>
   <g id="PatchCollection_97">
    <defs>
     <path d="M 266.665121 -149.632402 
L 267.994809 -155.519626 
L 211.957924 -166.31985 
L 211.426048 -163.964961 
z
" id="mff280ee7f2" style="stroke:#1b789e;"/>
    </defs>
    <g clip-path="url(#p301fee888b)">
     <use style="fill:#1b789e;stroke:#1b789e;" x="0" xlink:href="#mff280ee7f2" y="347.04"/>
    </g>
   </g>
   <g id="PatchCollection_98">
    <defs>
     <path d="M 267.994809 -155.519626 
L 268.948429 -161.479331 
L 212.339372 -168.703733 
L 211.957924 -166.31985 
z
" id="mfe21d3025f" style="stroke:#1c78a4;"/>
    </defs>
    <g clip-path="url(#p301fee888b)">
     <use style="fill:#1c78a4;stroke:#1c78a4;" x="0" xlink:href="#mfe21d3025f" y="347.04"/>
    </g>
   </g>
   <g id="PatchCollection_99">
    <defs>
     <path d="M 268.948429 -161.479331 
L 269.522142 -167.48752 
L 212.568857 -171.107008 
L 212.339372 -168.703733 
z
" id="m153476446c" style="stroke:#1d78a9;"/>
    </defs>
    <g clip-path="url(#p301fee888b)">
     <use style="fill:#1d78a9;stroke:#1d78a9;" x="0" xlink:href="#m153476446c" y="347.04"/>
    </g>
   </g>
   <g id="PatchCollection_100">
    <defs>
     <path d="M 269.522142 -167.48752 
L 269.713636 -173.52 
L 212.645455 -173.52 
L 212.568857 -171.107008 
z
" id="m4432db98ec" style="stroke:#1e77af;"/>
    </defs>
    <g clip-path="url(#p301fee888b)">
     <use style="fill:#1e77af;stroke:#1e77af;" x="0" xlink:href="#m4432db98ec" y="347.04"/>
    </g>
   </g>
   <g id="line2d_1">
    <path clip-path="url(#p301fee888b)" d="M 269.713636 173.52 
L 269.522142 167.48752 
L 268.948429 161.479331 
L 267.994809 155.519626 
L 266.665121 149.632402 
L 264.964719 143.841364 
L 262.90045 138.169832 
L 260.480626 132.640643 
L 257.714992 127.27606 
L 254.614683 122.097686 
L 251.192182 117.126371 
L 247.461273 112.382133 
L 243.436976 107.884076 
L 239.135497 103.650311 
L 234.574157 99.697887 
L 229.771322 96.042719 
L 224.746331 92.699524 
L 219.519419 89.681765 
L 214.111632 87.001593 
L 208.544746 84.6698 
L 202.841177 82.695775 
L 197.02389 81.087468 
L 191.11631 79.851353 
L 185.142224 78.99241 
L 179.125689 78.514095 
L 173.09093 78.418336 
L 167.062248 78.705517 
L 161.063918 79.374483 
L 155.120093 80.42254 
L 149.254707 81.845467 
L 143.491377 83.637536 
L 137.85331 85.791529 
L 132.36321 88.298774 
L 127.043182 91.149175 
L 121.914648 94.331254 
L 116.99826 97.832198 
L 112.313814 101.63791 
L 107.880173 105.733066 
L 103.715188 110.101176 
L 99.835632 114.724651 
L 96.257125 119.584874 
L 92.994078 124.662275 
L 90.059628 129.936409 
L 87.465593 135.386039 
L 85.222418 140.98922 
L 83.339134 146.723392 
L 81.823326 152.565464 
L 80.681097 158.491913 
L 79.917046 164.478874 
L 79.534249 170.502241 
L 79.534249 176.537759 
L 79.917046 182.561126 
L 80.681097 188.548087 
L 81.823326 194.474536 
L 83.339134 200.316608 
L 85.222418 206.05078 
L 87.465593 211.653961 
L 90.059628 217.103591 
L 92.994078 222.377725 
L 96.257125 227.455126 
L 99.835632 232.315349 
L 103.715188 236.938824 
L 107.880173 241.306934 
L 112.313814 245.40209 
L 116.99826 249.207802 
L 121.914648 252.708746 
L 127.043182 255.890825 
L 132.36321 258.741226 
L 137.85331 261.248471 
L 143.491377 263.402464 
L 149.254707 265.194533 
L 155.120093 266.61746 
L 161.063918 267.665517 
L 167.062248 268.334483 
L 173.09093 268.621664 
L 179.125689 268.525905 
L 185.142224 268.04759 
L 191.11631 267.188647 
L 197.02389 265.952532 
L 202.841177 264.344225 
L 208.544746 262.3702 
L 214.111632 260.038407 
L 219.519419 257.358235 
L 224.746331 254.340476 
L 229.771322 250.997281 
L 234.574157 247.342113 
L 239.135497 243.389689 
L 243.436976 239.155924 
L 247.461273 234.657867 
L 251.192182 229.913629 
L 254.614683 224.942314 
L 257.714992 219.76394 
L 260.480626 214.399357 
L 262.90045 208.870168 
L 264.964719 203.198636 
L 266.665121 197.407598 
L 267.994809 191.520374 
L 268.948429 185.560669 
L 269.522142 179.55248 
L 269.713636 173.52 
" style="fill:none;stroke:#000000;stroke-linecap:square;"/>
   </g>
   <g id="line2d_2">
    <path clip-path="url(#p301fee888b)" d="M 212.645455 173.52 
L 212.568857 171.107008 
L 212.339372 168.703733 
L 211.957924 166.31985 
L 211.426048 163.964961 
L 210.745888 161.648546 
L 209.92018 159.379933 
L 208.952251 157.168257 
L 207.845997 155.022424 
L 206.605873 152.951074 
L 205.236873 150.962548 
L 203.744509 149.064853 
L 202.13479 147.26563 
L 200.414199 145.572125 
L 198.589663 143.991155 
L 196.668529 142.529088 
L 194.658533 141.19181 
L 192.567768 139.984706 
L 190.404653 138.912637 
L 188.177899 137.97992 
L 185.896471 137.19031 
L 183.569556 136.546987 
L 181.206524 136.052541 
L 178.81689 135.708964 
L 176.410276 135.517638 
L 173.996372 135.479334 
L 171.584899 135.594207 
L 169.185567 135.861793 
L 166.808037 136.281016 
L 164.461883 136.850187 
L 162.156551 137.567014 
L 159.901324 138.428612 
L 157.705284 139.43151 
L 155.577273 140.57167 
L 153.525859 141.844501 
L 151.559304 143.244879 
L 149.685526 144.767164 
L 147.912069 146.405226 
L 146.246075 148.15247 
L 144.694253 150.00186 
L 143.26285 151.94595 
L 141.957631 153.97691 
L 140.783851 156.086564 
L 139.746237 158.266416 
L 138.848967 160.507688 
L 138.095654 162.801357 
L 137.48933 165.138186 
L 137.032439 167.508765 
L 136.726818 169.90355 
L 136.5737 172.312896 
L 136.5737 174.727104 
L 136.726818 177.13645 
L 137.032439 179.531235 
L 137.48933 181.901814 
L 138.095654 184.238643 
L 138.848967 186.532312 
L 139.746237 188.773584 
L 140.783851 190.953436 
L 141.957631 193.06309 
L 143.26285 195.09405 
L 144.694253 197.03814 
L 146.246075 198.88753 
L 147.912069 200.634774 
L 149.685526 202.272836 
L 151.559304 203.795121 
L 153.525859 205.195499 
L 155.577273 206.46833 
L 157.705284 207.60849 
L 159.901324 208.611388 
L 162.156551 209.472986 
L 164.461883 210.189813 
L 166.808037 210.758984 
L 169.185567 211.178207 
L 171.584899 211.445793 
L 173.996372 211.560666 
L 176.410276 211.522362 
L 178.81689 211.331036 
L 181.206524 210.987459 
L 183.569556 210.493013 
L 185.896471 209.84969 
L 188.177899 209.06008 
L 190.404653 208.127363 
L 192.567768 207.055294 
L 194.658533 205.84819 
L 196.668529 204.510912 
L 198.589663 203.048845 
L 200.414199 201.467875 
L 202.13479 199.77437 
L 203.744509 197.975147 
L 205.236873 196.077452 
L 206.605873 194.088926 
L 207.845997 192.017576 
L 208.952251 189.871743 
L 209.92018 187.660067 
L 210.745888 185.391454 
L 211.426048 183.075039 
L 211.957924 180.72015 
L 212.339372 178.336267 
L 212.568857 175.932992 
L 212.645455 173.52 
" style="fill:none;stroke:#000000;stroke-linecap:square;"/>
   </g>
   <g id="line2d_3">
    <path clip-path="url(#p301fee888b)" d="M 269.713636 173.52 
L 279.225 173.52 
" style="fill:none;stroke:#000000;stroke-linecap:square;"/>
   </g>
   <g id="line2d_4">
    <path clip-path="url(#p301fee888b)" d="M 174.6 78.406364 
L 174.6 68.895 
" style="fill:none;stroke:#000000;stroke-linecap:square;"/>
   </g>
   <g id="line2d_5">
    <path clip-path="url(#p301fee888b)" d="M 174.6 268.633636 
L 174.6 278.145 
" style="fill:none;stroke:#000000;stroke-linecap:square;"/>
   </g>
   <g id="line2d_6">
    <path clip-path="url(#p301fee888b)" d="M 79.486364 173.52 
L 69.975 173.52 
" style="fill:none;stroke:#000000;stroke-linecap:square;"/>
   </g>
   <g id="text_1">
    <!-- $0$ -->
    <defs>
     <path d="M 31.78125 66.40625 
Q 24.171875 66.40625 20.328125 58.90625 
Q 16.5 51.421875 16.5 36.375 
Q 16.5 21.390625 20.328125 13.890625 
Q 24.171875 6.390625 31.78125 6.390625 
Q 39.453125 6.390625 43.28125 13.890625 
Q 47.125 21.390625 47.125 36.375 
Q 47.125 51.421875 43.28125 58.90625 
Q 39.453125 66.40625 31.78125 66.40625 
z
M 31.78125 74.21875 
Q 44.046875 74.21875 50.515625 64.515625 
Q 56.984375 54.828125 56.984375 36.375 
Q 56.984375 17.96875 50.515625 8.265625 
Q 44.046875 -1.421875 31.78125 -1.421875 
Q 19.53125 -1.421875 13.0625 8.265625 
Q 6.59375 17.96875 6.59375 36.375 
Q 6.59375 54.828125 13.0625 64.515625 
Q 19.53125 74.21875 31.78125 74.21875 
z
" id="DejaVuSans-48"/>
    </defs>
    <g transform="translate(295.047727 176.279375)scale(0.1 -0.1)">
     <use transform="translate(0 0.78125)" xlink:href="#DejaVuSans-48"/>
    </g>
   </g>
   <g id="text_2">
    <!-- $\pi/2$ -->
    <defs>
     <path d="M 9.125 54.6875 
L 61.53125 54.6875 
L 59.765625 45.703125 
L 52.875 45.703125 
L 46.34375 12.109375 
Q 45.65625 8.59375 46.578125 7.03125 
Q 47.46875 5.515625 50.140625 5.515625 
Q 50.875 5.515625 51.953125 5.671875 
Q 53.078125 5.765625 53.421875 5.8125 
L 52.15625 -0.6875 
Q 50.34375 -1.3125 48.484375 -1.609375 
Q 46.578125 -1.90625 44.78125 -1.90625 
Q 38.921875 -1.90625 37.3125 1.265625 
Q 35.6875 4.5 37.359375 13.09375 
L 43.703125 45.703125 
L 23.53125 45.703125 
L 14.65625 0 
L 5.46875 0 
L 14.359375 45.703125 
L 7.375 45.703125 
z
" id="DejaVuSans-Oblique-960"/>
     <path d="M 25.390625 72.90625 
L 33.6875 72.90625 
L 8.296875 -9.28125 
L 0 -9.28125 
z
" id="DejaVuSans-47"/>
     <path d="M 19.1875 8.296875 
L 53.609375 8.296875 
L 53.609375 0 
L 7.328125 0 
L 7.328125 8.296875 
Q 12.9375 14.109375 22.625 23.890625 
Q 32.328125 33.6875 34.8125 36.53125 
Q 39.546875 41.84375 41.421875 45.53125 
Q 43.3125 49.21875 43.3125 52.78125 
Q 43.3125 58.59375 39.234375 62.25 
Q 35.15625 65.921875 28.609375 65.921875 
Q 23.96875 65.921875 18.8125 64.3125 
Q 13.671875 62.703125 7.8125 59.421875 
L 7.8125 69.390625 
Q 13.765625 71.78125 18.9375 73 
Q 24.125 74.21875 28.421875 74.21875 
Q 39.75 74.21875 46.484375 68.546875 
Q 53.21875 62.890625 53.21875 53.421875 
Q 53.21875 48.921875 51.53125 44.890625 
Q 49.859375 40.875 45.40625 35.40625 
Q 44.1875 33.984375 37.640625 27.21875 
Q 31.109375 20.453125 19.1875 8.296875 
z
" id="DejaVuSans-50"/>
    </defs>
    <g transform="translate(166.7 52.631648)scale(0.1 -0.1)">
     <use transform="translate(0 0.78125)" xlink:href="#DejaVuSans-Oblique-960"/>
     <use transform="translate(60.205078 0.78125)" xlink:href="#DejaVuSans-47"/>
     <use transform="translate(93.849609 0.78125)" xlink:href="#DejaVuSans-50"/>
    </g>
   </g>
   <g id="text_3">
    <!-- $-\pi/2$ -->
    <defs>
     <path d="M 10.59375 35.5 
L 73.1875 35.5 
L 73.1875 27.203125 
L 10.59375 27.203125 
z
" id="DejaVuSans-8722"/>
    </defs>
    <g transform="translate(162.5 299.927102)scale(0.1 -0.1)">
     <use transform="translate(0 0.78125)" xlink:href="#DejaVuSans-8722"/>
     <use transform="translate(83.789062 0.78125)" xlink:href="#DejaVuSans-Oblique-960"/>
     <use transform="translate(143.994141 0.78125)" xlink:href="#DejaVuSans-47"/>
     <use transform="translate(177.638672 0.78125)" xlink:href="#DejaVuSans-50"/>
    </g>
   </g>
   <g id="text_4">
    <!-- $\pi$ -->
    <g transform="translate(47.902273 176.279375)scale(0.1 -0.1)">
     <use transform="translate(0 0.3125)" xlink:href="#DejaVuSans-Oblique-960"/>
    </g>
   </g>
  </g>
 </g>
 <defs>
  <clipPath id="p301fee888b">
   <rect height="332.64" width="334.8" x="7.2" y="7.2"/>
  </clipPath>
 </defs>
</svg>
