<?xml version="1.0" encoding="utf-8" standalone="no"?>
<!DOCTYPE svg PUBLIC "-//W3C//DTD SVG 1.1//EN"
  "http://www.w3.org/Graphics/SVG/1.1/DTD/svg11.dtd">
<!-- Created with matplotlib (http://matplotlib.org/) -->
<svg height="267.95625pt" version="1.1" viewBox="0 0 718.782813 267.95625" width="718.782813pt" xmlns="http://www.w3.org/2000/svg" xmlns:xlink="http://www.w3.org/1999/xlink">
 <defs>
  <style type="text/css">
*{stroke-linecap:butt;stroke-linejoin:round;}
  </style>
 </defs>
 <g id="figure_1">
  <g id="patch_1">
   <path d="M 0 267.95625 
L 718.782813 267.95625 
L 718.782813 0 
L 0 0 
z
" style="fill:#ffffff;"/>
  </g>
  <g id="axes_1">
   <g id="PatchCollection_1">
    <path clip-path="url(#p61cc5700d2)" d="M 136.953401 222.716842 
C 160.694042 222.716842 183.465524 213.284585 200.252692 196.497417 
C 217.039861 179.710248 226.472117 156.938766 226.472117 133.198125 
C 226.472117 109.457484 217.039861 86.686002 200.252692 69.898833 
C 183.465524 53.111665 160.694042 43.679408 136.953401 43.679408 
C 113.21276 43.679408 90.441278 53.111665 73.654109 69.898833 
C 56.866941 86.686002 47.434684 109.457484 47.434684 133.198125 
C 47.434684 156.938766 56.866941 179.710248 73.654109 196.497417 
C 90.441278 213.284585 113.21276 222.716842 136.953401 222.716842 
z
" style="fill:#ffffff;fill-opacity:0.5;"/>
   </g>
   <g id="PatchCollection_2">
    <path clip-path="url(#p61cc5700d2)" d="M 192.902599 133.198125 
L 192.789955 129.649608 
L 159.288022 131.778718 
L 159.33308 133.198125 
z
" style="fill:#1f77b4;"/>
   </g>
   <g id="PatchCollection_3">
    <path clip-path="url(#p61cc5700d2)" d="M 192.789955 129.649608 
L 192.452477 126.115379 
L 159.153031 130.365027 
L 159.288022 131.778718 
z
" style="fill:#2477b1;"/>
   </g>
   <g id="PatchCollection_4">
    <path clip-path="url(#p61cc5700d2)" d="M 192.452477 126.115379 
L 191.891524 122.60967 
L 158.92865 128.962743 
L 159.153031 130.365027 
z
" style="fill:#2877ad;"/>
   </g>
   <g id="PatchCollection_5">
    <path clip-path="url(#p61cc5700d2)" d="M 191.891524 122.60967 
L 191.109354 119.146597 
L 158.615782 127.577514 
L 158.92865 128.962743 
z
" style="fill:#2d77aa;"/>
   </g>
   <g id="PatchCollection_6">
    <path clip-path="url(#p61cc5700d2)" d="M 191.109354 119.146597 
L 190.109118 115.740104 
L 158.215688 126.214917 
L 158.615782 127.577514 
z
" style="fill:#3178a7;"/>
   </g>
   <g id="PatchCollection_7">
    <path clip-path="url(#p61cc5700d2)" d="M 190.109118 115.740104 
L 188.894842 112.403909 
L 157.729977 124.880438 
L 158.215688 126.214917 
z
" style="fill:#3678a3;"/>
   </g>
   <g id="PatchCollection_8">
    <path clip-path="url(#p61cc5700d2)" d="M 188.894842 112.403909 
L 187.471416 109.151444 
L 157.160607 123.579453 
L 157.729977 124.880438 
z
" style="fill:#3a78a0;"/>
   </g>
   <g id="PatchCollection_9">
    <path clip-path="url(#p61cc5700d2)" d="M 187.471416 109.151444 
L 185.844572 105.995808 
L 156.509869 122.317198 
L 157.160607 123.579453 
z
" style="fill:#3f789d;"/>
   </g>
   <g id="PatchCollection_10">
    <path clip-path="url(#p61cc5700d2)" d="M 185.844572 105.995808 
L 184.020861 102.949705 
L 155.780385 121.098757 
L 156.509869 122.317198 
z
" style="fill:#437899;"/>
   </g>
   <g id="PatchCollection_11">
    <path clip-path="url(#p61cc5700d2)" d="M 184.020861 102.949705 
L 182.007626 100.025402 
L 154.975091 119.929036 
L 155.780385 121.098757 
z
" style="fill:#487896;"/>
   </g>
   <g id="PatchCollection_12">
    <path clip-path="url(#p61cc5700d2)" d="M 182.007626 100.025402 
L 179.812973 97.234674 
L 154.09723 118.812745 
L 154.975091 119.929036 
z
" style="fill:#4c7992;"/>
   </g>
   <g id="PatchCollection_13">
    <path clip-path="url(#p61cc5700d2)" d="M 179.812973 97.234674 
L 177.44574 94.588758 
L 153.150336 117.754378 
L 154.09723 118.812745 
z
" style="fill:#51798f;"/>
   </g>
   <g id="PatchCollection_14">
    <path clip-path="url(#p61cc5700d2)" d="M 177.44574 94.588758 
L 174.915458 92.098308 
L 152.138224 116.758198 
L 153.150336 117.754378 
z
" style="fill:#55798c;"/>
   </g>
   <g id="PatchCollection_15">
    <path clip-path="url(#p61cc5700d2)" d="M 174.915458 92.098308 
L 172.232317 89.773353 
L 151.064967 115.828216 
L 152.138224 116.758198 
z
" style="fill:#5a7988;"/>
   </g>
   <g id="PatchCollection_16">
    <path clip-path="url(#p61cc5700d2)" d="M 172.232317 89.773353 
L 169.40712 87.623254 
L 149.934888 114.968177 
L 151.064967 115.828216 
z
" style="fill:#5e7985;"/>
   </g>
   <g id="PatchCollection_17">
    <path clip-path="url(#p61cc5700d2)" d="M 169.40712 87.623254 
L 166.451243 85.656669 
L 148.752538 114.181543 
L 149.934888 114.968177 
z
" style="fill:#637982;"/>
   </g>
   <g id="PatchCollection_18">
    <path clip-path="url(#p61cc5700d2)" d="M 166.451243 85.656669 
L 163.376589 83.881516 
L 147.522676 113.471482 
L 148.752538 114.181543 
z
" style="fill:#677a7e;"/>
   </g>
   <g id="PatchCollection_19">
    <path clip-path="url(#p61cc5700d2)" d="M 163.376589 83.881516 
L 160.195537 82.304945 
L 146.250255 112.840853 
L 147.522676 113.471482 
z
" style="fill:#6c7a7b;"/>
   </g>
   <g id="PatchCollection_20">
    <path clip-path="url(#p61cc5700d2)" d="M 160.195537 82.304945 
L 156.920899 80.933302 
L 144.9404 112.292196 
L 146.250255 112.840853 
z
" style="fill:#707a78;"/>
   </g>
   <g id="PatchCollection_21">
    <path clip-path="url(#p61cc5700d2)" d="M 156.920899 80.933302 
L 153.565858 79.772111 
L 143.598383 111.827719 
L 144.9404 112.292196 
z
" style="fill:#757a74;"/>
   </g>
   <g id="PatchCollection_22">
    <path clip-path="url(#p61cc5700d2)" d="M 153.565858 79.772111 
L 150.143924 78.826047 
L 142.22961 111.449294 
L 143.598383 111.827719 
z
" style="fill:#7a7a71;"/>
   </g>
   <g id="PatchCollection_23">
    <path clip-path="url(#p61cc5700d2)" d="M 150.143924 78.826047 
L 146.668877 78.098921 
L 140.839591 111.158443 
L 142.22961 111.449294 
z
" style="fill:#7e7a6e;"/>
   </g>
   <g id="PatchCollection_24">
    <path clip-path="url(#p61cc5700d2)" d="M 146.668877 78.098921 
L 143.154709 77.59366 
L 139.433924 110.956339 
L 140.839591 111.158443 
z
" style="fill:#837b6a;"/>
   </g>
   <g id="PatchCollection_25">
    <path clip-path="url(#p61cc5700d2)" d="M 143.154709 77.59366 
L 139.615571 77.312299 
L 138.018269 110.843794 
L 139.433924 110.956339 
z
" style="fill:#877b67;"/>
   </g>
   <g id="PatchCollection_26">
    <path clip-path="url(#p61cc5700d2)" d="M 139.615571 77.312299 
L 136.065713 77.25597 
L 136.598326 110.821263 
L 138.018269 110.843794 
z
" style="fill:#8c7b64;"/>
   </g>
   <g id="PatchCollection_27">
    <path clip-path="url(#p61cc5700d2)" d="M 136.065713 77.25597 
L 132.519429 77.4249 
L 135.179812 110.888835 
L 136.598326 110.821263 
z
" style="fill:#907b60;"/>
   </g>
   <g id="PatchCollection_28">
    <path clip-path="url(#p61cc5700d2)" d="M 132.519429 77.4249 
L 128.991 77.818409 
L 133.76844 111.046239 
L 135.179812 110.888835 
z
" style="fill:#957b5d;"/>
   </g>
   <g id="PatchCollection_29">
    <path clip-path="url(#p61cc5700d2)" d="M 128.991 77.818409 
L 125.494632 78.434913 
L 132.369893 111.29284 
L 133.76844 111.046239 
z
" style="fill:#997b59;"/>
   </g>
   <g id="PatchCollection_30">
    <path clip-path="url(#p61cc5700d2)" d="M 125.494632 78.434913 
L 122.044405 79.271929 
L 130.989802 111.627647 
L 132.369893 111.29284 
z
" style="fill:#9e7c56;"/>
   </g>
   <g id="PatchCollection_31">
    <path clip-path="url(#p61cc5700d2)" d="M 122.044405 79.271929 
L 118.654211 80.326087 
L 129.633725 112.04931 
L 130.989802 111.627647 
z
" style="fill:#a27c53;"/>
   </g>
   <g id="PatchCollection_32">
    <path clip-path="url(#p61cc5700d2)" d="M 118.654211 80.326087 
L 115.337701 81.593142 
L 128.307121 112.556132 
L 129.633725 112.04931 
z
" style="fill:#a77c4f;"/>
   </g>
   <g id="PatchCollection_33">
    <path clip-path="url(#p61cc5700d2)" d="M 115.337701 81.593142 
L 112.10823 83.067992 
L 127.015332 113.146072 
L 128.307121 112.556132 
z
" style="fill:#ab7c4c;"/>
   </g>
   <g id="PatchCollection_34">
    <path clip-path="url(#p61cc5700d2)" d="M 112.10823 83.067992 
L 108.978802 84.744698 
L 125.763561 113.816754 
L 127.015332 113.146072 
z
" style="fill:#b07c49;"/>
   </g>
   <g id="PatchCollection_35">
    <path clip-path="url(#p61cc5700d2)" d="M 108.978802 84.744698 
L 105.962017 86.616509 
L 124.556847 114.565479 
L 125.763561 113.816754 
z
" style="fill:#b47c45;"/>
   </g>
   <g id="PatchCollection_36">
    <path clip-path="url(#p61cc5700d2)" d="M 105.962017 86.616509 
L 103.070025 88.675888 
L 123.40005 115.38923 
L 124.556847 114.565479 
z
" style="fill:#b97c42;"/>
   </g>
   <g id="PatchCollection_37">
    <path clip-path="url(#p61cc5700d2)" d="M 103.070025 88.675888 
L 100.314468 90.914543 
L 122.297828 116.284692 
L 123.40005 115.38923 
z
" style="fill:#bd7d3f;"/>
   </g>
   <g id="PatchCollection_38">
    <path clip-path="url(#p61cc5700d2)" d="M 100.314468 90.914543 
L 97.706443 93.323458 
L 121.254618 117.248258 
L 122.297828 116.284692 
z
" style="fill:#c27d3b;"/>
   </g>
   <g id="PatchCollection_39">
    <path clip-path="url(#p61cc5700d2)" d="M 97.706443 93.323458 
L 95.256453 95.892934 
L 120.274621 118.276049 
L 121.254618 117.248258 
z
" style="fill:#c67d38;"/>
   </g>
   <g id="PatchCollection_40">
    <path clip-path="url(#p61cc5700d2)" d="M 95.256453 95.892934 
L 92.974361 98.612626 
L 119.361785 119.363925 
L 120.274621 118.276049 
z
" style="fill:#cb7d35;"/>
   </g>
   <g id="PatchCollection_41">
    <path clip-path="url(#p61cc5700d2)" d="M 92.974361 98.612626 
L 90.869357 101.47158 
L 118.519783 120.507507 
L 119.361785 119.363925 
z
" style="fill:#cf7d31;"/>
   </g>
   <g id="PatchCollection_42">
    <path clip-path="url(#p61cc5700d2)" d="M 90.869357 101.47158 
L 88.949917 104.458287 
L 117.752007 121.70219 
L 118.519783 120.507507 
z
" style="fill:#d47d2e;"/>
   </g>
   <g id="PatchCollection_43">
    <path clip-path="url(#p61cc5700d2)" d="M 88.949917 104.458287 
L 87.22377 107.560719 
L 117.061549 122.943162 
L 117.752007 121.70219 
z
" style="fill:#d97e2b;"/>
   </g>
   <g id="PatchCollection_44">
    <path clip-path="url(#p61cc5700d2)" d="M 87.22377 107.560719 
L 85.697867 110.766383 
L 116.451187 124.225428 
L 117.061549 122.943162 
z
" style="fill:#dd7e27;"/>
   </g>
   <g id="PatchCollection_45">
    <path clip-path="url(#p61cc5700d2)" d="M 85.697867 110.766383 
L 84.378352 114.062372 
L 115.923381 125.543824 
L 116.451187 124.225428 
z
" style="fill:#e27e24;"/>
   </g>
   <g id="PatchCollection_46">
    <path clip-path="url(#p61cc5700d2)" d="M 84.378352 114.062372 
L 83.270539 117.435414 
L 115.480256 126.893041 
L 115.923381 125.543824 
z
" style="fill:#e67e20;"/>
   </g>
   <g id="PatchCollection_47">
    <path clip-path="url(#p61cc5700d2)" d="M 83.270539 117.435414 
L 82.378887 120.871927 
L 115.123595 128.267646 
L 115.480256 126.893041 
z
" style="fill:#eb7e1d;"/>
   </g>
   <g id="PatchCollection_48">
    <path clip-path="url(#p61cc5700d2)" d="M 82.378887 120.871927 
L 81.706987 124.358074 
L 114.854835 129.662104 
L 115.123595 128.267646 
z
" style="fill:#ef7e1a;"/>
   </g>
   <g id="PatchCollection_49">
    <path clip-path="url(#p61cc5700d2)" d="M 81.706987 124.358074 
L 81.257545 127.879816 
L 114.675059 131.070801 
L 114.854835 129.662104 
z
" style="fill:#f47f16;"/>
   </g>
   <g id="PatchCollection_50">
    <path clip-path="url(#p61cc5700d2)" d="M 81.257545 127.879816 
L 81.032371 131.422973 
L 114.584989 132.488064 
L 114.675059 131.070801 
z
" style="fill:#f87f13;"/>
   </g>
   <g id="PatchCollection_51">
    <path clip-path="url(#p61cc5700d2)" d="M 81.032371 131.422973 
L 81.032371 134.973277 
L 114.584989 133.908186 
L 114.584989 132.488064 
z
" style="fill:#fd7f10;"/>
   </g>
   <g id="PatchCollection_52">
    <path clip-path="url(#p61cc5700d2)" d="M 81.032371 134.973277 
L 81.257545 138.516434 
L 114.675059 135.325449 
L 114.584989 133.908186 
z
" style="fill:#fd7f10;"/>
   </g>
   <g id="PatchCollection_53">
    <path clip-path="url(#p61cc5700d2)" d="M 81.257545 138.516434 
L 81.706987 142.038176 
L 114.854835 136.734146 
L 114.675059 135.325449 
z
" style="fill:#f87f13;"/>
   </g>
   <g id="PatchCollection_54">
    <path clip-path="url(#p61cc5700d2)" d="M 81.706987 142.038176 
L 82.378887 145.524323 
L 115.123595 138.128604 
L 114.854835 136.734146 
z
" style="fill:#f47f16;"/>
   </g>
   <g id="PatchCollection_55">
    <path clip-path="url(#p61cc5700d2)" d="M 82.378887 145.524323 
L 83.270539 148.960836 
L 115.480256 139.503209 
L 115.123595 138.128604 
z
" style="fill:#ef7e1a;"/>
   </g>
   <g id="PatchCollection_56">
    <path clip-path="url(#p61cc5700d2)" d="M 83.270539 148.960836 
L 84.378352 152.333878 
L 115.923381 140.852426 
L 115.480256 139.503209 
z
" style="fill:#eb7e1d;"/>
   </g>
   <g id="PatchCollection_57">
    <path clip-path="url(#p61cc5700d2)" d="M 84.378352 152.333878 
L 85.697867 155.629867 
L 116.451187 142.170822 
L 115.923381 140.852426 
z
" style="fill:#e67e20;"/>
   </g>
   <g id="PatchCollection_58">
    <path clip-path="url(#p61cc5700d2)" d="M 85.697867 155.629867 
L 87.22377 158.835531 
L 117.061549 143.453088 
L 116.451187 142.170822 
z
" style="fill:#e27e24;"/>
   </g>
   <g id="PatchCollection_59">
    <path clip-path="url(#p61cc5700d2)" d="M 87.22377 158.835531 
L 88.949917 161.937963 
L 117.752007 144.69406 
L 117.061549 143.453088 
z
" style="fill:#dd7e27;"/>
   </g>
   <g id="PatchCollection_60">
    <path clip-path="url(#p61cc5700d2)" d="M 88.949917 161.937963 
L 90.869357 164.92467 
L 118.519783 145.888743 
L 117.752007 144.69406 
z
" style="fill:#d97e2b;"/>
   </g>
   <g id="PatchCollection_61">
    <path clip-path="url(#p61cc5700d2)" d="M 90.869357 164.92467 
L 92.974361 167.783624 
L 119.361785 147.032325 
L 118.519783 145.888743 
z
" style="fill:#d47d2e;"/>
   </g>
   <g id="PatchCollection_62">
    <path clip-path="url(#p61cc5700d2)" d="M 92.974361 167.783624 
L 95.256453 170.503316 
L 120.274621 148.120201 
L 119.361785 147.032325 
z
" style="fill:#cf7d31;"/>
   </g>
   <g id="PatchCollection_63">
    <path clip-path="url(#p61cc5700d2)" d="M 95.256453 170.503316 
L 97.706443 173.072792 
L 121.254618 149.147992 
L 120.274621 148.120201 
z
" style="fill:#cb7d35;"/>
   </g>
   <g id="PatchCollection_64">
    <path clip-path="url(#p61cc5700d2)" d="M 97.706443 173.072792 
L 100.314468 175.481707 
L 122.297828 150.111558 
L 121.254618 149.147992 
z
" style="fill:#c67d38;"/>
   </g>
   <g id="PatchCollection_65">
    <path clip-path="url(#p61cc5700d2)" d="M 100.314468 175.481707 
L 103.070025 177.720362 
L 123.40005 151.00702 
L 122.297828 150.111558 
z
" style="fill:#c27d3b;"/>
   </g>
   <g id="PatchCollection_66">
    <path clip-path="url(#p61cc5700d2)" d="M 103.070025 177.720362 
L 105.962017 179.779741 
L 124.556847 151.830771 
L 123.40005 151.00702 
z
" style="fill:#bd7d3f;"/>
   </g>
   <g id="PatchCollection_67">
    <path clip-path="url(#p61cc5700d2)" d="M 105.962017 179.779741 
L 108.978802 181.651552 
L 125.763561 152.579496 
L 124.556847 151.830771 
z
" style="fill:#b97c42;"/>
   </g>
   <g id="PatchCollection_68">
    <path clip-path="url(#p61cc5700d2)" d="M 108.978802 181.651552 
L 112.10823 183.328258 
L 127.015332 153.250178 
L 125.763561 152.579496 
z
" style="fill:#b47c45;"/>
   </g>
   <g id="PatchCollection_69">
    <path clip-path="url(#p61cc5700d2)" d="M 112.10823 183.328258 
L 115.337701 184.803108 
L 128.307121 153.840118 
L 127.015332 153.250178 
z
" style="fill:#b07c49;"/>
   </g>
   <g id="PatchCollection_70">
    <path clip-path="url(#p61cc5700d2)" d="M 115.337701 184.803108 
L 118.654211 186.070163 
L 129.633725 154.34694 
L 128.307121 153.840118 
z
" style="fill:#ab7c4c;"/>
   </g>
   <g id="PatchCollection_71">
    <path clip-path="url(#p61cc5700d2)" d="M 118.654211 186.070163 
L 122.044405 187.124321 
L 130.989802 154.768603 
L 129.633725 154.34694 
z
" style="fill:#a77c4f;"/>
   </g>
   <g id="PatchCollection_72">
    <path clip-path="url(#p61cc5700d2)" d="M 122.044405 187.124321 
L 125.494632 187.961337 
L 132.369893 155.10341 
L 130.989802 154.768603 
z
" style="fill:#a27c53;"/>
   </g>
   <g id="PatchCollection_73">
    <path clip-path="url(#p61cc5700d2)" d="M 125.494632 187.961337 
L 128.991 188.577841 
L 133.76844 155.350011 
L 132.369893 155.10341 
z
" style="fill:#9e7c56;"/>
   </g>
   <g id="PatchCollection_74">
    <path clip-path="url(#p61cc5700d2)" d="M 128.991 188.577841 
L 132.519429 188.97135 
L 135.179812 155.507415 
L 133.76844 155.350011 
z
" style="fill:#997b59;"/>
   </g>
   <g id="PatchCollection_75">
    <path clip-path="url(#p61cc5700d2)" d="M 132.519429 188.97135 
L 136.065713 189.14028 
L 136.598326 155.574987 
L 135.179812 155.507415 
z
" style="fill:#957b5d;"/>
   </g>
   <g id="PatchCollection_76">
    <path clip-path="url(#p61cc5700d2)" d="M 136.065713 189.14028 
L 139.615571 189.083951 
L 138.018269 155.552456 
L 136.598326 155.574987 
z
" style="fill:#907b60;"/>
   </g>
   <g id="PatchCollection_77">
    <path clip-path="url(#p61cc5700d2)" d="M 139.615571 189.083951 
L 143.154709 188.80259 
L 139.433924 155.439911 
L 138.018269 155.552456 
z
" style="fill:#8c7b64;"/>
   </g>
   <g id="PatchCollection_78">
    <path clip-path="url(#p61cc5700d2)" d="M 143.154709 188.80259 
L 146.668877 188.297329 
L 140.839591 155.237807 
L 139.433924 155.439911 
z
" style="fill:#877b67;"/>
   </g>
   <g id="PatchCollection_79">
    <path clip-path="url(#p61cc5700d2)" d="M 146.668877 188.297329 
L 150.143924 187.570203 
L 142.22961 154.946956 
L 140.839591 155.237807 
z
" style="fill:#837b6a;"/>
   </g>
   <g id="PatchCollection_80">
    <path clip-path="url(#p61cc5700d2)" d="M 150.143924 187.570203 
L 153.565858 186.624139 
L 143.598383 154.568531 
L 142.22961 154.946956 
z
" style="fill:#7e7a6e;"/>
   </g>
   <g id="PatchCollection_81">
    <path clip-path="url(#p61cc5700d2)" d="M 153.565858 186.624139 
L 156.920899 185.462948 
L 144.9404 154.104054 
L 143.598383 154.568531 
z
" style="fill:#7a7a71;"/>
   </g>
   <g id="PatchCollection_82">
    <path clip-path="url(#p61cc5700d2)" d="M 156.920899 185.462948 
L 160.195537 184.091305 
L 146.250255 153.555397 
L 144.9404 154.104054 
z
" style="fill:#757a74;"/>
   </g>
   <g id="PatchCollection_83">
    <path clip-path="url(#p61cc5700d2)" d="M 160.195537 184.091305 
L 163.376589 182.514734 
L 147.522676 152.924768 
L 146.250255 153.555397 
z
" style="fill:#707a78;"/>
   </g>
   <g id="PatchCollection_84">
    <path clip-path="url(#p61cc5700d2)" d="M 163.376589 182.514734 
L 166.451243 180.739581 
L 148.752538 152.214707 
L 147.522676 152.924768 
z
" style="fill:#6c7a7b;"/>
   </g>
   <g id="PatchCollection_85">
    <path clip-path="url(#p61cc5700d2)" d="M 166.451243 180.739581 
L 169.40712 178.772996 
L 149.934888 151.428073 
L 148.752538 152.214707 
z
" style="fill:#677a7e;"/>
   </g>
   <g id="PatchCollection_86">
    <path clip-path="url(#p61cc5700d2)" d="M 169.40712 178.772996 
L 172.232317 176.622897 
L 151.064967 150.568034 
L 149.934888 151.428073 
z
" style="fill:#637982;"/>
   </g>
   <g id="PatchCollection_87">
    <path clip-path="url(#p61cc5700d2)" d="M 172.232317 176.622897 
L 174.915458 174.297942 
L 152.138224 149.638052 
L 151.064967 150.568034 
z
" style="fill:#5e7985;"/>
   </g>
   <g id="PatchCollection_88">
    <path clip-path="url(#p61cc5700d2)" d="M 174.915458 174.297942 
L 177.44574 171.807492 
L 153.150336 148.641872 
L 152.138224 149.638052 
z
" style="fill:#5a7988;"/>
   </g>
   <g id="PatchCollection_89">
    <path clip-path="url(#p61cc5700d2)" d="M 177.44574 171.807492 
L 179.812973 169.161576 
L 154.09723 147.583505 
L 153.150336 148.641872 
z
" style="fill:#55798c;"/>
   </g>
   <g id="PatchCollection_90">
    <path clip-path="url(#p61cc5700d2)" d="M 179.812973 169.161576 
L 182.007626 166.370848 
L 154.975091 146.467214 
L 154.09723 147.583505 
z
" style="fill:#51798f;"/>
   </g>
   <g id="PatchCollection_91">
    <path clip-path="url(#p61cc5700d2)" d="M 182.007626 166.370848 
L 184.020861 163.446545 
L 155.780385 145.297493 
L 154.975091 146.467214 
z
" style="fill:#4c7992;"/>
   </g>
   <g id="PatchCollection_92">
    <path clip-path="url(#p61cc5700d2)" d="M 184.020861 163.446545 
L 185.844572 160.400442 
L 156.509869 144.079052 
L 155.780385 145.297493 
z
" style="fill:#487896;"/>
   </g>
   <g id="PatchCollection_93">
    <path clip-path="url(#p61cc5700d2)" d="M 185.844572 160.400442 
L 187.471416 157.244806 
L 157.160607 142.816797 
L 156.509869 144.079052 
z
" style="fill:#437899;"/>
   </g>
   <g id="PatchCollection_94">
    <path clip-path="url(#p61cc5700d2)" d="M 187.471416 157.244806 
L 188.894842 153.992341 
L 157.729977 141.515812 
L 157.160607 142.816797 
z
" style="fill:#3f789d;"/>
   </g>
   <g id="PatchCollection_95">
    <path clip-path="url(#p61cc5700d2)" d="M 188.894842 153.992341 
L 190.109118 150.656146 
L 158.215688 140.181333 
L 157.729977 141.515812 
z
" style="fill:#3a78a0;"/>
   </g>
   <g id="PatchCollection_96">
    <path clip-path="url(#p61cc5700d2)" d="M 190.109118 150.656146 
L 191.109354 147.249653 
L 158.615782 138.818736 
L 158.215688 140.181333 
z
" style="fill:#3678a3;"/>
   </g>
   <g id="PatchCollection_97">
    <path clip-path="url(#p61cc5700d2)" d="M 191.109354 147.249653 
L 191.891524 143.78658 
L 158.92865 137.433507 
L 158.615782 138.818736 
z
" style="fill:#3178a7;"/>
   </g>
   <g id="PatchCollection_98">
    <path clip-path="url(#p61cc5700d2)" d="M 191.891524 143.78658 
L 192.452477 140.280871 
L 159.153031 136.031223 
L 158.92865 137.433507 
z
" style="fill:#2d77aa;"/>
   </g>
   <g id="PatchCollection_99">
    <path clip-path="url(#p61cc5700d2)" d="M 192.452477 140.280871 
L 192.789955 136.746642 
L 159.288022 134.617532 
L 159.153031 136.031223 
z
" style="fill:#2877ad;"/>
   </g>
   <g id="PatchCollection_100">
    <path clip-path="url(#p61cc5700d2)" d="M 192.789955 136.746642 
L 192.902599 133.198125 
L 159.33308 133.198125 
L 159.288022 134.617532 
z
" style="fill:#2477b1;"/>
   </g>
   <g id="line2d_1">
    <path clip-path="url(#p61cc5700d2)" d="M 192.902599 133.198125 
L 192.789955 129.649608 
L 192.452477 126.115379 
L 191.891524 122.60967 
L 191.109354 119.146597 
L 190.109118 115.740104 
L 188.894842 112.403909 
L 187.471416 109.151444 
L 185.844572 105.995808 
L 184.020861 102.949705 
L 182.007626 100.025402 
L 179.812973 97.234674 
L 177.44574 94.588758 
L 174.915458 92.098308 
L 172.232317 89.773353 
L 169.40712 87.623254 
L 166.451243 85.656669 
L 163.376589 83.881516 
L 160.195537 82.304945 
L 156.920899 80.933302 
L 153.565858 79.772111 
L 150.143924 78.826047 
L 146.668877 78.098921 
L 143.154709 77.59366 
L 139.615571 77.312299 
L 136.065713 77.25597 
L 132.519429 77.4249 
L 128.991 77.818409 
L 125.494632 78.434913 
L 122.044405 79.271929 
L 118.654211 80.326087 
L 115.337701 81.593142 
L 112.10823 83.067992 
L 108.978802 84.744698 
L 105.962017 86.616509 
L 103.070025 88.675888 
L 100.314468 90.914543 
L 97.706443 93.323458 
L 95.256453 95.892934 
L 92.974361 98.612626 
L 90.869357 101.47158 
L 88.949917 104.458287 
L 87.22377 107.560719 
L 85.697867 110.766383 
L 84.378352 114.062372 
L 83.270539 117.435414 
L 82.378887 120.871927 
L 81.706987 124.358074 
L 81.257545 127.879816 
L 81.032371 131.422973 
L 81.032371 134.973277 
L 81.257545 138.516434 
L 81.706987 142.038176 
L 82.378887 145.524323 
L 83.270539 148.960836 
L 84.378352 152.333878 
L 85.697867 155.629867 
L 87.22377 158.835531 
L 88.949917 161.937963 
L 90.869357 164.92467 
L 92.974361 167.783624 
L 95.256453 170.503316 
L 97.706443 173.072792 
L 100.314468 175.481707 
L 103.070025 177.720362 
L 105.962017 179.779741 
L 108.978802 181.651552 
L 112.10823 183.328258 
L 115.337701 184.803108 
L 118.654211 186.070163 
L 122.044405 187.124321 
L 125.494632 187.961337 
L 128.991 188.577841 
L 132.519429 188.97135 
L 136.065713 189.14028 
L 139.615571 189.083951 
L 143.154709 188.80259 
L 146.668877 188.297329 
L 150.143924 187.570203 
L 153.565858 186.624139 
L 156.920899 185.462948 
L 160.195537 184.091305 
L 163.376589 182.514734 
L 166.451243 180.739581 
L 169.40712 178.772996 
L 172.232317 176.622897 
L 174.915458 174.297942 
L 177.44574 171.807492 
L 179.812973 169.161576 
L 182.007626 166.370848 
L 184.020861 163.446545 
L 185.844572 160.400442 
L 187.471416 157.244806 
L 188.894842 153.992341 
L 190.109118 150.656146 
L 191.109354 147.249653 
L 191.891524 143.78658 
L 192.452477 140.280871 
L 192.789955 136.746642 
L 192.902599 133.198125 
" style="fill:none;stroke:#000000;stroke-linecap:square;"/>
   </g>
   <g id="line2d_2">
    <path clip-path="url(#p61cc5700d2)" d="M 159.33308 133.198125 
L 159.288022 131.778718 
L 159.153031 130.365027 
L 158.92865 128.962743 
L 158.615782 127.577514 
L 158.215688 126.214917 
L 157.729977 124.880438 
L 157.160607 123.579453 
L 156.509869 122.317198 
L 155.780385 121.098757 
L 154.975091 119.929036 
L 154.09723 118.812745 
L 153.150336 117.754378 
L 152.138224 116.758198 
L 151.064967 115.828216 
L 149.934888 114.968177 
L 148.752538 114.181543 
L 147.522676 113.471482 
L 146.250255 112.840853 
L 144.9404 112.292196 
L 143.598383 111.827719 
L 142.22961 111.449294 
L 140.839591 111.158443 
L 139.433924 110.956339 
L 138.018269 110.843794 
L 136.598326 110.821263 
L 135.179812 110.888835 
L 133.76844 111.046239 
L 132.369893 111.29284 
L 130.989802 111.627647 
L 129.633725 112.04931 
L 128.307121 112.556132 
L 127.015332 113.146072 
L 125.763561 113.816754 
L 124.556847 114.565479 
L 123.40005 115.38923 
L 122.297828 116.284692 
L 121.254618 117.248258 
L 120.274621 118.276049 
L 119.361785 119.363925 
L 118.519783 120.507507 
L 117.752007 121.70219 
L 117.061549 122.943162 
L 116.451187 124.225428 
L 115.923381 125.543824 
L 115.480256 126.893041 
L 115.123595 128.267646 
L 114.854835 129.662104 
L 114.675059 131.070801 
L 114.584989 132.488064 
L 114.584989 133.908186 
L 114.675059 135.325449 
L 114.854835 136.734146 
L 115.123595 138.128604 
L 115.480256 139.503209 
L 115.923381 140.852426 
L 116.451187 142.170822 
L 117.061549 143.453088 
L 117.752007 144.69406 
L 118.519783 145.888743 
L 119.361785 147.032325 
L 120.274621 148.120201 
L 121.254618 149.147992 
L 122.297828 150.111558 
L 123.40005 151.00702 
L 124.556847 151.830771 
L 125.763561 152.579496 
L 127.015332 153.250178 
L 128.307121 153.840118 
L 129.633725 154.34694 
L 130.989802 154.768603 
L 132.369893 155.10341 
L 133.76844 155.350011 
L 135.179812 155.507415 
L 136.598326 155.574987 
L 138.018269 155.552456 
L 139.433924 155.439911 
L 140.839591 155.237807 
L 142.22961 154.946956 
L 143.598383 154.568531 
L 144.9404 154.104054 
L 146.250255 153.555397 
L 147.522676 152.924768 
L 148.752538 152.214707 
L 149.934888 151.428073 
L 151.064967 150.568034 
L 152.138224 149.638052 
L 153.150336 148.641872 
L 154.09723 147.583505 
L 154.975091 146.467214 
L 155.780385 145.297493 
L 156.509869 144.079052 
L 157.160607 142.816797 
L 157.729977 141.515812 
L 158.215688 140.181333 
L 158.615782 138.818736 
L 158.92865 137.433507 
L 159.153031 136.031223 
L 159.288022 134.617532 
L 159.33308 133.198125 
" style="fill:none;stroke:#000000;stroke-linecap:square;"/>
   </g>
   <g id="line2d_3">
    <path clip-path="url(#p61cc5700d2)" d="M 192.902599 133.198125 
L 198.497518 133.198125 
" style="fill:none;stroke:#000000;stroke-linecap:square;"/>
   </g>
   <g id="line2d_4">
    <path clip-path="url(#p61cc5700d2)" d="M 136.953401 77.248927 
L 136.953401 71.654007 
" style="fill:none;stroke:#000000;stroke-linecap:square;"/>
   </g>
   <g id="line2d_5">
    <path clip-path="url(#p61cc5700d2)" d="M 136.953401 189.147323 
L 136.953401 194.742243 
" style="fill:none;stroke:#000000;stroke-linecap:square;"/>
   </g>
   <g id="line2d_6">
    <path clip-path="url(#p61cc5700d2)" d="M 81.004203 133.198125 
L 75.409283 133.198125 
" style="fill:none;stroke:#000000;stroke-linecap:square;"/>
   </g>
   <g id="text_1">
    <!-- $0$ -->
    <defs>
     <path d="M 31.78125 66.40625 
Q 24.171875 66.40625 20.328125 58.90625 
Q 16.5 51.421875 16.5 36.375 
Q 16.5 21.390625 20.328125 13.890625 
Q 24.171875 6.390625 31.78125 6.390625 
Q 39.453125 6.390625 43.28125 13.890625 
Q 47.125 21.390625 47.125 36.375 
Q 47.125 51.421875 43.28125 58.90625 
Q 39.453125 66.40625 31.78125 66.40625 
z
M 31.78125 74.21875 
Q 44.046875 74.21875 50.515625 64.515625 
Q 56.984375 54.828125 56.984375 36.375 
Q 56.984375 17.96875 50.515625 8.265625 
Q 44.046875 -1.421875 31.78125 -1.421875 
Q 19.53125 -1.421875 13.0625 8.265625 
Q 6.59375 17.96875 6.59375 36.375 
Q 6.59375 54.828125 13.0625 64.515625 
Q 19.53125 74.21875 31.78125 74.21875 
z
" id="DejaVuSans-30"/>
    </defs>
    <g transform="translate(206.487358 135.9575)scale(0.1 -0.1)">
     <use transform="translate(0 0.78125)" xlink:href="#DejaVuSans-30"/>
    </g>
   </g>
   <g id="text_2">
    <!-- $\pi/2$ -->
    <defs>
     <path d="M 9.125 54.6875 
L 61.53125 54.6875 
L 59.765625 45.703125 
L 52.875 45.703125 
L 46.34375 12.109375 
Q 45.65625 8.59375 46.578125 7.03125 
Q 47.46875 5.515625 50.140625 5.515625 
Q 50.875 5.515625 51.953125 5.671875 
Q 53.078125 5.765625 53.421875 5.8125 
L 52.15625 -0.6875 
Q 50.34375 -1.3125 48.484375 -1.609375 
Q 46.578125 -1.90625 44.78125 -1.90625 
Q 38.921875 -1.90625 37.3125 1.265625 
Q 35.6875 4.5 37.359375 13.09375 
L 43.703125 45.703125 
L 23.53125 45.703125 
L 14.65625 0 
L 5.46875 0 
L 14.359375 45.703125 
L 7.375 45.703125 
z
" id="DejaVuSans-Oblique-3c0"/>
     <path d="M 25.390625 72.90625 
L 33.6875 72.90625 
L 8.296875 -9.28125 
L 0 -9.28125 
z
" id="DejaVuSans-2f"/>
     <path d="M 19.1875 8.296875 
L 53.609375 8.296875 
L 53.609375 0 
L 7.328125 0 
L 7.328125 8.296875 
Q 12.9375 14.109375 22.625 23.890625 
Q 32.328125 33.6875 34.8125 36.53125 
Q 39.546875 41.84375 41.421875 45.53125 
Q 43.3125 49.21875 43.3125 52.78125 
Q 43.3125 58.59375 39.234375 62.25 
Q 35.15625 65.921875 28.609375 65.921875 
Q 23.96875 65.921875 18.8125 64.3125 
Q 13.671875 62.703125 7.8125 59.421875 
L 7.8125 69.390625 
Q 13.765625 71.78125 18.9375 73 
Q 24.125 74.21875 28.421875 74.21875 
Q 39.75 74.21875 46.484375 68.546875 
Q 53.21875 62.890625 53.21875 53.421875 
Q 53.21875 48.921875 51.53125 44.890625 
Q 49.859375 40.875 45.40625 35.40625 
Q 44.1875 33.984375 37.640625 27.21875 
Q 31.109375 20.453125 19.1875 8.296875 
z
" id="DejaVuSans-32"/>
    </defs>
    <g transform="translate(129.053401 63.223543)scale(0.1 -0.1)">
     <use transform="translate(0 0.78125)" xlink:href="#DejaVuSans-Oblique-3c0"/>
     <use transform="translate(60.205078 0.78125)" xlink:href="#DejaVuSans-2f"/>
     <use transform="translate(93.849609 0.78125)" xlink:href="#DejaVuSans-32"/>
    </g>
   </g>
   <g id="text_3">
    <!-- $-\pi/2$ -->
    <defs>
     <path d="M 10.59375 35.5 
L 73.1875 35.5 
L 73.1875 27.203125 
L 10.59375 27.203125 
z
" id="DejaVuSans-2212"/>
    </defs>
    <g transform="translate(124.853401 208.691457)scale(0.1 -0.1)">
     <use transform="translate(0 0.78125)" xlink:href="#DejaVuSans-2212"/>
     <use transform="translate(83.789062 0.78125)" xlink:href="#DejaVuSans-Oblique-3c0"/>
     <use transform="translate(143.994141 0.78125)" xlink:href="#DejaVuSans-2f"/>
     <use transform="translate(177.638672 0.78125)" xlink:href="#DejaVuSans-32"/>
    </g>
   </g>
   <g id="text_4">
    <!-- $\pi$ -->
    <g transform="translate(61.169444 135.9575)scale(0.1 -0.1)">
     <use transform="translate(0 0.3125)" xlink:href="#DejaVuSans-Oblique-3c0"/>
    </g>
   </g>
   <g id="text_5">
    <!-- 2 colors -->
    <defs>
     <path id="DejaVuSans-20"/>
     <path d="M 48.78125 52.59375 
L 48.78125 44.1875 
Q 44.96875 46.296875 41.140625 47.34375 
Q 37.3125 48.390625 33.40625 48.390625 
Q 24.65625 48.390625 19.8125 42.84375 
Q 14.984375 37.3125 14.984375 27.296875 
Q 14.984375 17.28125 19.8125 11.734375 
Q 24.65625 6.203125 33.40625 6.203125 
Q 37.3125 6.203125 41.140625 7.25 
Q 44.96875 8.296875 48.78125 10.40625 
L 48.78125 2.09375 
Q 45.015625 0.34375 40.984375 -0.53125 
Q 36.96875 -1.421875 32.421875 -1.421875 
Q 20.0625 -1.421875 12.78125 6.34375 
Q 5.515625 14.109375 5.515625 27.296875 
Q 5.515625 40.671875 12.859375 48.328125 
Q 20.21875 56 33.015625 56 
Q 37.15625 56 41.109375 55.140625 
Q 45.0625 54.296875 48.78125 52.59375 
z
" id="DejaVuSans-63"/>
     <path d="M 30.609375 48.390625 
Q 23.390625 48.390625 19.1875 42.75 
Q 14.984375 37.109375 14.984375 27.296875 
Q 14.984375 17.484375 19.15625 11.84375 
Q 23.34375 6.203125 30.609375 6.203125 
Q 37.796875 6.203125 41.984375 11.859375 
Q 46.1875 17.53125 46.1875 27.296875 
Q 46.1875 37.015625 41.984375 42.703125 
Q 37.796875 48.390625 30.609375 48.390625 
z
M 30.609375 56 
Q 42.328125 56 49.015625 48.375 
Q 55.71875 40.765625 55.71875 27.296875 
Q 55.71875 13.875 49.015625 6.21875 
Q 42.328125 -1.421875 30.609375 -1.421875 
Q 18.84375 -1.421875 12.171875 6.21875 
Q 5.515625 13.875 5.515625 27.296875 
Q 5.515625 40.765625 12.171875 48.375 
Q 18.84375 56 30.609375 56 
z
" id="DejaVuSans-6f"/>
     <path d="M 9.421875 75.984375 
L 18.40625 75.984375 
L 18.40625 0 
L 9.421875 0 
z
" id="DejaVuSans-6c"/>
     <path d="M 41.109375 46.296875 
Q 39.59375 47.171875 37.8125 47.578125 
Q 36.03125 48 33.890625 48 
Q 26.265625 48 22.1875 43.046875 
Q 18.109375 38.09375 18.109375 28.8125 
L 18.109375 0 
L 9.078125 0 
L 9.078125 54.6875 
L 18.109375 54.6875 
L 18.109375 46.1875 
Q 20.953125 51.171875 25.484375 53.578125 
Q 30.03125 56 36.53125 56 
Q 37.453125 56 38.578125 55.875 
Q 39.703125 55.765625 41.0625 55.515625 
z
" id="DejaVuSans-72"/>
     <path d="M 44.28125 53.078125 
L 44.28125 44.578125 
Q 40.484375 46.53125 36.375 47.5 
Q 32.28125 48.484375 27.875 48.484375 
Q 21.1875 48.484375 17.84375 46.4375 
Q 14.5 44.390625 14.5 40.28125 
Q 14.5 37.15625 16.890625 35.375 
Q 19.28125 33.59375 26.515625 31.984375 
L 29.59375 31.296875 
Q 39.15625 29.25 43.1875 25.515625 
Q 47.21875 21.78125 47.21875 15.09375 
Q 47.21875 7.46875 41.1875 3.015625 
Q 35.15625 -1.421875 24.609375 -1.421875 
Q 20.21875 -1.421875 15.453125 -0.5625 
Q 10.6875 0.296875 5.421875 2 
L 5.421875 11.28125 
Q 10.40625 8.6875 15.234375 7.390625 
Q 20.0625 6.109375 24.8125 6.109375 
Q 31.15625 6.109375 34.5625 8.28125 
Q 37.984375 10.453125 37.984375 14.40625 
Q 37.984375 18.0625 35.515625 20.015625 
Q 33.0625 21.96875 24.703125 23.78125 
L 21.578125 24.515625 
Q 13.234375 26.265625 9.515625 29.90625 
Q 5.8125 33.546875 5.8125 39.890625 
Q 5.8125 47.609375 11.28125 51.796875 
Q 16.75 56 26.8125 56 
Q 31.78125 56 36.171875 55.265625 
Q 40.578125 54.546875 44.28125 53.078125 
z
" id="DejaVuSans-73"/>
    </defs>
    <g transform="translate(113.328401 16.318125)scale(0.12 -0.12)">
     <use xlink:href="#DejaVuSans-32"/>
     <use x="63.623047" xlink:href="#DejaVuSans-20"/>
     <use x="95.410156" xlink:href="#DejaVuSans-63"/>
     <use x="150.390625" xlink:href="#DejaVuSans-6f"/>
     <use x="211.572266" xlink:href="#DejaVuSans-6c"/>
     <use x="239.355469" xlink:href="#DejaVuSans-6f"/>
     <use x="300.537109" xlink:href="#DejaVuSans-72"/>
     <use x="341.650391" xlink:href="#DejaVuSans-73"/>
    </g>
   </g>
  </g>
  <g id="axes_2">
   <g id="PatchCollection_101">
    <path clip-path="url(#p42bb587d90)" d="M 373.282812 222.716842 
C 397.023454 222.716842 419.794936 213.284585 436.582104 196.497417 
C 453.369272 179.710248 462.801529 156.938766 462.801529 133.198125 
C 462.801529 109.457484 453.369272 86.686002 436.582104 69.898833 
C 419.794936 53.111665 397.023454 43.679408 373.282812 43.679408 
C 349.542171 43.679408 326.770689 53.111665 309.983521 69.898833 
C 293.196353 86.686002 283.764096 109.457484 283.764096 133.198125 
C 283.764096 156.938766 293.196353 179.710248 309.983521 196.497417 
C 326.770689 213.284585 349.542171 222.716842 373.282812 222.716842 
z
" style="fill:#ffffff;fill-opacity:0.5;"/>
   </g>
   <g id="PatchCollection_102">
    <path clip-path="url(#p42bb587d90)" d="M 429.23201 133.198125 
L 429.119367 129.649608 
L 395.617434 131.778718 
L 395.662492 133.198125 
z
" style="fill:#1f77b4;"/>
   </g>
   <g id="PatchCollection_103">
    <path clip-path="url(#p42bb587d90)" d="M 429.119367 129.649608 
L 428.781889 126.115379 
L 395.482443 130.365027 
L 395.617434 131.778718 
z
" style="fill:#2677af;"/>
   </g>
   <g id="PatchCollection_104">
    <path clip-path="url(#p42bb587d90)" d="M 428.781889 126.115379 
L 428.220935 122.60967 
L 395.258062 128.962743 
L 395.482443 130.365027 
z
" style="fill:#2d77aa;"/>
   </g>
   <g id="PatchCollection_105">
    <path clip-path="url(#p42bb587d90)" d="M 428.220935 122.60967 
L 427.438766 119.146597 
L 394.945194 127.577514 
L 395.258062 128.962743 
z
" style="fill:#3378a5;"/>
   </g>
   <g id="PatchCollection_106">
    <path clip-path="url(#p42bb587d90)" d="M 427.438766 119.146597 
L 426.438529 115.740104 
L 394.545099 126.214917 
L 394.945194 127.577514 
z
" style="fill:#3a78a0;"/>
   </g>
   <g id="PatchCollection_107">
    <path clip-path="url(#p42bb587d90)" d="M 426.438529 115.740104 
L 425.224254 112.403909 
L 394.059389 124.880438 
L 394.545099 126.214917 
z
" style="fill:#41789b;"/>
   </g>
   <g id="PatchCollection_108">
    <path clip-path="url(#p42bb587d90)" d="M 425.224254 112.403909 
L 423.800828 109.151444 
L 393.490019 123.579453 
L 394.059389 124.880438 
z
" style="fill:#487896;"/>
   </g>
   <g id="PatchCollection_109">
    <path clip-path="url(#p42bb587d90)" d="M 423.800828 109.151444 
L 422.173984 105.995808 
L 392.839281 122.317198 
L 393.490019 123.579453 
z
" style="fill:#4f7991;"/>
   </g>
   <g id="PatchCollection_110">
    <path clip-path="url(#p42bb587d90)" d="M 422.173984 105.995808 
L 420.350273 102.949705 
L 392.109797 121.098757 
L 392.839281 122.317198 
z
" style="fill:#55798c;"/>
   </g>
   <g id="PatchCollection_111">
    <path clip-path="url(#p42bb587d90)" d="M 420.350273 102.949705 
L 418.337037 100.025402 
L 391.304502 119.929036 
L 392.109797 121.098757 
z
" style="fill:#5c7987;"/>
   </g>
   <g id="PatchCollection_112">
    <path clip-path="url(#p42bb587d90)" d="M 418.337037 100.025402 
L 416.142385 97.234674 
L 390.426641 118.812745 
L 391.304502 119.929036 
z
" style="fill:#637982;"/>
   </g>
   <g id="PatchCollection_113">
    <path clip-path="url(#p42bb587d90)" d="M 416.142385 97.234674 
L 413.775151 94.588758 
L 389.479748 117.754378 
L 390.426641 118.812745 
z
" style="fill:#6a7a7d;"/>
   </g>
   <g id="PatchCollection_114">
    <path clip-path="url(#p42bb587d90)" d="M 413.775151 94.588758 
L 411.24487 92.098308 
L 388.467635 116.758198 
L 389.479748 117.754378 
z
" style="fill:#707a78;"/>
   </g>
   <g id="PatchCollection_115">
    <path clip-path="url(#p42bb587d90)" d="M 411.24487 92.098308 
L 408.561728 89.773353 
L 387.394379 115.828216 
L 388.467635 116.758198 
z
" style="fill:#777a73;"/>
   </g>
   <g id="PatchCollection_116">
    <path clip-path="url(#p42bb587d90)" d="M 408.561728 89.773353 
L 405.736531 87.623254 
L 386.2643 114.968177 
L 387.394379 115.828216 
z
" style="fill:#7e7a6e;"/>
   </g>
   <g id="PatchCollection_117">
    <path clip-path="url(#p42bb587d90)" d="M 405.736531 87.623254 
L 402.780655 85.656669 
L 385.081949 114.181543 
L 386.2643 114.968177 
z
" style="fill:#857b69;"/>
   </g>
   <g id="PatchCollection_118">
    <path clip-path="url(#p42bb587d90)" d="M 402.780655 85.656669 
L 399.706 83.881516 
L 383.852088 113.471482 
L 385.081949 114.181543 
z
" style="fill:#8c7b64;"/>
   </g>
   <g id="PatchCollection_119">
    <path clip-path="url(#p42bb587d90)" d="M 399.706 83.881516 
L 396.524949 82.304945 
L 382.579667 112.840853 
L 383.852088 113.471482 
z
" style="fill:#927b5e;"/>
   </g>
   <g id="PatchCollection_120">
    <path clip-path="url(#p42bb587d90)" d="M 396.524949 82.304945 
L 393.25031 80.933302 
L 381.269812 112.292196 
L 382.579667 112.840853 
z
" style="fill:#997b59;"/>
   </g>
   <g id="PatchCollection_121">
    <path clip-path="url(#p42bb587d90)" d="M 393.25031 80.933302 
L 389.895269 79.772111 
L 379.927795 111.827719 
L 381.269812 112.292196 
z
" style="fill:#a07c54;"/>
   </g>
   <g id="PatchCollection_122">
    <path clip-path="url(#p42bb587d90)" d="M 389.895269 79.772111 
L 386.473336 78.826047 
L 378.559022 111.449294 
L 379.927795 111.827719 
z
" style="fill:#a77c4f;"/>
   </g>
   <g id="PatchCollection_123">
    <path clip-path="url(#p42bb587d90)" d="M 386.473336 78.826047 
L 382.998289 78.098921 
L 377.169003 111.158443 
L 378.559022 111.449294 
z
" style="fill:#ae7c4a;"/>
   </g>
   <g id="PatchCollection_124">
    <path clip-path="url(#p42bb587d90)" d="M 382.998289 78.098921 
L 379.484121 77.59366 
L 375.763336 110.956339 
L 377.169003 111.158443 
z
" style="fill:#b47c45;"/>
   </g>
   <g id="PatchCollection_125">
    <path clip-path="url(#p42bb587d90)" d="M 379.484121 77.59366 
L 375.944983 77.312299 
L 374.347681 110.843794 
L 375.763336 110.956339 
z
" style="fill:#bb7d40;"/>
   </g>
   <g id="PatchCollection_126">
    <path clip-path="url(#p42bb587d90)" d="M 375.944983 77.312299 
L 372.395125 77.25597 
L 372.927737 110.821263 
L 374.347681 110.843794 
z
" style="fill:#c27d3b;"/>
   </g>
   <g id="PatchCollection_127">
    <path clip-path="url(#p42bb587d90)" d="M 372.395125 77.25597 
L 368.848841 77.4249 
L 371.509224 110.888835 
L 372.927737 110.821263 
z
" style="fill:#c97d36;"/>
   </g>
   <g id="PatchCollection_128">
    <path clip-path="url(#p42bb587d90)" d="M 368.848841 77.4249 
L 365.320411 77.818409 
L 370.097852 111.046239 
L 371.509224 110.888835 
z
" style="fill:#cf7d31;"/>
   </g>
   <g id="PatchCollection_129">
    <path clip-path="url(#p42bb587d90)" d="M 365.320411 77.818409 
L 361.824044 78.434913 
L 368.699305 111.29284 
L 370.097852 111.046239 
z
" style="fill:#d67e2c;"/>
   </g>
   <g id="PatchCollection_130">
    <path clip-path="url(#p42bb587d90)" d="M 361.824044 78.434913 
L 358.373816 79.271929 
L 367.319214 111.627647 
L 368.699305 111.29284 
z
" style="fill:#dd7e27;"/>
   </g>
   <g id="PatchCollection_131">
    <path clip-path="url(#p42bb587d90)" d="M 358.373816 79.271929 
L 354.983622 80.326087 
L 365.963136 112.04931 
L 367.319214 111.627647 
z
" style="fill:#e47e22;"/>
   </g>
   <g id="PatchCollection_132">
    <path clip-path="url(#p42bb587d90)" d="M 354.983622 80.326087 
L 351.667113 81.593142 
L 364.636533 112.556132 
L 365.963136 112.04931 
z
" style="fill:#eb7e1d;"/>
   </g>
   <g id="PatchCollection_133">
    <path clip-path="url(#p42bb587d90)" d="M 351.667113 81.593142 
L 348.437642 83.067992 
L 363.344744 113.146072 
L 364.636533 112.556132 
z
" style="fill:#f17f18;"/>
   </g>
   <g id="PatchCollection_134">
    <path clip-path="url(#p42bb587d90)" d="M 348.437642 83.067992 
L 345.308214 84.744698 
L 362.092973 113.816754 
L 363.344744 113.146072 
z
" style="fill:#f87f13;"/>
   </g>
   <g id="PatchCollection_135">
    <path clip-path="url(#p42bb587d90)" d="M 345.308214 84.744698 
L 342.291429 86.616509 
L 360.886259 114.565479 
L 362.092973 113.816754 
z
" style="fill:#ff7f0e;"/>
   </g>
   <g id="PatchCollection_136">
    <path clip-path="url(#p42bb587d90)" d="M 342.291429 86.616509 
L 339.399436 88.675888 
L 359.729462 115.38923 
L 360.886259 114.565479 
z
" style="fill:#f9800f;"/>
   </g>
   <g id="PatchCollection_137">
    <path clip-path="url(#p42bb587d90)" d="M 339.399436 88.675888 
L 336.64388 90.914543 
L 358.627239 116.284692 
L 359.729462 115.38923 
z
" style="fill:#f28110;"/>
   </g>
   <g id="PatchCollection_138">
    <path clip-path="url(#p42bb587d90)" d="M 336.64388 90.914543 
L 334.035855 93.323458 
L 357.58403 117.248258 
L 358.627239 116.284692 
z
" style="fill:#ec8211;"/>
   </g>
   <g id="PatchCollection_139">
    <path clip-path="url(#p42bb587d90)" d="M 334.035855 93.323458 
L 331.585864 95.892934 
L 356.604033 118.276049 
L 357.58403 117.248258 
z
" style="fill:#e58312;"/>
   </g>
   <g id="PatchCollection_140">
    <path clip-path="url(#p42bb587d90)" d="M 331.585864 95.892934 
L 329.303772 98.612626 
L 355.691196 119.363925 
L 356.604033 118.276049 
z
" style="fill:#df8413;"/>
   </g>
   <g id="PatchCollection_141">
    <path clip-path="url(#p42bb587d90)" d="M 329.303772 98.612626 
L 327.198768 101.47158 
L 354.849195 120.507507 
L 355.691196 119.363925 
z
" style="fill:#d98513;"/>
   </g>
   <g id="PatchCollection_142">
    <path clip-path="url(#p42bb587d90)" d="M 327.198768 101.47158 
L 325.279329 104.458287 
L 354.081419 121.70219 
L 354.849195 120.507507 
z
" style="fill:#d28614;"/>
   </g>
   <g id="PatchCollection_143">
    <path clip-path="url(#p42bb587d90)" d="M 325.279329 104.458287 
L 323.553182 107.560719 
L 353.39096 122.943162 
L 354.081419 121.70219 
z
" style="fill:#cc8715;"/>
   </g>
   <g id="PatchCollection_144">
    <path clip-path="url(#p42bb587d90)" d="M 323.553182 107.560719 
L 322.027279 110.766383 
L 352.780599 124.225428 
L 353.39096 122.943162 
z
" style="fill:#c58816;"/>
   </g>
   <g id="PatchCollection_145">
    <path clip-path="url(#p42bb587d90)" d="M 322.027279 110.766383 
L 320.707764 114.062372 
L 352.252793 125.543824 
L 352.780599 124.225428 
z
" style="fill:#bf8917;"/>
   </g>
   <g id="PatchCollection_146">
    <path clip-path="url(#p42bb587d90)" d="M 320.707764 114.062372 
L 319.59995 117.435414 
L 351.809668 126.893041 
L 352.252793 125.543824 
z
" style="fill:#b98a18;"/>
   </g>
   <g id="PatchCollection_147">
    <path clip-path="url(#p42bb587d90)" d="M 319.59995 117.435414 
L 318.708298 120.871927 
L 351.453007 128.267646 
L 351.809668 126.893041 
z
" style="fill:#b28b19;"/>
   </g>
   <g id="PatchCollection_148">
    <path clip-path="url(#p42bb587d90)" d="M 318.708298 120.871927 
L 318.036399 124.358074 
L 351.184247 129.662104 
L 351.453007 128.267646 
z
" style="fill:#ac8c1a;"/>
   </g>
   <g id="PatchCollection_149">
    <path clip-path="url(#p42bb587d90)" d="M 318.036399 124.358074 
L 317.586957 127.879816 
L 351.00447 131.070801 
L 351.184247 129.662104 
z
" style="fill:#a58d1b;"/>
   </g>
   <g id="PatchCollection_150">
    <path clip-path="url(#p42bb587d90)" d="M 317.586957 127.879816 
L 317.361783 131.422973 
L 350.914401 132.488064 
L 351.00447 131.070801 
z
" style="fill:#9f8e1c;"/>
   </g>
   <g id="PatchCollection_151">
    <path clip-path="url(#p42bb587d90)" d="M 317.361783 131.422973 
L 317.361783 134.973277 
L 350.914401 133.908186 
L 350.914401 132.488064 
z
" style="fill:#998f1d;"/>
   </g>
   <g id="PatchCollection_152">
    <path clip-path="url(#p42bb587d90)" d="M 317.361783 134.973277 
L 317.586957 138.516434 
L 351.00447 135.325449 
L 350.914401 133.908186 
z
" style="fill:#92901d;"/>
   </g>
   <g id="PatchCollection_153">
    <path clip-path="url(#p42bb587d90)" d="M 317.586957 138.516434 
L 318.036399 142.038176 
L 351.184247 136.734146 
L 351.00447 135.325449 
z
" style="fill:#8c911e;"/>
   </g>
   <g id="PatchCollection_154">
    <path clip-path="url(#p42bb587d90)" d="M 318.036399 142.038176 
L 318.708298 145.524323 
L 351.453007 138.128604 
L 351.184247 136.734146 
z
" style="fill:#86921f;"/>
   </g>
   <g id="PatchCollection_155">
    <path clip-path="url(#p42bb587d90)" d="M 318.708298 145.524323 
L 319.59995 148.960836 
L 351.809668 139.503209 
L 351.453007 138.128604 
z
" style="fill:#7f9320;"/>
   </g>
   <g id="PatchCollection_156">
    <path clip-path="url(#p42bb587d90)" d="M 319.59995 148.960836 
L 320.707764 152.333878 
L 352.252793 140.852426 
L 351.809668 139.503209 
z
" style="fill:#799421;"/>
   </g>
   <g id="PatchCollection_157">
    <path clip-path="url(#p42bb587d90)" d="M 320.707764 152.333878 
L 322.027279 155.629867 
L 352.780599 142.170822 
L 352.252793 140.852426 
z
" style="fill:#729522;"/>
   </g>
   <g id="PatchCollection_158">
    <path clip-path="url(#p42bb587d90)" d="M 322.027279 155.629867 
L 323.553182 158.835531 
L 353.39096 143.453088 
L 352.780599 142.170822 
z
" style="fill:#6c9623;"/>
   </g>
   <g id="PatchCollection_159">
    <path clip-path="url(#p42bb587d90)" d="M 323.553182 158.835531 
L 325.279329 161.937963 
L 354.081419 144.69406 
L 353.39096 143.453088 
z
" style="fill:#669724;"/>
   </g>
   <g id="PatchCollection_160">
    <path clip-path="url(#p42bb587d90)" d="M 325.279329 161.937963 
L 327.198768 164.92467 
L 354.849195 145.888743 
L 354.081419 144.69406 
z
" style="fill:#5f9825;"/>
   </g>
   <g id="PatchCollection_161">
    <path clip-path="url(#p42bb587d90)" d="M 327.198768 164.92467 
L 329.303772 167.783624 
L 355.691196 147.032325 
L 354.849195 145.888743 
z
" style="fill:#599926;"/>
   </g>
   <g id="PatchCollection_162">
    <path clip-path="url(#p42bb587d90)" d="M 329.303772 167.783624 
L 331.585864 170.503316 
L 356.604033 148.120201 
L 355.691196 147.032325 
z
" style="fill:#529a27;"/>
   </g>
   <g id="PatchCollection_163">
    <path clip-path="url(#p42bb587d90)" d="M 331.585864 170.503316 
L 334.035855 173.072792 
L 357.58403 149.147992 
L 356.604033 148.120201 
z
" style="fill:#4c9b27;"/>
   </g>
   <g id="PatchCollection_164">
    <path clip-path="url(#p42bb587d90)" d="M 334.035855 173.072792 
L 336.64388 175.481707 
L 358.627239 150.111558 
L 357.58403 149.147992 
z
" style="fill:#469c28;"/>
   </g>
   <g id="PatchCollection_165">
    <path clip-path="url(#p42bb587d90)" d="M 336.64388 175.481707 
L 339.399436 177.720362 
L 359.729462 151.00702 
L 358.627239 150.111558 
z
" style="fill:#3f9d29;"/>
   </g>
   <g id="PatchCollection_166">
    <path clip-path="url(#p42bb587d90)" d="M 339.399436 177.720362 
L 342.291429 179.779741 
L 360.886259 151.830771 
L 359.729462 151.00702 
z
" style="fill:#399e2a;"/>
   </g>
   <g id="PatchCollection_167">
    <path clip-path="url(#p42bb587d90)" d="M 342.291429 179.779741 
L 345.308214 181.651552 
L 362.092973 152.579496 
L 360.886259 151.830771 
z
" style="fill:#329f2b;"/>
   </g>
   <g id="PatchCollection_168">
    <path clip-path="url(#p42bb587d90)" d="M 345.308214 181.651552 
L 348.437642 183.328258 
L 363.344744 153.250178 
L 362.092973 152.579496 
z
" style="fill:#2ca02c;"/>
   </g>
   <g id="PatchCollection_169">
    <path clip-path="url(#p42bb587d90)" d="M 348.437642 183.328258 
L 351.667113 184.803108 
L 364.636533 153.840118 
L 363.344744 153.250178 
z
" style="fill:#2c9f30;"/>
   </g>
   <g id="PatchCollection_170">
    <path clip-path="url(#p42bb587d90)" d="M 351.667113 184.803108 
L 354.983622 186.070163 
L 365.963136 154.34694 
L 364.636533 153.840118 
z
" style="fill:#2b9e34;"/>
   </g>
   <g id="PatchCollection_171">
    <path clip-path="url(#p42bb587d90)" d="M 354.983622 186.070163 
L 358.373816 187.124321 
L 367.319214 154.768603 
L 365.963136 154.34694 
z
" style="fill:#2b9c38;"/>
   </g>
   <g id="PatchCollection_172">
    <path clip-path="url(#p42bb587d90)" d="M 358.373816 187.124321 
L 361.824044 187.961337 
L 368.699305 155.10341 
L 367.319214 154.768603 
z
" style="fill:#2a9b3c;"/>
   </g>
   <g id="PatchCollection_173">
    <path clip-path="url(#p42bb587d90)" d="M 361.824044 187.961337 
L 365.320411 188.577841 
L 370.097852 155.350011 
L 368.699305 155.10341 
z
" style="fill:#2a9a41;"/>
   </g>
   <g id="PatchCollection_174">
    <path clip-path="url(#p42bb587d90)" d="M 365.320411 188.577841 
L 368.848841 188.97135 
L 371.509224 155.507415 
L 370.097852 155.350011 
z
" style="fill:#2a9945;"/>
   </g>
   <g id="PatchCollection_175">
    <path clip-path="url(#p42bb587d90)" d="M 368.848841 188.97135 
L 372.395125 189.14028 
L 372.927737 155.574987 
L 371.509224 155.507415 
z
" style="fill:#299749;"/>
   </g>
   <g id="PatchCollection_176">
    <path clip-path="url(#p42bb587d90)" d="M 372.395125 189.14028 
L 375.944983 189.083951 
L 374.347681 155.552456 
L 372.927737 155.574987 
z
" style="fill:#29964d;"/>
   </g>
   <g id="PatchCollection_177">
    <path clip-path="url(#p42bb587d90)" d="M 375.944983 189.083951 
L 379.484121 188.80259 
L 375.763336 155.439911 
L 374.347681 155.552456 
z
" style="fill:#289551;"/>
   </g>
   <g id="PatchCollection_178">
    <path clip-path="url(#p42bb587d90)" d="M 379.484121 188.80259 
L 382.998289 188.297329 
L 377.169003 155.237807 
L 375.763336 155.439911 
z
" style="fill:#289455;"/>
   </g>
   <g id="PatchCollection_179">
    <path clip-path="url(#p42bb587d90)" d="M 382.998289 188.297329 
L 386.473336 187.570203 
L 378.559022 154.946956 
L 377.169003 155.237807 
z
" style="fill:#289259;"/>
   </g>
   <g id="PatchCollection_180">
    <path clip-path="url(#p42bb587d90)" d="M 386.473336 187.570203 
L 389.895269 186.624139 
L 379.927795 154.568531 
L 378.559022 154.946956 
z
" style="fill:#27915d;"/>
   </g>
   <g id="PatchCollection_181">
    <path clip-path="url(#p42bb587d90)" d="M 389.895269 186.624139 
L 393.25031 185.462948 
L 381.269812 154.104054 
L 379.927795 154.568531 
z
" style="fill:#279062;"/>
   </g>
   <g id="PatchCollection_182">
    <path clip-path="url(#p42bb587d90)" d="M 393.25031 185.462948 
L 396.524949 184.091305 
L 382.579667 153.555397 
L 381.269812 154.104054 
z
" style="fill:#268f66;"/>
   </g>
   <g id="PatchCollection_183">
    <path clip-path="url(#p42bb587d90)" d="M 396.524949 184.091305 
L 399.706 182.514734 
L 383.852088 152.924768 
L 382.579667 153.555397 
z
" style="fill:#268d6a;"/>
   </g>
   <g id="PatchCollection_184">
    <path clip-path="url(#p42bb587d90)" d="M 399.706 182.514734 
L 402.780655 180.739581 
L 385.081949 152.214707 
L 383.852088 152.924768 
z
" style="fill:#268c6e;"/>
   </g>
   <g id="PatchCollection_185">
    <path clip-path="url(#p42bb587d90)" d="M 402.780655 180.739581 
L 405.736531 178.772996 
L 386.2643 151.428073 
L 385.081949 152.214707 
z
" style="fill:#258b72;"/>
   </g>
   <g id="PatchCollection_186">
    <path clip-path="url(#p42bb587d90)" d="M 405.736531 178.772996 
L 408.561728 176.622897 
L 387.394379 150.568034 
L 386.2643 151.428073 
z
" style="fill:#258a76;"/>
   </g>
   <g id="PatchCollection_187">
    <path clip-path="url(#p42bb587d90)" d="M 408.561728 176.622897 
L 411.24487 174.297942 
L 388.467635 149.638052 
L 387.394379 150.568034 
z
" style="fill:#25887a;"/>
   </g>
   <g id="PatchCollection_188">
    <path clip-path="url(#p42bb587d90)" d="M 411.24487 174.297942 
L 413.775151 171.807492 
L 389.479748 148.641872 
L 388.467635 149.638052 
z
" style="fill:#24877e;"/>
   </g>
   <g id="PatchCollection_189">
    <path clip-path="url(#p42bb587d90)" d="M 413.775151 171.807492 
L 416.142385 169.161576 
L 390.426641 147.583505 
L 389.479748 148.641872 
z
" style="fill:#248683;"/>
   </g>
   <g id="PatchCollection_190">
    <path clip-path="url(#p42bb587d90)" d="M 416.142385 169.161576 
L 418.337037 166.370848 
L 391.304502 146.467214 
L 390.426641 147.583505 
z
" style="fill:#238587;"/>
   </g>
   <g id="PatchCollection_191">
    <path clip-path="url(#p42bb587d90)" d="M 418.337037 166.370848 
L 420.350273 163.446545 
L 392.109797 145.297493 
L 391.304502 146.467214 
z
" style="fill:#23838b;"/>
   </g>
   <g id="PatchCollection_192">
    <path clip-path="url(#p42bb587d90)" d="M 420.350273 163.446545 
L 422.173984 160.400442 
L 392.839281 144.079052 
L 392.109797 145.297493 
z
" style="fill:#23828f;"/>
   </g>
   <g id="PatchCollection_193">
    <path clip-path="url(#p42bb587d90)" d="M 422.173984 160.400442 
L 423.800828 157.244806 
L 393.490019 142.816797 
L 392.839281 144.079052 
z
" style="fill:#228193;"/>
   </g>
   <g id="PatchCollection_194">
    <path clip-path="url(#p42bb587d90)" d="M 423.800828 157.244806 
L 425.224254 153.992341 
L 394.059389 141.515812 
L 393.490019 142.816797 
z
" style="fill:#228097;"/>
   </g>
   <g id="PatchCollection_195">
    <path clip-path="url(#p42bb587d90)" d="M 425.224254 153.992341 
L 426.438529 150.656146 
L 394.545099 140.181333 
L 394.059389 141.515812 
z
" style="fill:#217e9b;"/>
   </g>
   <g id="PatchCollection_196">
    <path clip-path="url(#p42bb587d90)" d="M 426.438529 150.656146 
L 427.438766 147.249653 
L 394.945194 138.818736 
L 394.545099 140.181333 
z
" style="fill:#217d9f;"/>
   </g>
   <g id="PatchCollection_197">
    <path clip-path="url(#p42bb587d90)" d="M 427.438766 147.249653 
L 428.220935 143.78658 
L 395.258062 137.433507 
L 394.945194 138.818736 
z
" style="fill:#217ca4;"/>
   </g>
   <g id="PatchCollection_198">
    <path clip-path="url(#p42bb587d90)" d="M 428.220935 143.78658 
L 428.781889 140.280871 
L 395.482443 136.031223 
L 395.258062 137.433507 
z
" style="fill:#207ba8;"/>
   </g>
   <g id="PatchCollection_199">
    <path clip-path="url(#p42bb587d90)" d="M 428.781889 140.280871 
L 429.119367 136.746642 
L 395.617434 134.617532 
L 395.482443 136.031223 
z
" style="fill:#2079ac;"/>
   </g>
   <g id="PatchCollection_200">
    <path clip-path="url(#p42bb587d90)" d="M 429.119367 136.746642 
L 429.23201 133.198125 
L 395.662492 133.198125 
L 395.617434 134.617532 
z
" style="fill:#1f78b0;"/>
   </g>
   <g id="line2d_7">
    <path clip-path="url(#p42bb587d90)" d="M 429.23201 133.198125 
L 429.119367 129.649608 
L 428.781889 126.115379 
L 428.220935 122.60967 
L 427.438766 119.146597 
L 426.438529 115.740104 
L 425.224254 112.403909 
L 423.800828 109.151444 
L 422.173984 105.995808 
L 420.350273 102.949705 
L 418.337037 100.025402 
L 416.142385 97.234674 
L 413.775151 94.588758 
L 411.24487 92.098308 
L 408.561728 89.773353 
L 405.736531 87.623254 
L 402.780655 85.656669 
L 399.706 83.881516 
L 396.524949 82.304945 
L 393.25031 80.933302 
L 389.895269 79.772111 
L 386.473336 78.826047 
L 382.998289 78.098921 
L 379.484121 77.59366 
L 375.944983 77.312299 
L 372.395125 77.25597 
L 368.848841 77.4249 
L 365.320411 77.818409 
L 361.824044 78.434913 
L 358.373816 79.271929 
L 354.983622 80.326087 
L 351.667113 81.593142 
L 348.437642 83.067992 
L 345.308214 84.744698 
L 342.291429 86.616509 
L 339.399436 88.675888 
L 336.64388 90.914543 
L 334.035855 93.323458 
L 331.585864 95.892934 
L 329.303772 98.612626 
L 327.198768 101.47158 
L 325.279329 104.458287 
L 323.553182 107.560719 
L 322.027279 110.766383 
L 320.707764 114.062372 
L 319.59995 117.435414 
L 318.708298 120.871927 
L 318.036399 124.358074 
L 317.586957 127.879816 
L 317.361783 131.422973 
L 317.361783 134.973277 
L 317.586957 138.516434 
L 318.036399 142.038176 
L 318.708298 145.524323 
L 319.59995 148.960836 
L 320.707764 152.333878 
L 322.027279 155.629867 
L 323.553182 158.835531 
L 325.279329 161.937963 
L 327.198768 164.92467 
L 329.303772 167.783624 
L 331.585864 170.503316 
L 334.035855 173.072792 
L 336.64388 175.481707 
L 339.399436 177.720362 
L 342.291429 179.779741 
L 345.308214 181.651552 
L 348.437642 183.328258 
L 351.667113 184.803108 
L 354.983622 186.070163 
L 358.373816 187.124321 
L 361.824044 187.961337 
L 365.320411 188.577841 
L 368.848841 188.97135 
L 372.395125 189.14028 
L 375.944983 189.083951 
L 379.484121 188.80259 
L 382.998289 188.297329 
L 386.473336 187.570203 
L 389.895269 186.624139 
L 393.25031 185.462948 
L 396.524949 184.091305 
L 399.706 182.514734 
L 402.780655 180.739581 
L 405.736531 178.772996 
L 408.561728 176.622897 
L 411.24487 174.297942 
L 413.775151 171.807492 
L 416.142385 169.161576 
L 418.337037 166.370848 
L 420.350273 163.446545 
L 422.173984 160.400442 
L 423.800828 157.244806 
L 425.224254 153.992341 
L 426.438529 150.656146 
L 427.438766 147.249653 
L 428.220935 143.78658 
L 428.781889 140.280871 
L 429.119367 136.746642 
L 429.23201 133.198125 
" style="fill:none;stroke:#000000;stroke-linecap:square;"/>
   </g>
   <g id="line2d_8">
    <path clip-path="url(#p42bb587d90)" d="M 395.662492 133.198125 
L 395.617434 131.778718 
L 395.482443 130.365027 
L 395.258062 128.962743 
L 394.945194 127.577514 
L 394.545099 126.214917 
L 394.059389 124.880438 
L 393.490019 123.579453 
L 392.839281 122.317198 
L 392.109797 121.098757 
L 391.304502 119.929036 
L 390.426641 118.812745 
L 389.479748 117.754378 
L 388.467635 116.758198 
L 387.394379 115.828216 
L 386.2643 114.968177 
L 385.081949 114.181543 
L 383.852088 113.471482 
L 382.579667 112.840853 
L 381.269812 112.292196 
L 379.927795 111.827719 
L 378.559022 111.449294 
L 377.169003 111.158443 
L 375.763336 110.956339 
L 374.347681 110.843794 
L 372.927737 110.821263 
L 371.509224 110.888835 
L 370.097852 111.046239 
L 368.699305 111.29284 
L 367.319214 111.627647 
L 365.963136 112.04931 
L 364.636533 112.556132 
L 363.344744 113.146072 
L 362.092973 113.816754 
L 360.886259 114.565479 
L 359.729462 115.38923 
L 358.627239 116.284692 
L 357.58403 117.248258 
L 356.604033 118.276049 
L 355.691196 119.363925 
L 354.849195 120.507507 
L 354.081419 121.70219 
L 353.39096 122.943162 
L 352.780599 124.225428 
L 352.252793 125.543824 
L 351.809668 126.893041 
L 351.453007 128.267646 
L 351.184247 129.662104 
L 351.00447 131.070801 
L 350.914401 132.488064 
L 350.914401 133.908186 
L 351.00447 135.325449 
L 351.184247 136.734146 
L 351.453007 138.128604 
L 351.809668 139.503209 
L 352.252793 140.852426 
L 352.780599 142.170822 
L 353.39096 143.453088 
L 354.081419 144.69406 
L 354.849195 145.888743 
L 355.691196 147.032325 
L 356.604033 148.120201 
L 357.58403 149.147992 
L 358.627239 150.111558 
L 359.729462 151.00702 
L 360.886259 151.830771 
L 362.092973 152.579496 
L 363.344744 153.250178 
L 364.636533 153.840118 
L 365.963136 154.34694 
L 367.319214 154.768603 
L 368.699305 155.10341 
L 370.097852 155.350011 
L 371.509224 155.507415 
L 372.927737 155.574987 
L 374.347681 155.552456 
L 375.763336 155.439911 
L 377.169003 155.237807 
L 378.559022 154.946956 
L 379.927795 154.568531 
L 381.269812 154.104054 
L 382.579667 153.555397 
L 383.852088 152.924768 
L 385.081949 152.214707 
L 386.2643 151.428073 
L 387.394379 150.568034 
L 388.467635 149.638052 
L 389.479748 148.641872 
L 390.426641 147.583505 
L 391.304502 146.467214 
L 392.109797 145.297493 
L 392.839281 144.079052 
L 393.490019 142.816797 
L 394.059389 141.515812 
L 394.545099 140.181333 
L 394.945194 138.818736 
L 395.258062 137.433507 
L 395.482443 136.031223 
L 395.617434 134.617532 
L 395.662492 133.198125 
" style="fill:none;stroke:#000000;stroke-linecap:square;"/>
   </g>
   <g id="line2d_9">
    <path clip-path="url(#p42bb587d90)" d="M 429.23201 133.198125 
L 434.82693 133.198125 
" style="fill:none;stroke:#000000;stroke-linecap:square;"/>
   </g>
   <g id="line2d_10">
    <path clip-path="url(#p42bb587d90)" d="M 373.282812 77.248927 
L 373.282812 71.654007 
" style="fill:none;stroke:#000000;stroke-linecap:square;"/>
   </g>
   <g id="line2d_11">
    <path clip-path="url(#p42bb587d90)" d="M 373.282812 189.147323 
L 373.282812 194.742243 
" style="fill:none;stroke:#000000;stroke-linecap:square;"/>
   </g>
   <g id="line2d_12">
    <path clip-path="url(#p42bb587d90)" d="M 317.333615 133.198125 
L 311.738695 133.198125 
" style="fill:none;stroke:#000000;stroke-linecap:square;"/>
   </g>
   <g id="text_6">
    <!-- $0$ -->
    <g transform="translate(442.81677 135.9575)scale(0.1 -0.1)">
     <use transform="translate(0 0.78125)" xlink:href="#DejaVuSans-30"/>
    </g>
   </g>
   <g id="text_7">
    <!-- $\pi/2$ -->
    <g transform="translate(365.382812 63.223543)scale(0.1 -0.1)">
     <use transform="translate(0 0.78125)" xlink:href="#DejaVuSans-Oblique-3c0"/>
     <use transform="translate(60.205078 0.78125)" xlink:href="#DejaVuSans-2f"/>
     <use transform="translate(93.849609 0.78125)" xlink:href="#DejaVuSans-32"/>
    </g>
   </g>
   <g id="text_8">
    <!-- $-\pi/2$ -->
    <g transform="translate(361.182812 208.691457)scale(0.1 -0.1)">
     <use transform="translate(0 0.78125)" xlink:href="#DejaVuSans-2212"/>
     <use transform="translate(83.789062 0.78125)" xlink:href="#DejaVuSans-Oblique-3c0"/>
     <use transform="translate(143.994141 0.78125)" xlink:href="#DejaVuSans-2f"/>
     <use transform="translate(177.638672 0.78125)" xlink:href="#DejaVuSans-32"/>
    </g>
   </g>
   <g id="text_9">
    <!-- $\pi$ -->
    <g transform="translate(297.498855 135.9575)scale(0.1 -0.1)">
     <use transform="translate(0 0.3125)" xlink:href="#DejaVuSans-Oblique-3c0"/>
    </g>
   </g>
   <g id="text_10">
    <!-- 3 colors -->
    <defs>
     <path d="M 40.578125 39.3125 
Q 47.65625 37.796875 51.625 33 
Q 55.609375 28.21875 55.609375 21.1875 
Q 55.609375 10.40625 48.1875 4.484375 
Q 40.765625 -1.421875 27.09375 -1.421875 
Q 22.515625 -1.421875 17.65625 -0.515625 
Q 12.796875 0.390625 7.625 2.203125 
L 7.625 11.71875 
Q 11.71875 9.328125 16.59375 8.109375 
Q 21.484375 6.890625 26.8125 6.890625 
Q 36.078125 6.890625 40.9375 10.546875 
Q 45.796875 14.203125 45.796875 21.1875 
Q 45.796875 27.640625 41.28125 31.265625 
Q 36.765625 34.90625 28.71875 34.90625 
L 20.21875 34.90625 
L 20.21875 43.015625 
L 29.109375 43.015625 
Q 36.375 43.015625 40.234375 45.921875 
Q 44.09375 48.828125 44.09375 54.296875 
Q 44.09375 59.90625 40.109375 62.90625 
Q 36.140625 65.921875 28.71875 65.921875 
Q 24.65625 65.921875 20.015625 65.03125 
Q 15.375 64.15625 9.8125 62.3125 
L 9.8125 71.09375 
Q 15.4375 72.65625 20.34375 73.4375 
Q 25.25 74.21875 29.59375 74.21875 
Q 40.828125 74.21875 47.359375 69.109375 
Q 53.90625 64.015625 53.90625 55.328125 
Q 53.90625 49.265625 50.4375 45.09375 
Q 46.96875 40.921875 40.578125 39.3125 
z
" id="DejaVuSans-33"/>
    </defs>
    <g transform="translate(349.657813 16.318125)scale(0.12 -0.12)">
     <use xlink:href="#DejaVuSans-33"/>
     <use x="63.623047" xlink:href="#DejaVuSans-20"/>
     <use x="95.410156" xlink:href="#DejaVuSans-63"/>
     <use x="150.390625" xlink:href="#DejaVuSans-6f"/>
     <use x="211.572266" xlink:href="#DejaVuSans-6c"/>
     <use x="239.355469" xlink:href="#DejaVuSans-6f"/>
     <use x="300.537109" xlink:href="#DejaVuSans-72"/>
     <use x="341.650391" xlink:href="#DejaVuSans-73"/>
    </g>
   </g>
  </g>
  <g id="axes_3">
   <g id="PatchCollection_201">
    <path clip-path="url(#pbd1fadac38)" d="M 609.612224 222.716842 
C 633.352865 222.716842 656.124347 213.284585 672.911516 196.497417 
C 689.698684 179.710248 699.130941 156.938766 699.130941 133.198125 
C 699.130941 109.457484 689.698684 86.686002 672.911516 69.898833 
C 656.124347 53.111665 633.352865 43.679408 609.612224 43.679408 
C 585.871583 43.679408 563.100101 53.111665 546.312933 69.898833 
C 529.525764 86.686002 520.093508 109.457484 520.093508 133.198125 
C 520.093508 156.938766 529.525764 179.710248 546.312933 196.497417 
C 563.100101 213.284585 585.871583 222.716842 609.612224 222.716842 
z
" style="fill:#ffffff;fill-opacity:0.5;"/>
   </g>
   <g id="PatchCollection_202">
    <path clip-path="url(#pbd1fadac38)" d="M 665.561422 133.198125 
L 665.448778 129.649608 
L 631.946846 131.778718 
L 631.991903 133.198125 
z
" style="fill:#1f77b4;"/>
   </g>
   <g id="PatchCollection_203">
    <path clip-path="url(#pbd1fadac38)" d="M 665.448778 129.649608 
L 665.1113 126.115379 
L 631.811855 130.365027 
L 631.946846 131.778718 
z
" style="fill:#2877ad;"/>
   </g>
   <g id="PatchCollection_204">
    <path clip-path="url(#pbd1fadac38)" d="M 665.1113 126.115379 
L 664.550347 122.60967 
L 631.587473 128.962743 
L 631.811855 130.365027 
z
" style="fill:#3178a7;"/>
   </g>
   <g id="PatchCollection_205">
    <path clip-path="url(#pbd1fadac38)" d="M 664.550347 122.60967 
L 663.768178 119.146597 
L 631.274606 127.577514 
L 631.587473 128.962743 
z
" style="fill:#3a78a0;"/>
   </g>
   <g id="PatchCollection_206">
    <path clip-path="url(#pbd1fadac38)" d="M 663.768178 119.146597 
L 662.767941 115.740104 
L 630.874511 126.214917 
L 631.274606 127.577514 
z
" style="fill:#437899;"/>
   </g>
   <g id="PatchCollection_207">
    <path clip-path="url(#pbd1fadac38)" d="M 662.767941 115.740104 
L 661.553665 112.403909 
L 630.388801 124.880438 
L 630.874511 126.214917 
z
" style="fill:#4c7992;"/>
   </g>
   <g id="PatchCollection_208">
    <path clip-path="url(#pbd1fadac38)" d="M 661.553665 112.403909 
L 660.13024 109.151444 
L 629.81943 123.579453 
L 630.388801 124.880438 
z
" style="fill:#55798c;"/>
   </g>
   <g id="PatchCollection_209">
    <path clip-path="url(#pbd1fadac38)" d="M 660.13024 109.151444 
L 658.503396 105.995808 
L 629.168693 122.317198 
L 629.81943 123.579453 
z
" style="fill:#5e7985;"/>
   </g>
   <g id="PatchCollection_210">
    <path clip-path="url(#pbd1fadac38)" d="M 658.503396 105.995808 
L 656.679685 102.949705 
L 628.439208 121.098757 
L 629.168693 122.317198 
z
" style="fill:#677a7e;"/>
   </g>
   <g id="PatchCollection_211">
    <path clip-path="url(#pbd1fadac38)" d="M 656.679685 102.949705 
L 654.666449 100.025402 
L 627.633914 119.929036 
L 628.439208 121.098757 
z
" style="fill:#707a78;"/>
   </g>
   <g id="PatchCollection_212">
    <path clip-path="url(#pbd1fadac38)" d="M 654.666449 100.025402 
L 652.471796 97.234674 
L 626.756053 118.812745 
L 627.633914 119.929036 
z
" style="fill:#7a7a71;"/>
   </g>
   <g id="PatchCollection_213">
    <path clip-path="url(#pbd1fadac38)" d="M 652.471796 97.234674 
L 650.104563 94.588758 
L 625.80916 117.754378 
L 626.756053 118.812745 
z
" style="fill:#837b6a;"/>
   </g>
   <g id="PatchCollection_214">
    <path clip-path="url(#pbd1fadac38)" d="M 650.104563 94.588758 
L 647.574282 92.098308 
L 624.797047 116.758198 
L 625.80916 117.754378 
z
" style="fill:#8c7b64;"/>
   </g>
   <g id="PatchCollection_215">
    <path clip-path="url(#pbd1fadac38)" d="M 647.574282 92.098308 
L 644.89114 89.773353 
L 623.723791 115.828216 
L 624.797047 116.758198 
z
" style="fill:#957b5d;"/>
   </g>
   <g id="PatchCollection_216">
    <path clip-path="url(#pbd1fadac38)" d="M 644.89114 89.773353 
L 642.065943 87.623254 
L 622.593712 114.968177 
L 623.723791 115.828216 
z
" style="fill:#9e7c56;"/>
   </g>
   <g id="PatchCollection_217">
    <path clip-path="url(#pbd1fadac38)" d="M 642.065943 87.623254 
L 639.110066 85.656669 
L 621.411361 114.181543 
L 622.593712 114.968177 
z
" style="fill:#a77c4f;"/>
   </g>
   <g id="PatchCollection_218">
    <path clip-path="url(#pbd1fadac38)" d="M 639.110066 85.656669 
L 636.035412 83.881516 
L 620.181499 113.471482 
L 621.411361 114.181543 
z
" style="fill:#b07c49;"/>
   </g>
   <g id="PatchCollection_219">
    <path clip-path="url(#pbd1fadac38)" d="M 636.035412 83.881516 
L 632.854361 82.304945 
L 618.909079 112.840853 
L 620.181499 113.471482 
z
" style="fill:#b97c42;"/>
   </g>
   <g id="PatchCollection_220">
    <path clip-path="url(#pbd1fadac38)" d="M 632.854361 82.304945 
L 629.579722 80.933302 
L 617.599223 112.292196 
L 618.909079 112.840853 
z
" style="fill:#c27d3b;"/>
   </g>
   <g id="PatchCollection_221">
    <path clip-path="url(#pbd1fadac38)" d="M 629.579722 80.933302 
L 626.224681 79.772111 
L 616.257207 111.827719 
L 617.599223 112.292196 
z
" style="fill:#cb7d35;"/>
   </g>
   <g id="PatchCollection_222">
    <path clip-path="url(#pbd1fadac38)" d="M 626.224681 79.772111 
L 622.802748 78.826047 
L 614.888434 111.449294 
L 616.257207 111.827719 
z
" style="fill:#d47d2e;"/>
   </g>
   <g id="PatchCollection_223">
    <path clip-path="url(#pbd1fadac38)" d="M 622.802748 78.826047 
L 619.327701 78.098921 
L 613.498415 111.158443 
L 614.888434 111.449294 
z
" style="fill:#dd7e27;"/>
   </g>
   <g id="PatchCollection_224">
    <path clip-path="url(#pbd1fadac38)" d="M 619.327701 78.098921 
L 615.813533 77.59366 
L 612.092748 110.956339 
L 613.498415 111.158443 
z
" style="fill:#e67e20;"/>
   </g>
   <g id="PatchCollection_225">
    <path clip-path="url(#pbd1fadac38)" d="M 615.813533 77.59366 
L 612.274394 77.312299 
L 610.677092 110.843794 
L 612.092748 110.956339 
z
" style="fill:#ef7e1a;"/>
   </g>
   <g id="PatchCollection_226">
    <path clip-path="url(#pbd1fadac38)" d="M 612.274394 77.312299 
L 608.724536 77.25597 
L 609.257149 110.821263 
L 610.677092 110.843794 
z
" style="fill:#f87f13;"/>
   </g>
   <g id="PatchCollection_227">
    <path clip-path="url(#pbd1fadac38)" d="M 608.724536 77.25597 
L 605.178253 77.4249 
L 607.838636 110.888835 
L 609.257149 110.821263 
z
" style="fill:#fd7f0e;"/>
   </g>
   <g id="PatchCollection_228">
    <path clip-path="url(#pbd1fadac38)" d="M 605.178253 77.4249 
L 601.649823 77.818409 
L 606.427264 111.046239 
L 607.838636 110.888835 
z
" style="fill:#f48110;"/>
   </g>
   <g id="PatchCollection_229">
    <path clip-path="url(#pbd1fadac38)" d="M 601.649823 77.818409 
L 598.153455 78.434913 
L 605.028717 111.29284 
L 606.427264 111.046239 
z
" style="fill:#ec8211;"/>
   </g>
   <g id="PatchCollection_230">
    <path clip-path="url(#pbd1fadac38)" d="M 598.153455 78.434913 
L 594.703228 79.271929 
L 603.648626 111.627647 
L 605.028717 111.29284 
z
" style="fill:#e38312;"/>
   </g>
   <g id="PatchCollection_231">
    <path clip-path="url(#pbd1fadac38)" d="M 594.703228 79.271929 
L 591.313034 80.326087 
L 602.292548 112.04931 
L 603.648626 111.627647 
z
" style="fill:#db8513;"/>
   </g>
   <g id="PatchCollection_232">
    <path clip-path="url(#pbd1fadac38)" d="M 591.313034 80.326087 
L 587.996524 81.593142 
L 600.965944 112.556132 
L 602.292548 112.04931 
z
" style="fill:#d28614;"/>
   </g>
   <g id="PatchCollection_233">
    <path clip-path="url(#pbd1fadac38)" d="M 587.996524 81.593142 
L 584.767053 83.067992 
L 599.674156 113.146072 
L 600.965944 112.556132 
z
" style="fill:#ca8716;"/>
   </g>
   <g id="PatchCollection_234">
    <path clip-path="url(#pbd1fadac38)" d="M 584.767053 83.067992 
L 581.637625 84.744698 
L 598.422385 113.816754 
L 599.674156 113.146072 
z
" style="fill:#c18917;"/>
   </g>
   <g id="PatchCollection_235">
    <path clip-path="url(#pbd1fadac38)" d="M 581.637625 84.744698 
L 578.620841 86.616509 
L 597.215671 114.565479 
L 598.422385 113.816754 
z
" style="fill:#b98a18;"/>
   </g>
   <g id="PatchCollection_236">
    <path clip-path="url(#pbd1fadac38)" d="M 578.620841 86.616509 
L 575.728848 88.675888 
L 596.058874 115.38923 
L 597.215671 114.565479 
z
" style="fill:#b08b19;"/>
   </g>
   <g id="PatchCollection_237">
    <path clip-path="url(#pbd1fadac38)" d="M 575.728848 88.675888 
L 572.973291 90.914543 
L 594.956651 116.284692 
L 596.058874 115.38923 
z
" style="fill:#a88d1a;"/>
   </g>
   <g id="PatchCollection_238">
    <path clip-path="url(#pbd1fadac38)" d="M 572.973291 90.914543 
L 570.365267 93.323458 
L 593.913441 117.248258 
L 594.956651 116.284692 
z
" style="fill:#9f8e1c;"/>
   </g>
   <g id="PatchCollection_239">
    <path clip-path="url(#pbd1fadac38)" d="M 570.365267 93.323458 
L 567.915276 95.892934 
L 592.933445 118.276049 
L 593.913441 117.248258 
z
" style="fill:#978f1d;"/>
   </g>
   <g id="PatchCollection_240">
    <path clip-path="url(#pbd1fadac38)" d="M 567.915276 95.892934 
L 565.633184 98.612626 
L 592.020608 119.363925 
L 592.933445 118.276049 
z
" style="fill:#8e911e;"/>
   </g>
   <g id="PatchCollection_241">
    <path clip-path="url(#pbd1fadac38)" d="M 565.633184 98.612626 
L 563.52818 101.47158 
L 591.178607 120.507507 
L 592.020608 119.363925 
z
" style="fill:#86921f;"/>
   </g>
   <g id="PatchCollection_242">
    <path clip-path="url(#pbd1fadac38)" d="M 563.52818 101.47158 
L 561.608741 104.458287 
L 590.410831 121.70219 
L 591.178607 120.507507 
z
" style="fill:#7d9320;"/>
   </g>
   <g id="PatchCollection_243">
    <path clip-path="url(#pbd1fadac38)" d="M 561.608741 104.458287 
L 559.882594 107.560719 
L 589.720372 122.943162 
L 590.410831 121.70219 
z
" style="fill:#749522;"/>
   </g>
   <g id="PatchCollection_244">
    <path clip-path="url(#pbd1fadac38)" d="M 559.882594 107.560719 
L 558.356691 110.766383 
L 589.110011 124.225428 
L 589.720372 122.943162 
z
" style="fill:#6c9623;"/>
   </g>
   <g id="PatchCollection_245">
    <path clip-path="url(#pbd1fadac38)" d="M 558.356691 110.766383 
L 557.037176 114.062372 
L 588.582205 125.543824 
L 589.110011 124.225428 
z
" style="fill:#639724;"/>
   </g>
   <g id="PatchCollection_246">
    <path clip-path="url(#pbd1fadac38)" d="M 557.037176 114.062372 
L 555.929362 117.435414 
L 588.139079 126.893041 
L 588.582205 125.543824 
z
" style="fill:#5b9925;"/>
   </g>
   <g id="PatchCollection_247">
    <path clip-path="url(#pbd1fadac38)" d="M 555.929362 117.435414 
L 555.03771 120.871927 
L 587.782419 128.267646 
L 588.139079 126.893041 
z
" style="fill:#529a27;"/>
   </g>
   <g id="PatchCollection_248">
    <path clip-path="url(#pbd1fadac38)" d="M 555.03771 120.871927 
L 554.365811 124.358074 
L 587.513659 129.662104 
L 587.782419 128.267646 
z
" style="fill:#4a9b28;"/>
   </g>
   <g id="PatchCollection_249">
    <path clip-path="url(#pbd1fadac38)" d="M 554.365811 124.358074 
L 553.916369 127.879816 
L 587.333882 131.070801 
L 587.513659 129.662104 
z
" style="fill:#419d29;"/>
   </g>
   <g id="PatchCollection_250">
    <path clip-path="url(#pbd1fadac38)" d="M 553.916369 127.879816 
L 553.691194 131.422973 
L 587.243812 132.488064 
L 587.333882 131.070801 
z
" style="fill:#399e2a;"/>
   </g>
   <g id="PatchCollection_251">
    <path clip-path="url(#pbd1fadac38)" d="M 553.691194 131.422973 
L 553.691194 134.973277 
L 587.243812 133.908186 
L 587.243812 132.488064 
z
" style="fill:#309f2b;"/>
   </g>
   <g id="PatchCollection_252">
    <path clip-path="url(#pbd1fadac38)" d="M 553.691194 134.973277 
L 553.916369 138.516434 
L 587.333882 135.325449 
L 587.243812 133.908186 
z
" style="fill:#2e9f2f;"/>
   </g>
   <g id="PatchCollection_253">
    <path clip-path="url(#pbd1fadac38)" d="M 553.916369 138.516434 
L 554.365811 142.038176 
L 587.513659 136.734146 
L 587.333882 135.325449 
z
" style="fill:#329d35;"/>
   </g>
   <g id="PatchCollection_254">
    <path clip-path="url(#pbd1fadac38)" d="M 554.365811 142.038176 
L 555.03771 145.524323 
L 587.782419 138.128604 
L 587.513659 136.734146 
z
" style="fill:#379a3b;"/>
   </g>
   <g id="PatchCollection_255">
    <path clip-path="url(#pbd1fadac38)" d="M 555.03771 145.524323 
L 555.929362 148.960836 
L 588.139079 139.503209 
L 587.782419 138.128604 
z
" style="fill:#3b9841;"/>
   </g>
   <g id="PatchCollection_256">
    <path clip-path="url(#pbd1fadac38)" d="M 555.929362 148.960836 
L 557.037176 152.333878 
L 588.582205 140.852426 
L 588.139079 139.503209 
z
" style="fill:#3f9646;"/>
   </g>
   <g id="PatchCollection_257">
    <path clip-path="url(#pbd1fadac38)" d="M 557.037176 152.333878 
L 558.356691 155.629867 
L 589.110011 142.170822 
L 588.582205 140.852426 
z
" style="fill:#43934c;"/>
   </g>
   <g id="PatchCollection_258">
    <path clip-path="url(#pbd1fadac38)" d="M 558.356691 155.629867 
L 559.882594 158.835531 
L 589.720372 143.453088 
L 589.110011 142.170822 
z
" style="fill:#479152;"/>
   </g>
   <g id="PatchCollection_259">
    <path clip-path="url(#pbd1fadac38)" d="M 559.882594 158.835531 
L 561.608741 161.937963 
L 590.410831 144.69406 
L 589.720372 143.453088 
z
" style="fill:#4c8f58;"/>
   </g>
   <g id="PatchCollection_260">
    <path clip-path="url(#pbd1fadac38)" d="M 561.608741 161.937963 
L 563.52818 164.92467 
L 591.178607 145.888743 
L 590.410831 144.69406 
z
" style="fill:#508c5e;"/>
   </g>
   <g id="PatchCollection_261">
    <path clip-path="url(#pbd1fadac38)" d="M 563.52818 164.92467 
L 565.633184 167.783624 
L 592.020608 147.032325 
L 591.178607 145.888743 
z
" style="fill:#548a64;"/>
   </g>
   <g id="PatchCollection_262">
    <path clip-path="url(#pbd1fadac38)" d="M 565.633184 167.783624 
L 567.915276 170.503316 
L 592.933445 148.120201 
L 592.020608 147.032325 
z
" style="fill:#58886a;"/>
   </g>
   <g id="PatchCollection_263">
    <path clip-path="url(#pbd1fadac38)" d="M 567.915276 170.503316 
L 570.365267 173.072792 
L 593.913441 149.147992 
L 592.933445 148.120201 
z
" style="fill:#5c866f;"/>
   </g>
   <g id="PatchCollection_264">
    <path clip-path="url(#pbd1fadac38)" d="M 570.365267 173.072792 
L 572.973291 175.481707 
L 594.956651 150.111558 
L 593.913441 149.147992 
z
" style="fill:#618375;"/>
   </g>
   <g id="PatchCollection_265">
    <path clip-path="url(#pbd1fadac38)" d="M 572.973291 175.481707 
L 575.728848 177.720362 
L 596.058874 151.00702 
L 594.956651 150.111558 
z
" style="fill:#65817b;"/>
   </g>
   <g id="PatchCollection_266">
    <path clip-path="url(#pbd1fadac38)" d="M 575.728848 177.720362 
L 578.620841 179.779741 
L 597.215671 151.830771 
L 596.058874 151.00702 
z
" style="fill:#697f81;"/>
   </g>
   <g id="PatchCollection_267">
    <path clip-path="url(#pbd1fadac38)" d="M 578.620841 179.779741 
L 581.637625 181.651552 
L 598.422385 152.579496 
L 597.215671 151.830771 
z
" style="fill:#6d7c87;"/>
   </g>
   <g id="PatchCollection_268">
    <path clip-path="url(#pbd1fadac38)" d="M 581.637625 181.651552 
L 584.767053 183.328258 
L 599.674156 153.250178 
L 598.422385 152.579496 
z
" style="fill:#717a8d;"/>
   </g>
   <g id="PatchCollection_269">
    <path clip-path="url(#pbd1fadac38)" d="M 584.767053 183.328258 
L 587.996524 184.803108 
L 600.965944 153.840118 
L 599.674156 153.250178 
z
" style="fill:#767893;"/>
   </g>
   <g id="PatchCollection_270">
    <path clip-path="url(#pbd1fadac38)" d="M 587.996524 184.803108 
L 591.313034 186.070163 
L 602.292548 154.34694 
L 600.965944 153.840118 
z
" style="fill:#7a7598;"/>
   </g>
   <g id="PatchCollection_271">
    <path clip-path="url(#pbd1fadac38)" d="M 591.313034 186.070163 
L 594.703228 187.124321 
L 603.648626 154.768603 
L 602.292548 154.34694 
z
" style="fill:#7e739e;"/>
   </g>
   <g id="PatchCollection_272">
    <path clip-path="url(#pbd1fadac38)" d="M 594.703228 187.124321 
L 598.153455 187.961337 
L 605.028717 155.10341 
L 603.648626 154.768603 
z
" style="fill:#8271a4;"/>
   </g>
   <g id="PatchCollection_273">
    <path clip-path="url(#pbd1fadac38)" d="M 598.153455 187.961337 
L 601.649823 188.577841 
L 606.427264 155.350011 
L 605.028717 155.10341 
z
" style="fill:#866eaa;"/>
   </g>
   <g id="PatchCollection_274">
    <path clip-path="url(#pbd1fadac38)" d="M 601.649823 188.577841 
L 605.178253 188.97135 
L 607.838636 155.507415 
L 606.427264 155.350011 
z
" style="fill:#8b6cb0;"/>
   </g>
   <g id="PatchCollection_275">
    <path clip-path="url(#pbd1fadac38)" d="M 605.178253 188.97135 
L 608.724536 189.14028 
L 609.257149 155.574987 
L 607.838636 155.507415 
z
" style="fill:#8f6ab6;"/>
   </g>
   <g id="PatchCollection_276">
    <path clip-path="url(#pbd1fadac38)" d="M 608.724536 189.14028 
L 612.274394 189.083951 
L 610.677092 155.552456 
L 609.257149 155.574987 
z
" style="fill:#9368bc;"/>
   </g>
   <g id="PatchCollection_277">
    <path clip-path="url(#pbd1fadac38)" d="M 612.274394 189.083951 
L 615.813533 188.80259 
L 612.092748 155.439911 
L 610.677092 155.552456 
z
" style="fill:#9067bd;"/>
   </g>
   <g id="PatchCollection_278">
    <path clip-path="url(#pbd1fadac38)" d="M 615.813533 188.80259 
L 619.327701 188.297329 
L 613.498415 155.237807 
L 612.092748 155.439911 
z
" style="fill:#8c68bc;"/>
   </g>
   <g id="PatchCollection_279">
    <path clip-path="url(#pbd1fadac38)" d="M 619.327701 188.297329 
L 622.802748 187.570203 
L 614.888434 154.946956 
L 613.498415 155.237807 
z
" style="fill:#8769bc;"/>
   </g>
   <g id="PatchCollection_280">
    <path clip-path="url(#pbd1fadac38)" d="M 622.802748 187.570203 
L 626.224681 186.624139 
L 616.257207 154.568531 
L 614.888434 154.946956 
z
" style="fill:#8269bc;"/>
   </g>
   <g id="PatchCollection_281">
    <path clip-path="url(#pbd1fadac38)" d="M 626.224681 186.624139 
L 629.579722 185.462948 
L 617.599223 154.104054 
L 616.257207 154.568531 
z
" style="fill:#7e6abb;"/>
   </g>
   <g id="PatchCollection_282">
    <path clip-path="url(#pbd1fadac38)" d="M 629.579722 185.462948 
L 632.854361 184.091305 
L 618.909079 153.555397 
L 617.599223 154.104054 
z
" style="fill:#796bbb;"/>
   </g>
   <g id="PatchCollection_283">
    <path clip-path="url(#pbd1fadac38)" d="M 632.854361 184.091305 
L 636.035412 182.514734 
L 620.181499 152.924768 
L 618.909079 153.555397 
z
" style="fill:#746bbb;"/>
   </g>
   <g id="PatchCollection_284">
    <path clip-path="url(#pbd1fadac38)" d="M 636.035412 182.514734 
L 639.110066 180.739581 
L 621.411361 152.214707 
L 620.181499 152.924768 
z
" style="fill:#6f6cba;"/>
   </g>
   <g id="PatchCollection_285">
    <path clip-path="url(#pbd1fadac38)" d="M 639.110066 180.739581 
L 642.065943 178.772996 
L 622.593712 151.428073 
L 621.411361 152.214707 
z
" style="fill:#6b6dba;"/>
   </g>
   <g id="PatchCollection_286">
    <path clip-path="url(#pbd1fadac38)" d="M 642.065943 178.772996 
L 644.89114 176.622897 
L 623.723791 150.568034 
L 622.593712 151.428073 
z
" style="fill:#666db9;"/>
   </g>
   <g id="PatchCollection_287">
    <path clip-path="url(#pbd1fadac38)" d="M 644.89114 176.622897 
L 647.574282 174.297942 
L 624.797047 149.638052 
L 623.723791 150.568034 
z
" style="fill:#616eb9;"/>
   </g>
   <g id="PatchCollection_288">
    <path clip-path="url(#pbd1fadac38)" d="M 647.574282 174.297942 
L 650.104563 171.807492 
L 625.80916 148.641872 
L 624.797047 149.638052 
z
" style="fill:#5c6fb9;"/>
   </g>
   <g id="PatchCollection_289">
    <path clip-path="url(#pbd1fadac38)" d="M 650.104563 171.807492 
L 652.471796 169.161576 
L 626.756053 147.583505 
L 625.80916 148.641872 
z
" style="fill:#586fb8;"/>
   </g>
   <g id="PatchCollection_290">
    <path clip-path="url(#pbd1fadac38)" d="M 652.471796 169.161576 
L 654.666449 166.370848 
L 627.633914 146.467214 
L 626.756053 147.583505 
z
" style="fill:#5370b8;"/>
   </g>
   <g id="PatchCollection_291">
    <path clip-path="url(#pbd1fadac38)" d="M 654.666449 166.370848 
L 656.679685 163.446545 
L 628.439208 145.297493 
L 627.633914 146.467214 
z
" style="fill:#4e71b8;"/>
   </g>
   <g id="PatchCollection_292">
    <path clip-path="url(#pbd1fadac38)" d="M 656.679685 163.446545 
L 658.503396 160.400442 
L 629.168693 144.079052 
L 628.439208 145.297493 
z
" style="fill:#4a71b7;"/>
   </g>
   <g id="PatchCollection_293">
    <path clip-path="url(#pbd1fadac38)" d="M 658.503396 160.400442 
L 660.13024 157.244806 
L 629.81943 142.816797 
L 629.168693 144.079052 
z
" style="fill:#4572b7;"/>
   </g>
   <g id="PatchCollection_294">
    <path clip-path="url(#pbd1fadac38)" d="M 660.13024 157.244806 
L 661.553665 153.992341 
L 630.388801 141.515812 
L 629.81943 142.816797 
z
" style="fill:#4072b7;"/>
   </g>
   <g id="PatchCollection_295">
    <path clip-path="url(#pbd1fadac38)" d="M 661.553665 153.992341 
L 662.767941 150.656146 
L 630.874511 140.181333 
L 630.388801 141.515812 
z
" style="fill:#3b73b6;"/>
   </g>
   <g id="PatchCollection_296">
    <path clip-path="url(#pbd1fadac38)" d="M 662.767941 150.656146 
L 663.768178 147.249653 
L 631.274606 138.818736 
L 630.874511 140.181333 
z
" style="fill:#3774b6;"/>
   </g>
   <g id="PatchCollection_297">
    <path clip-path="url(#pbd1fadac38)" d="M 663.768178 147.249653 
L 664.550347 143.78658 
L 631.587473 137.433507 
L 631.274606 138.818736 
z
" style="fill:#3274b5;"/>
   </g>
   <g id="PatchCollection_298">
    <path clip-path="url(#pbd1fadac38)" d="M 664.550347 143.78658 
L 665.1113 140.280871 
L 631.811855 136.031223 
L 631.587473 137.433507 
z
" style="fill:#2d75b5;"/>
   </g>
   <g id="PatchCollection_299">
    <path clip-path="url(#pbd1fadac38)" d="M 665.1113 140.280871 
L 665.448778 136.746642 
L 631.946846 134.617532 
L 631.811855 136.031223 
z
" style="fill:#2876b5;"/>
   </g>
   <g id="PatchCollection_300">
    <path clip-path="url(#pbd1fadac38)" d="M 665.448778 136.746642 
L 665.561422 133.198125 
L 631.991903 133.198125 
L 631.946846 134.617532 
z
" style="fill:#2476b4;"/>
   </g>
   <g id="line2d_13">
    <path clip-path="url(#pbd1fadac38)" d="M 665.561422 133.198125 
L 665.448778 129.649608 
L 665.1113 126.115379 
L 664.550347 122.60967 
L 663.768178 119.146597 
L 662.767941 115.740104 
L 661.553665 112.403909 
L 660.13024 109.151444 
L 658.503396 105.995808 
L 656.679685 102.949705 
L 654.666449 100.025402 
L 652.471796 97.234674 
L 650.104563 94.588758 
L 647.574282 92.098308 
L 644.89114 89.773353 
L 642.065943 87.623254 
L 639.110066 85.656669 
L 636.035412 83.881516 
L 632.854361 82.304945 
L 629.579722 80.933302 
L 626.224681 79.772111 
L 622.802748 78.826047 
L 619.327701 78.098921 
L 615.813533 77.59366 
L 612.274394 77.312299 
L 608.724536 77.25597 
L 605.178253 77.4249 
L 601.649823 77.818409 
L 598.153455 78.434913 
L 594.703228 79.271929 
L 591.313034 80.326087 
L 587.996524 81.593142 
L 584.767053 83.067992 
L 581.637625 84.744698 
L 578.620841 86.616509 
L 575.728848 88.675888 
L 572.973291 90.914543 
L 570.365267 93.323458 
L 567.915276 95.892934 
L 565.633184 98.612626 
L 563.52818 101.47158 
L 561.608741 104.458287 
L 559.882594 107.560719 
L 558.356691 110.766383 
L 557.037176 114.062372 
L 555.929362 117.435414 
L 555.03771 120.871927 
L 554.365811 124.358074 
L 553.916369 127.879816 
L 553.691194 131.422973 
L 553.691194 134.973277 
L 553.916369 138.516434 
L 554.365811 142.038176 
L 555.03771 145.524323 
L 555.929362 148.960836 
L 557.037176 152.333878 
L 558.356691 155.629867 
L 559.882594 158.835531 
L 561.608741 161.937963 
L 563.52818 164.92467 
L 565.633184 167.783624 
L 567.915276 170.503316 
L 570.365267 173.072792 
L 572.973291 175.481707 
L 575.728848 177.720362 
L 578.620841 179.779741 
L 581.637625 181.651552 
L 584.767053 183.328258 
L 587.996524 184.803108 
L 591.313034 186.070163 
L 594.703228 187.124321 
L 598.153455 187.961337 
L 601.649823 188.577841 
L 605.178253 188.97135 
L 608.724536 189.14028 
L 612.274394 189.083951 
L 615.813533 188.80259 
L 619.327701 188.297329 
L 622.802748 187.570203 
L 626.224681 186.624139 
L 629.579722 185.462948 
L 632.854361 184.091305 
L 636.035412 182.514734 
L 639.110066 180.739581 
L 642.065943 178.772996 
L 644.89114 176.622897 
L 647.574282 174.297942 
L 650.104563 171.807492 
L 652.471796 169.161576 
L 654.666449 166.370848 
L 656.679685 163.446545 
L 658.503396 160.400442 
L 660.13024 157.244806 
L 661.553665 153.992341 
L 662.767941 150.656146 
L 663.768178 147.249653 
L 664.550347 143.78658 
L 665.1113 140.280871 
L 665.448778 136.746642 
L 665.561422 133.198125 
" style="fill:none;stroke:#000000;stroke-linecap:square;"/>
   </g>
   <g id="line2d_14">
    <path clip-path="url(#pbd1fadac38)" d="M 631.991903 133.198125 
L 631.946846 131.778718 
L 631.811855 130.365027 
L 631.587473 128.962743 
L 631.274606 127.577514 
L 630.874511 126.214917 
L 630.388801 124.880438 
L 629.81943 123.579453 
L 629.168693 122.317198 
L 628.439208 121.098757 
L 627.633914 119.929036 
L 626.756053 118.812745 
L 625.80916 117.754378 
L 624.797047 116.758198 
L 623.723791 115.828216 
L 622.593712 114.968177 
L 621.411361 114.181543 
L 620.181499 113.471482 
L 618.909079 112.840853 
L 617.599223 112.292196 
L 616.257207 111.827719 
L 614.888434 111.449294 
L 613.498415 111.158443 
L 612.092748 110.956339 
L 610.677092 110.843794 
L 609.257149 110.821263 
L 607.838636 110.888835 
L 606.427264 111.046239 
L 605.028717 111.29284 
L 603.648626 111.627647 
L 602.292548 112.04931 
L 600.965944 112.556132 
L 599.674156 113.146072 
L 598.422385 113.816754 
L 597.215671 114.565479 
L 596.058874 115.38923 
L 594.956651 116.284692 
L 593.913441 117.248258 
L 592.933445 118.276049 
L 592.020608 119.363925 
L 591.178607 120.507507 
L 590.410831 121.70219 
L 589.720372 122.943162 
L 589.110011 124.225428 
L 588.582205 125.543824 
L 588.139079 126.893041 
L 587.782419 128.267646 
L 587.513659 129.662104 
L 587.333882 131.070801 
L 587.243812 132.488064 
L 587.243812 133.908186 
L 587.333882 135.325449 
L 587.513659 136.734146 
L 587.782419 138.128604 
L 588.139079 139.503209 
L 588.582205 140.852426 
L 589.110011 142.170822 
L 589.720372 143.453088 
L 590.410831 144.69406 
L 591.178607 145.888743 
L 592.020608 147.032325 
L 592.933445 148.120201 
L 593.913441 149.147992 
L 594.956651 150.111558 
L 596.058874 151.00702 
L 597.215671 151.830771 
L 598.422385 152.579496 
L 599.674156 153.250178 
L 600.965944 153.840118 
L 602.292548 154.34694 
L 603.648626 154.768603 
L 605.028717 155.10341 
L 606.427264 155.350011 
L 607.838636 155.507415 
L 609.257149 155.574987 
L 610.677092 155.552456 
L 612.092748 155.439911 
L 613.498415 155.237807 
L 614.888434 154.946956 
L 616.257207 154.568531 
L 617.599223 154.104054 
L 618.909079 153.555397 
L 620.181499 152.924768 
L 621.411361 152.214707 
L 622.593712 151.428073 
L 623.723791 150.568034 
L 624.797047 149.638052 
L 625.80916 148.641872 
L 626.756053 147.583505 
L 627.633914 146.467214 
L 628.439208 145.297493 
L 629.168693 144.079052 
L 629.81943 142.816797 
L 630.388801 141.515812 
L 630.874511 140.181333 
L 631.274606 138.818736 
L 631.587473 137.433507 
L 631.811855 136.031223 
L 631.946846 134.617532 
L 631.991903 133.198125 
" style="fill:none;stroke:#000000;stroke-linecap:square;"/>
   </g>
   <g id="line2d_15">
    <path clip-path="url(#pbd1fadac38)" d="M 665.561422 133.198125 
L 671.156342 133.198125 
" style="fill:none;stroke:#000000;stroke-linecap:square;"/>
   </g>
   <g id="line2d_16">
    <path clip-path="url(#pbd1fadac38)" d="M 609.612224 77.248927 
L 609.612224 71.654007 
" style="fill:none;stroke:#000000;stroke-linecap:square;"/>
   </g>
   <g id="line2d_17">
    <path clip-path="url(#pbd1fadac38)" d="M 609.612224 189.147323 
L 609.612224 194.742243 
" style="fill:none;stroke:#000000;stroke-linecap:square;"/>
   </g>
   <g id="line2d_18">
    <path clip-path="url(#pbd1fadac38)" d="M 553.663026 133.198125 
L 548.068107 133.198125 
" style="fill:none;stroke:#000000;stroke-linecap:square;"/>
   </g>
   <g id="text_11">
    <!-- $0$ -->
    <g transform="translate(679.146181 135.9575)scale(0.1 -0.1)">
     <use transform="translate(0 0.78125)" xlink:href="#DejaVuSans-30"/>
    </g>
   </g>
   <g id="text_12">
    <!-- $\pi/2$ -->
    <g transform="translate(601.712224 63.223543)scale(0.1 -0.1)">
     <use transform="translate(0 0.78125)" xlink:href="#DejaVuSans-Oblique-3c0"/>
     <use transform="translate(60.205078 0.78125)" xlink:href="#DejaVuSans-2f"/>
     <use transform="translate(93.849609 0.78125)" xlink:href="#DejaVuSans-32"/>
    </g>
   </g>
   <g id="text_13">
    <!-- $-\pi/2$ -->
    <g transform="translate(597.512224 208.691457)scale(0.1 -0.1)">
     <use transform="translate(0 0.78125)" xlink:href="#DejaVuSans-2212"/>
     <use transform="translate(83.789062 0.78125)" xlink:href="#DejaVuSans-Oblique-3c0"/>
     <use transform="translate(143.994141 0.78125)" xlink:href="#DejaVuSans-2f"/>
     <use transform="translate(177.638672 0.78125)" xlink:href="#DejaVuSans-32"/>
    </g>
   </g>
   <g id="text_14">
    <!-- $\pi$ -->
    <g transform="translate(533.828267 135.9575)scale(0.1 -0.1)">
     <use transform="translate(0 0.3125)" xlink:href="#DejaVuSans-Oblique-3c0"/>
    </g>
   </g>
   <g id="text_15">
    <!-- 4 colors -->
    <defs>
     <path d="M 37.796875 64.3125 
L 12.890625 25.390625 
L 37.796875 25.390625 
z
M 35.203125 72.90625 
L 47.609375 72.90625 
L 47.609375 25.390625 
L 58.015625 25.390625 
L 58.015625 17.1875 
L 47.609375 17.1875 
L 47.609375 0 
L 37.796875 0 
L 37.796875 17.1875 
L 4.890625 17.1875 
L 4.890625 26.703125 
z
" id="DejaVuSans-34"/>
    </defs>
    <g transform="translate(585.987224 16.318125)scale(0.12 -0.12)">
     <use xlink:href="#DejaVuSans-34"/>
     <use x="63.623047" xlink:href="#DejaVuSans-20"/>
     <use x="95.410156" xlink:href="#DejaVuSans-63"/>
     <use x="150.390625" xlink:href="#DejaVuSans-6f"/>
     <use x="211.572266" xlink:href="#DejaVuSans-6c"/>
     <use x="239.355469" xlink:href="#DejaVuSans-6f"/>
     <use x="300.537109" xlink:href="#DejaVuSans-72"/>
     <use x="341.650391" xlink:href="#DejaVuSans-73"/>
    </g>
   </g>
  </g>
 </g>
 <defs>
  <clipPath id="p61cc5700d2">
   <rect height="221.76" width="196.941176" x="38.482813" y="22.318125"/>
  </clipPath>
  <clipPath id="p42bb587d90">
   <rect height="221.76" width="196.941176" x="274.812224" y="22.318125"/>
  </clipPath>
  <clipPath id="pbd1fadac38">
   <rect height="221.76" width="196.941176" x="511.141636" y="22.318125"/>
  </clipPath>
 </defs>
</svg>
